<svg width="281" height="501" viewBox="0 0 281 501" fill="none" xmlns="http://www.w3.org/2000/svg">
<path d="M0.607422 500.342V41.3416L279.607 41.3429V500.342H0.607422Z" fill="#191A1E" stroke="#121316"/>
<path d="M122.242 137.978C123.874 136.682 124.618 136.082 124.474 136.178C129.178 132.29 132.874 129.098 135.562 126.602C138.298 124.106 140.602 121.49 142.474 118.754C144.346 116.018 145.282 113.354 145.282 110.762C145.282 108.794 144.826 107.258 143.914 106.154C143.002 105.05 141.634 104.498 139.81 104.498C137.986 104.498 136.546 105.194 135.49 106.586C134.482 107.93 133.978 109.85 133.978 112.346H122.098C122.194 108.266 123.058 104.858 124.69 102.122C126.37 99.3856 128.554 97.3696 131.242 96.0735C133.978 94.7775 137.002 94.1295 140.314 94.1295C146.026 94.1295 150.322 95.5935 153.202 98.5215C156.13 101.45 157.594 105.266 157.594 109.97C157.594 115.106 155.842 119.882 152.338 124.298C148.834 128.666 144.37 132.938 138.946 137.114H158.386V147.122H122.242V137.978Z" fill="white"/>
<path d="M63 0.567139L0 40.5671H280V0.567139H63Z" fill="url(#paint0_linear_2799_4240)"/>
<defs>
<linearGradient id="paint0_linear_2799_4240" x1="280" y1="20.5671" x2="8.11286e-07" y2="20.5672" gradientUnits="userSpaceOnUse">
<stop stop-color="#5B1BE1"/>
<stop offset="1" stop-color="#B221E5"/>
</linearGradient>
</defs>
</svg>
