<svg width="291" height="419" viewBox="0 0 291 419" fill="none" xmlns="http://www.w3.org/2000/svg">
<path d="M0.5 41.3419L289.5 41.3416V418.342H0.5V41.3419Z" fill="#191A1E" stroke="#121316"/>
<path d="M224.857 0.567139L290.107 40.5671H0.107422V0.567139H224.857Z" fill="url(#paint0_linear_2799_4225)"/>
<path d="M126.875 107.839C127.067 102.703 128.747 98.7431 131.915 95.9591C135.083 93.1751 139.379 91.7831 144.803 91.7831C148.403 91.7831 151.475 92.4071 154.019 93.6551C156.611 94.9031 158.555 96.6071 159.851 98.7671C161.195 100.927 161.867 103.351 161.867 106.039C161.867 109.207 161.075 111.799 159.491 113.815C157.907 115.783 156.059 117.127 153.947 117.847V118.135C156.683 119.047 158.843 120.559 160.427 122.671C162.011 124.783 162.803 127.495 162.803 130.807C162.803 133.783 162.107 136.423 160.715 138.727C159.371 140.983 157.379 142.759 154.739 144.055C152.147 145.351 149.051 145.999 145.451 145.999C139.691 145.999 135.083 144.583 131.627 141.751C128.219 138.919 126.419 134.647 126.227 128.935H138.179C138.227 131.047 138.827 132.727 139.979 133.975C141.131 135.175 142.811 135.775 145.019 135.775C146.891 135.775 148.331 135.247 149.339 134.191C150.395 133.087 150.923 131.647 150.923 129.871C150.923 127.567 150.179 125.911 148.691 124.903C147.251 123.847 144.923 123.319 141.707 123.319H139.403V113.311H141.707C144.155 113.311 146.123 112.903 147.611 112.087C149.147 111.223 149.915 109.711 149.915 107.551C149.915 105.823 149.435 104.479 148.475 103.519C147.515 102.559 146.195 102.079 144.515 102.079C142.691 102.079 141.323 102.631 140.411 103.735C139.547 104.839 139.043 106.207 138.899 107.839H126.875Z" fill="white"/>
<defs>
<linearGradient id="paint0_linear_2799_4225" x1="0.107424" y1="40.5671" x2="267.29" y2="-60.0335" gradientUnits="userSpaceOnUse">
<stop stop-color="#5B1BE1"/>
<stop offset="1" stop-color="#B221E5"/>
</linearGradient>
</defs>
</svg>
