<svg width="692" height="554" viewBox="0 0 692 554" fill="none" xmlns="http://www.w3.org/2000/svg">
<path opacity="0.5" d="M691.621 214.824L660.888 197.112L347.508 377.873L241.232 316.559L625.16 94.771L594.428 77.0582L210.348 298.695L107.704 239.501L174.317 201.048L199.448 186.666L491.784 17.8642L460.901 0L168.564 168.801L72.5 99.2896L41 118.29L137.831 186.666L0.5 261.79L29.5 282.79L76.972 257.365L182.038 317.922L210.348 334.272L588.675 553.79L619.407 536.077L378.241 395.737L691.621 214.824Z" fill="url(#paint0_radial_2150_4329)"/>
<path opacity="0.3" d="M441.499 447.591C307.75 447.591 199.326 384.978 199.326 307.742C199.326 230.506 307.75 167.893 441.499 167.893C575.247 167.893 683.672 230.506 683.672 307.742C683.672 384.978 575.247 447.591 441.499 447.591Z" fill="url(#paint1_radial_2150_4329)"/>
<defs>
<radialGradient id="paint0_radial_2150_4329" cx="0" cy="0" r="1" gradientUnits="userSpaceOnUse" gradientTransform="translate(365.5 239.79) rotate(30.0333) scale(406.591 273.026)">
<stop stop-color="#C742E8"/>
<stop offset="0.0759497" stop-color="#B83CCC"/>
<stop offset="0.2218" stop-color="#A031AA"/>
<stop offset="0.3636" stop-color="#80288E"/>
<stop offset="0.4979" stop-color="#612178"/>
<stop offset="0.6227" stop-color="#4B1C68"/>
<stop offset="0.7346" stop-color="#3D135F"/>
<stop offset="0.8226" stop-color="#300B4E"/>
<stop offset="1" stop-color="#180626"/>
</radialGradient>
<radialGradient id="paint1_radial_2150_4329" cx="0" cy="0" r="1" gradientUnits="userSpaceOnUse" gradientTransform="translate(441.571 307.758) rotate(149.999) scale(197.717 171.23)">
<stop stop-color="#A942E8"/>
<stop offset="0.0225145" stop-color="#823FD8"/>
<stop offset="0.098265" stop-color="#7036BA"/>
<stop offset="0.1786" stop-color="#602EA0"/>
<stop offset="0.2622" stop-color="#4D278B"/>
<stop offset="0.35" stop-color="#392279"/>
<stop offset="0.4433" stop-color="#321D6C"/>
<stop offset="0.5449" stop-color="#231962"/>
<stop offset="0.6608" stop-color="#1B105D"/>
<stop offset="0.8226" stop-color="#180D5B"/>
</radialGradient>
</defs>
</svg>
