<svg width="203" height="251" viewBox="0 0 203 251" fill="none" xmlns="http://www.w3.org/2000/svg">
<path opacity="0.5" d="M92.5892 248.346L33.5465 214.283C29.0048 211.709 29.6103 207.168 34.7576 204.14L91.378 171.439C96.5253 168.411 104.398 168.109 108.939 170.682L167.982 204.745C172.524 207.319 171.918 211.861 166.771 214.889L109.999 247.589C104.852 250.617 96.9795 250.92 92.5892 248.346Z" fill="#170244"/>
<path d="M178.428 174.618V162.355H146.939L109.696 140.858C104.701 137.981 96.0712 138.284 90.3184 141.615L54.4386 162.355H22.9492V175.224C22.7978 177.192 23.8576 179.008 26.2798 180.371L91.6809 218.067C96.6768 220.944 105.306 220.641 111.059 217.31L173.735 181.128C177.066 179.463 178.58 176.889 178.428 174.618Z" fill="#572A91"/>
<path opacity="0.5" d="M178.428 174.618V162.355H146.939L109.696 140.858C104.701 137.981 96.0712 138.284 90.3184 141.615L54.4386 162.355H22.9492V175.224C22.7978 177.192 23.8576 179.008 26.2798 180.371L91.6809 218.067C96.6768 220.944 105.306 220.641 111.059 217.31L173.735 181.128C177.066 179.463 178.58 176.889 178.428 174.618Z" fill="url(#paint0_linear_961_3916)"/>
<path d="M109.696 140.858C107.274 139.495 104.095 138.89 100.764 138.89V220.187C104.398 220.035 108.182 219.127 111.21 217.462L173.886 181.279C177.217 179.311 178.731 176.889 178.579 174.618V162.355H147.09L109.696 140.858Z" fill="url(#paint1_linear_961_3916)"/>
<path d="M91.6808 205.351L26.2798 167.654C21.2838 164.778 21.8894 159.782 27.6423 156.452L90.3183 120.269C96.0712 116.938 104.7 116.636 109.696 119.512L175.097 157.208C180.093 160.085 179.488 165.081 173.735 168.411L111.059 204.594C105.306 207.925 96.6767 208.227 91.6808 205.351Z" fill="#832A91"/>
<path opacity="0.5" d="M91.6808 205.351L26.2798 167.654C21.2838 164.778 21.8894 159.782 27.6423 156.452L90.3183 120.269C96.0712 116.938 104.7 116.636 109.696 119.512L175.097 157.208C180.093 160.085 179.488 165.081 173.735 168.411L111.059 204.594C105.306 207.925 96.6767 208.227 91.6808 205.351Z" fill="url(#paint2_linear_961_3916)"/>
<path d="M93.4975 197.024L40.8133 166.594C36.8772 164.323 37.3313 160.236 41.8731 157.51L92.2864 128.443C96.9795 125.718 103.944 125.416 107.88 127.838L160.564 158.267C164.5 160.538 164.046 164.626 159.504 167.351L109.091 196.418C104.398 198.992 97.4337 199.295 93.4975 197.024Z" fill="#FADAFF"/>
<path d="M41.873 161.598L92.2863 132.531C96.9794 129.806 103.943 129.503 107.88 131.925L160.564 162.355C161.624 162.96 162.229 163.566 162.683 164.323C163.894 162.203 163.137 159.932 160.564 158.419L107.88 127.837C103.943 125.567 96.828 125.869 92.2863 128.443L41.873 157.51C38.391 159.478 37.1798 162.355 38.5424 164.474C39.1479 163.566 40.2077 162.506 41.873 161.598Z" fill="#E842E1"/>
<path opacity="0.5" d="M93.8003 205.351L28.3992 167.654C23.4033 164.778 22.1922 160.539 29.7617 156.451L92.4378 120.269C95.3142 118.603 98.7962 117.695 102.278 117.544C98.1907 117.392 93.6489 118.301 90.3183 120.269L27.6423 156.451C21.8894 159.782 21.2838 164.778 26.2798 167.654L91.6808 205.351C94.2545 206.864 97.7365 207.47 101.218 207.319C98.4935 207.167 95.9198 206.562 93.8003 205.351Z" fill="url(#paint3_linear_961_3916)"/>
<path opacity="0.5" d="M173.735 173.86L111.059 210.043C105.306 213.374 96.6768 213.676 91.6809 210.8L26.2798 173.103C23.8576 171.741 22.7978 169.924 22.9492 167.956V170.681C22.7978 172.649 23.8576 174.466 26.2798 175.829L91.6809 213.525C96.6768 216.401 105.306 216.099 111.059 212.768L173.735 176.586C177.066 174.617 178.58 172.195 178.428 169.924V167.199C178.58 169.47 177.066 171.892 173.735 173.86Z" fill="url(#paint4_linear_961_3916)"/>
<path d="M162.381 170.379C163.138 170.833 163.138 171.438 162.381 171.893C161.624 172.347 160.564 172.347 159.807 171.893C159.05 171.438 159.05 170.833 159.807 170.379C160.413 169.925 161.624 169.925 162.381 170.379Z" fill="#FD96FF"/>
<path d="M166.317 167.958C167.074 168.412 167.074 169.018 166.317 169.472C165.56 169.926 164.5 169.926 163.743 169.472C162.986 169.018 162.986 168.412 163.743 167.958C164.5 167.504 165.711 167.504 166.317 167.958Z" fill="#FD96FF"/>
<path d="M170.405 165.686C171.162 166.141 171.162 166.746 170.405 167.2C169.648 167.654 168.588 167.654 167.831 167.2C167.074 166.746 167.074 166.141 167.831 165.686C168.588 165.232 169.648 165.232 170.405 165.686Z" fill="#FD96FF"/>
<path opacity="0.5" d="M95.0116 189.605L53.6817 165.837C50.5025 164.02 50.9567 160.841 54.5901 158.721L94.1032 135.861C97.7366 133.742 103.187 133.59 106.366 135.407L147.696 159.327C150.875 161.144 150.421 164.323 146.787 166.442L107.274 189.302C103.641 191.271 98.1908 191.422 95.0116 189.605Z" fill="#3B0244"/>
<path opacity="0.5" d="M100.613 117.543C96.9796 117.694 93.1948 118.603 90.167 120.268L76.6932 128.14L22.7978 128.443V162.506C22.6465 164.474 23.7062 166.291 26.1285 167.654L91.5295 205.35C93.9518 206.713 97.131 207.318 100.462 207.318V117.543H100.613Z" fill="#E85CFF"/>
<path opacity="0.5" d="M178.428 162.355C178.428 162.052 178.428 161.901 178.428 161.598V127.535L124.23 127.838L109.696 119.36C104.701 116.483 96.0712 116.786 90.3184 120.117L76.8446 127.989L22.9492 128.292V162.355C22.7978 164.323 23.8576 166.14 26.2798 167.502L91.6809 205.199C96.6768 208.075 105.306 207.772 111.059 204.442L173.735 168.259C176.763 166.745 178.277 164.474 178.428 162.355Z" fill="#FFD6F8"/>
<path d="M178.428 127.535V115.272H146.939L109.696 93.7747C104.701 90.8983 96.0712 91.2011 90.3184 94.5317L54.4386 115.272H22.9492V128.141C22.7978 130.109 23.8576 131.925 26.2798 133.288L91.6809 170.984C96.6768 173.861 105.306 173.558 111.059 170.227L173.735 134.045C177.066 132.38 178.58 129.957 178.428 127.535Z" fill="#572A91"/>
<path opacity="0.5" d="M178.428 127.535V115.272H146.939L109.696 93.7747C104.701 90.8983 96.0712 91.2011 90.3184 94.5317L54.4386 115.272H22.9492V128.141C22.7978 130.109 23.8576 131.925 26.2798 133.288L91.6809 170.984C96.6768 173.861 105.306 173.558 111.059 170.227L173.735 134.045C177.066 132.38 178.58 129.957 178.428 127.535Z" fill="url(#paint5_linear_961_3916)"/>
<path d="M109.696 93.9261C107.274 92.5636 104.095 91.958 100.764 91.958V173.255C104.398 173.104 108.182 172.195 111.21 170.53L173.886 134.348C177.217 132.38 178.731 129.957 178.579 127.686V115.424H147.09L109.696 93.9261Z" fill="url(#paint6_linear_961_3916)"/>
<path d="M91.6808 158.419L26.2798 120.722C21.2838 117.846 21.8894 112.85 27.6423 109.519L90.3183 73.3368C96.0712 70.0062 104.7 69.7034 109.696 72.5799L175.097 110.276C180.093 113.153 179.488 118.149 173.735 121.479L111.059 157.662C105.306 160.841 96.6767 161.295 91.6808 158.419Z" fill="#8F2A91"/>
<path opacity="0.5" d="M91.6808 158.419L26.2798 120.722C21.2838 117.846 21.8894 112.85 27.6423 109.519L90.3183 73.3368C96.0712 70.0062 104.7 69.7034 109.696 72.5799L175.097 110.276C180.093 113.153 179.488 118.149 173.735 121.479L111.059 157.662C105.306 160.841 96.6767 161.295 91.6808 158.419Z" fill="url(#paint7_linear_961_3916)"/>
<path opacity="0.5" d="M93.8003 158.418L28.3992 120.722C23.4033 117.846 22.1922 113.607 29.7617 109.519L92.4378 73.3365C95.3142 71.6712 98.7962 70.7628 102.278 70.6114C98.1907 70.46 93.6489 71.3684 90.3183 73.3365L27.6423 109.368C21.8894 112.698 21.2838 117.694 26.2798 120.571L91.6808 158.267C94.2545 159.781 97.7365 160.387 101.218 160.235C98.4935 160.084 95.9198 159.478 93.8003 158.418Z" fill="url(#paint8_linear_961_3916)"/>
<path opacity="0.5" d="M173.735 126.778L111.059 162.961C105.306 166.292 96.6768 166.594 91.6809 163.718L26.2798 126.021C23.8576 124.659 22.7978 122.842 22.9492 120.874V123.599C22.7978 125.567 23.8576 127.384 26.2798 128.746L91.6809 166.443C96.6768 169.319 105.306 169.017 111.059 165.686L173.735 129.503C177.066 127.535 178.58 125.113 178.428 122.842V120.117C178.58 122.388 177.066 124.962 173.735 126.778Z" fill="url(#paint9_linear_961_3916)"/>
<path opacity="0.2" d="M95.466 118.149C96.8285 118.906 96.8285 120.268 95.466 121.025C94.1035 121.782 91.8326 121.782 90.6215 121.025C89.259 120.268 89.259 118.906 90.6215 118.149C91.984 117.392 94.1035 117.392 95.466 118.149Z" fill="#FB26FF"/>
<path opacity="0.6" d="M103.187 113.758C104.549 114.515 104.549 115.878 103.187 116.635C101.824 117.392 99.5533 117.392 98.3422 116.635C96.9797 115.878 96.9797 114.515 98.3422 113.758C99.5533 112.85 101.824 112.85 103.187 113.758Z" fill="#FC6BFF"/>
<path d="M110.757 109.216C112.119 109.973 112.119 111.336 110.757 112.093C109.394 112.85 107.123 112.85 105.912 112.093C104.55 111.336 104.55 109.973 105.912 109.216C107.275 108.459 109.394 108.459 110.757 109.216Z" fill="#FD96FF"/>
<path opacity="0.5" d="M100.31 149.032C97.8882 149.032 95.6174 148.578 93.8007 147.518L45.3554 119.662C43.5387 118.603 42.6304 117.24 42.6304 115.575C42.6304 113.758 43.9929 111.79 46.4152 110.428L92.7409 83.6313C97.1313 81.0576 103.793 80.9063 107.577 83.0257L156.023 110.882C157.839 111.941 158.748 113.304 158.748 114.969C158.748 116.786 157.385 118.754 154.963 120.117L108.637 146.913C106.215 148.427 103.187 149.032 100.31 149.032ZM101.067 82.7229C98.3424 82.7229 95.466 83.3285 93.1951 84.691L46.8693 111.336C44.7499 112.547 43.5387 114.061 43.5387 115.575C43.5387 116.786 44.2957 117.846 45.8096 118.754L94.2548 146.61C97.7368 148.578 103.944 148.427 108.031 146.005L154.357 119.208C156.477 117.997 157.688 116.483 157.688 114.969C157.688 113.758 156.931 112.698 155.417 111.79L106.972 83.9341C105.458 83.1771 103.338 82.7229 101.067 82.7229Z" fill="#370244"/>
<path d="M101.219 155.088C98.3423 155.088 95.6172 154.482 93.4977 153.271L3.87405 101.495C1.90596 100.284 0.694824 98.6189 0.694824 96.8022C0.694824 94.6827 2.36013 92.4118 5.08518 90.8979L92.2866 40.636C97.5853 37.6082 105.458 37.3054 109.999 39.879L199.623 91.6549C201.591 92.866 202.802 94.5313 202.802 96.348C202.802 98.4675 201.137 100.738 198.412 102.252L111.211 152.514C108.334 154.331 104.701 155.088 101.219 155.088ZM102.278 38.8193C98.9478 38.8193 95.3144 39.5762 92.5894 41.2416L5.38797 91.5035C2.81431 93.0174 1.30039 94.9855 1.30039 96.9536C1.30039 98.6189 2.36013 99.9814 4.17683 101.041L93.8005 152.817C98.1909 155.391 105.912 155.088 111.059 152.06L198.261 101.798C200.834 100.284 202.348 98.3161 202.348 96.348C202.348 94.6827 201.288 93.3202 199.472 92.2605L109.848 40.4846C107.729 39.4249 105.003 38.8193 102.278 38.8193Z" fill="#FDF4FE"/>
<path opacity="0.3" d="M90.5 86.6621C49.3548 86.6621 16 67.4104 16 43.6621C16 19.9139 49.3548 0.662109 90.5 0.662109C131.645 0.662109 165 19.9139 165 43.6621C165 67.4104 131.645 86.6621 90.5 86.6621Z" fill="url(#paint10_radial_961_3916)"/>
<path d="M79.7167 43.6712C79.7167 49.597 84.427 54.3072 90.3527 54.3072C96.2785 54.3072 100.989 49.597 100.989 43.6712C100.989 37.7454 96.2785 33.0352 90.3527 33.0352C84.427 33.0352 79.7167 37.7454 79.7167 43.6712Z" fill="url(#paint11_radial_961_3916)"/>
<path d="M87.3139 43.6712C87.3139 45.3426 88.6814 46.7101 90.3527 46.7101C92.0241 46.7101 93.3916 45.3426 93.3916 43.6712C93.3916 41.9998 92.0241 40.6323 90.3527 40.6323C88.6814 40.6323 87.3139 41.9998 87.3139 43.6712Z" fill="#E0B0FF"/>
<path opacity="0.3" d="M122.5 176.662C91.2959 176.662 66 162.111 66 144.162C66 126.213 91.2959 111.662 122.5 111.662C153.704 111.662 179 126.213 179 144.162C179 162.111 153.704 176.662 122.5 176.662Z" fill="url(#paint12_radial_961_3916)"/>
<path d="M114.158 144.169C114.158 148.648 117.718 152.208 122.197 152.208C126.676 152.208 130.236 148.648 130.236 144.169C130.236 139.69 126.676 136.13 122.197 136.13C117.718 136.13 114.158 139.69 114.158 144.169Z" fill="url(#paint13_radial_961_3916)"/>
<path d="M119.9 144.169C119.9 145.432 120.934 146.466 122.197 146.466C123.46 146.466 124.494 145.432 124.494 144.169C124.494 142.906 123.46 141.872 122.197 141.872C120.934 141.872 119.9 142.906 119.9 144.169Z" fill="#E0B0FF"/>
<defs>
<linearGradient id="paint0_linear_961_3916" x1="-11.4842" y1="179.594" x2="144.061" y2="179.594" gradientUnits="userSpaceOnUse">
<stop stop-color="#751C7C"/>
<stop offset="0.1022" stop-color="#821584"/>
<stop offset="0.3445" stop-color="#5E166A"/>
<stop offset="0.564" stop-color="#591464"/>
<stop offset="0.7534" stop-color="#451257"/>
<stop offset="0.905" stop-color="#371056"/>
<stop offset="1" stop-color="#220943"/>
</linearGradient>
<linearGradient id="paint1_linear_961_3916" x1="100.671" y1="179.591" x2="178.444" y2="179.591" gradientUnits="userSpaceOnUse">
<stop stop-color="#220539"/>
<stop offset="1" stop-color="#34054A"/>
</linearGradient>
<linearGradient id="paint2_linear_961_3916" x1="22.8981" y1="162.411" x2="178.455" y2="162.411" gradientUnits="userSpaceOnUse">
<stop stop-color="#E842C3"/>
<stop offset="0.1022" stop-color="#CE3CBF"/>
<stop offset="0.3445" stop-color="#A32FA5"/>
<stop offset="0.564" stop-color="#782585"/>
<stop offset="0.7534" stop-color="#5E1E6E"/>
<stop offset="0.905" stop-color="#3B1660"/>
<stop offset="1" stop-color="#2F0D5B"/>
</linearGradient>
<linearGradient id="paint3_linear_961_3916" x1="22.8981" y1="162.413" x2="102.291" y2="162.413" gradientUnits="userSpaceOnUse">
<stop stop-color="#E542E8"/>
<stop offset="0.1022" stop-color="#CB3CCE"/>
<stop offset="0.3445" stop-color="#A52F99"/>
<stop offset="0.564" stop-color="#85257B"/>
<stop offset="0.7534" stop-color="#5E1E6E"/>
<stop offset="0.905" stop-color="#3F1660"/>
<stop offset="1" stop-color="#340D5B"/>
</linearGradient>
<linearGradient id="paint4_linear_961_3916" x1="44.0553" y1="207.674" x2="174.256" y2="122.572" gradientUnits="userSpaceOnUse">
<stop stop-color="#E542E8"/>
<stop offset="0.1022" stop-color="#CE3CC8"/>
<stop offset="0.3445" stop-color="#9C2FA5"/>
<stop offset="0.564" stop-color="#722585"/>
<stop offset="0.7534" stop-color="#541E6E"/>
<stop offset="0.905" stop-color="#3F1660"/>
<stop offset="1" stop-color="#340D5B"/>
</linearGradient>
<linearGradient id="paint5_linear_961_3916" x1="-11.4842" y1="132.577" x2="144.061" y2="132.577" gradientUnits="userSpaceOnUse">
<stop stop-color="#60136C"/>
<stop offset="0.1022" stop-color="#570E63"/>
<stop offset="0.3444" stop-color="#4A0C59"/>
<stop offset="0.564" stop-color="#3B0B4D"/>
<stop offset="0.7534" stop-color="#34114F"/>
<stop offset="0.905" stop-color="#220C3E"/>
<stop offset="1" stop-color="#1B0842"/>
</linearGradient>
<linearGradient id="paint6_linear_961_3916" x1="100.671" y1="132.574" x2="178.444" y2="132.574" gradientUnits="userSpaceOnUse">
<stop stop-color="#220539"/>
<stop offset="1" stop-color="#34054A"/>
</linearGradient>
<linearGradient id="paint7_linear_961_3916" x1="22.8981" y1="115.394" x2="178.455" y2="115.394" gradientUnits="userSpaceOnUse">
<stop stop-color="#E842D7"/>
<stop offset="0.1022" stop-color="#CE3CBF"/>
<stop offset="0.3445" stop-color="#942FA5"/>
<stop offset="0.564" stop-color="#7D2585"/>
<stop offset="0.7534" stop-color="#591E6E"/>
<stop offset="0.905" stop-color="#3F1660"/>
<stop offset="1" stop-color="#340D5B"/>
</linearGradient>
<linearGradient id="paint8_linear_961_3916" x1="22.8981" y1="115.396" x2="102.291" y2="115.396" gradientUnits="userSpaceOnUse">
<stop stop-color="#E842D7"/>
<stop offset="0.1022" stop-color="#CE3CBF"/>
<stop offset="0.3445" stop-color="#A32FA5"/>
<stop offset="0.564" stop-color="#722585"/>
<stop offset="0.7533" stop-color="#5C2470"/>
<stop offset="0.905" stop-color="#3B1660"/>
<stop offset="1" stop-color="#340D5B"/>
</linearGradient>
<linearGradient id="paint9_linear_961_3916" x1="44.0553" y1="160.658" x2="174.256" y2="75.556" gradientUnits="userSpaceOnUse">
<stop stop-color="#E842D7"/>
<stop offset="0.1022" stop-color="#CE3CBF"/>
<stop offset="0.3445" stop-color="#A52FA0"/>
<stop offset="0.564" stop-color="#832585"/>
<stop offset="0.7534" stop-color="#631E6E"/>
<stop offset="0.905" stop-color="#561660"/>
<stop offset="1" stop-color="#3D0D5B"/>
</linearGradient>
<radialGradient id="paint10_radial_961_3916" cx="0" cy="0" r="1" gradientUnits="userSpaceOnUse" gradientTransform="translate(90.4935 43.6709) rotate(150.015) scale(60.7636 52.6067)">
<stop stop-color="#DB42E8"/>
<stop offset="0.0225145" stop-color="#D53FD8"/>
<stop offset="0.098265" stop-color="#B736BA"/>
<stop offset="0.1786" stop-color="#972EA0"/>
<stop offset="0.2622" stop-color="#71278B"/>
<stop offset="0.35" stop-color="#682279"/>
<stop offset="0.4433" stop-color="#491D6C"/>
<stop offset="0.5449" stop-color="#421962"/>
<stop offset="0.6608" stop-color="#37105D"/>
<stop offset="0.8226" stop-color="#260D5B"/>
</radialGradient>
<radialGradient id="paint11_radial_961_3916" cx="0" cy="0" r="1" gradientUnits="userSpaceOnUse" gradientTransform="translate(90.3728 43.6402) rotate(180) scale(10.6612)">
<stop stop-color="#B342E8"/>
<stop offset="0.0225145" stop-color="#C33FD8"/>
<stop offset="0.098265" stop-color="#A836BA"/>
<stop offset="0.1786" stop-color="#902EA0"/>
<stop offset="0.2622" stop-color="#77278B"/>
<stop offset="0.35" stop-color="#56176C"/>
<stop offset="0.4433" stop-color="#49155B"/>
<stop offset="0.5449" stop-color="#3C0E51"/>
<stop offset="0.6608" stop-color="#280B40"/>
<stop offset="0.8226" stop-color="#1D072F"/>
</radialGradient>
<radialGradient id="paint12_radial_961_3916" cx="0" cy="0" r="1" gradientUnits="userSpaceOnUse" gradientTransform="translate(122.495 144.169) rotate(150.099) scale(46.0434 39.7946)">
<stop stop-color="#DB42E8"/>
<stop offset="0.0225145" stop-color="#D53FD8"/>
<stop offset="0.098265" stop-color="#B736BA"/>
<stop offset="0.1786" stop-color="#972EA0"/>
<stop offset="0.2622" stop-color="#71278B"/>
<stop offset="0.35" stop-color="#682279"/>
<stop offset="0.4433" stop-color="#491D6C"/>
<stop offset="0.5449" stop-color="#421962"/>
<stop offset="0.6608" stop-color="#37105D"/>
<stop offset="0.8226" stop-color="#260D5B"/>
</radialGradient>
<radialGradient id="paint13_radial_961_3916" cx="0" cy="0" r="1" gradientUnits="userSpaceOnUse" gradientTransform="translate(122.212 144.145) rotate(180) scale(8.05792)">
<stop stop-color="#B342E8"/>
<stop offset="0.0225145" stop-color="#C33FD8"/>
<stop offset="0.098265" stop-color="#A836BA"/>
<stop offset="0.1786" stop-color="#902EA0"/>
<stop offset="0.2622" stop-color="#77278B"/>
<stop offset="0.35" stop-color="#56176C"/>
<stop offset="0.4433" stop-color="#49155B"/>
<stop offset="0.5449" stop-color="#3C0E51"/>
<stop offset="0.6608" stop-color="#280B40"/>
<stop offset="0.8226" stop-color="#1D072F"/>
</radialGradient>
</defs>
</svg>
