<svg width="24" height="24" viewBox="0 0 24 24" fill="none" xmlns="http://www.w3.org/2000/svg">
<path d="M12 0C5.37188 0 0 5.37188 0 12C0 18.6281 5.37188 24 12 24C18.6281 24 24 18.6281 24 12C24 5.37188 18.6281 0 12 0ZM9.3375 14.6531C10.0378 15.3591 10.9688 15.7491 11.9573 15.7491C11.9588 15.7491 11.9573 15.7491 11.9573 15.7491C12.9445 15.7491 13.8755 15.3594 14.5744 14.6531C15.0138 14.2137 15.7242 14.2093 16.1667 14.6458C16.6076 15.0838 16.6106 15.7957 16.174 16.2382C15.049 17.3735 13.5514 17.9988 11.9576 17.9988C11.9576 17.9988 11.9591 17.9988 11.9576 17.9988C10.3653 17.9988 8.86622 17.3735 7.74122 16.2382C5.42372 13.9 5.42372 10.0975 7.74122 7.75847C8.86622 6.62316 10.3653 5.99784 11.9576 5.99784C11.9591 5.99784 11.9576 5.99784 11.9576 5.99784C13.5514 5.99784 15.049 6.62316 16.174 7.75847C16.6105 8.20088 16.6076 8.91253 16.1667 9.35081C15.7243 9.78881 15.0141 9.7815 14.5744 9.3435C13.8755 8.63756 12.9445 8.24756 11.9573 8.24756C11.9573 8.24756 11.9588 8.24756 11.9573 8.24756C10.9688 8.24756 10.0378 8.63719 9.3375 9.3435C7.88906 10.8094 7.88906 13.1906 9.3375 14.6531Z" fill="white"/>
</svg>
