<svg width="136" height="136" viewBox="0 0 136 136" fill="none" xmlns="http://www.w3.org/2000/svg">
<g filter="url(#filter0_d_914_3873)">
<rect x="21" y="0.5" width="94" height="94" rx="20.3571" fill="url(#paint0_linear_914_3873)"/>
</g>
<path d="M86.3973 30.9699L88.4387 43.2336C90.0225 42.586 91.7175 42.2527 93.4289 42.2521C93.7818 42.2521 94.1346 42.2521 94.479 42.3025L92.3368 29.3174C93.8271 28.1554 94.8664 26.512 95.2764 24.6689C95.6865 22.8258 95.4418 20.8976 94.5844 19.2149C93.7269 17.5321 92.31 16.1994 90.5765 15.4452C88.843 14.691 86.9008 14.5622 85.0826 15.0809C83.2645 15.5996 81.6835 16.7335 80.6108 18.2883C79.538 19.843 79.0401 21.7219 79.2024 23.603C79.3648 25.4841 80.1772 27.2503 81.5006 28.5989C82.8239 29.9475 84.5758 30.7946 86.4561 30.9951L86.3973 30.9699ZM77.2149 31.4061C75.8889 29.8246 74.9536 27.9541 74.4846 25.9453L60.2953 33.0083L47.8702 39.2156C46.4708 38.0002 44.6967 37.3 42.8432 37.2317C40.9897 37.1635 39.1688 37.7312 37.6835 38.8403C36.1982 39.9495 35.1382 41.5331 34.6801 43.3277C34.2219 45.1222 34.3932 47.0192 35.1654 48.703C35.9377 50.3868 37.2642 51.7556 38.9242 52.5816C40.5842 53.4077 42.4775 53.641 44.2889 53.2428C46.1002 52.8446 47.7203 51.839 48.8794 50.3932C50.0385 48.9475 50.6667 47.149 50.6593 45.2971C50.6593 45.0874 50.6173 44.886 50.6005 44.6763L77.2149 31.4061ZM93.4709 47.3438C91.3119 47.3438 89.2413 48.2002 87.7146 49.7245C86.188 51.2488 85.3303 53.3163 85.3303 55.472C85.3234 55.8958 85.3515 56.3195 85.4143 56.7386L74.0057 64.2042C75.5055 65.6221 76.6557 67.3678 77.3662 69.3043L88.5563 61.9478C89.5872 62.7208 90.7874 63.2381 92.0579 63.4569C93.3284 63.6757 94.6328 63.5898 95.8635 63.2061C97.0942 62.8225 98.2159 62.1522 99.1361 61.2506C100.056 60.3489 100.749 59.2417 101.156 58.0203C101.563 56.7989 101.674 55.4983 101.479 54.2259C101.283 52.9534 100.788 51.7455 100.033 50.7018C99.2784 49.6581 98.286 48.8086 97.1377 48.2233C95.9894 47.638 94.7182 47.3336 93.4289 47.3354L93.4709 47.3438Z" fill="white"/>
<path d="M64.9142 65.6376C63.9584 65.6458 63.0114 65.8218 62.1167 66.1576L52.8503 53.4914C51.5635 55.1035 49.9221 56.398 48.0533 57.2745L57.5465 70.3014C57.0089 71.3784 56.7217 72.5626 56.7064 73.7658C56.7047 75.3758 57.1815 76.9501 58.0763 78.2894C58.971 79.6288 60.2436 80.6729 61.733 81.2898C63.2224 81.9067 64.8616 82.0685 66.4431 81.7549C68.0247 81.4412 69.4774 80.6661 70.6176 79.5276C71.7578 78.3892 72.534 76.9386 72.8482 75.3595C73.1624 73.7804 73.0003 72.1437 72.3825 70.6566C71.7646 69.1694 70.7189 67.8988 69.3775 67.0053C68.0361 66.1119 66.4594 65.6359 64.847 65.6376H64.9142Z" fill="white"/>
<defs>
<filter id="filter0_d_914_3873" x="0.642857" y="0.5" width="134.714" height="134.714" filterUnits="userSpaceOnUse" color-interpolation-filters="sRGB">
<feFlood flood-opacity="0" result="BackgroundImageFix"/>
<feColorMatrix in="SourceAlpha" type="matrix" values="0 0 0 0 0 0 0 0 0 0 0 0 0 0 0 0 0 0 127 0" result="hardAlpha"/>
<feOffset dy="20.3571"/>
<feGaussianBlur stdDeviation="10.1786"/>
<feComposite in2="hardAlpha" operator="out"/>
<feColorMatrix type="matrix" values="0 0 0 0 0.054902 0 0 0 0 0.00392157 0 0 0 0 0.152941 0 0 0 0.25 0"/>
<feBlend mode="normal" in2="BackgroundImageFix" result="effect1_dropShadow_914_3873"/>
<feBlend mode="normal" in="SourceGraphic" in2="effect1_dropShadow_914_3873" result="shape"/>
</filter>
<linearGradient id="paint0_linear_914_3873" x1="21" y1="0.5" x2="115" y2="94.5" gradientUnits="userSpaceOnUse">
<stop stop-color="#CEA8FF"/>
<stop offset="1" stop-color="#5B1BE1"/>
</linearGradient>
</defs>
</svg>
