<svg width="63" height="69" viewBox="0 0 63 69" fill="none" xmlns="http://www.w3.org/2000/svg">
<g filter="url(#filter0_d_1340_6333)">
<rect x="10.2111" y="5.21106" width="43.4256" height="43.4256" rx="9.30549" fill="url(#paint0_linear_1340_6333)"/>
</g>
<path d="M40.4229 19.2874L41.366 24.9529C42.0977 24.6538 42.8807 24.4998 43.6713 24.4995C43.8343 24.4995 43.9973 24.4995 44.1565 24.5228L43.1668 18.524C43.8553 17.9872 44.3354 17.228 44.5248 16.3765C44.7143 15.525 44.6012 14.6343 44.2051 13.8569C43.809 13.0795 43.1544 12.4638 42.3536 12.1154C41.5528 11.767 40.6555 11.7075 39.8156 11.9471C38.9756 12.1867 38.2453 12.7106 37.7497 13.4288C37.2541 14.1471 37.0241 15.0151 37.0991 15.8841C37.1741 16.7531 37.5494 17.569 38.1608 18.1921C38.7721 18.8151 39.5814 19.2064 40.4501 19.2991L40.4229 19.2874ZM36.1809 19.4889C35.5683 18.7583 35.1362 17.8942 34.9195 16.9662L28.3644 20.2291L22.6243 23.0967C21.9779 22.5352 21.1583 22.2118 20.302 22.1802C19.4458 22.1487 18.6045 22.411 17.9184 22.9234C17.2322 23.4358 16.7425 24.1674 16.5309 24.9964C16.3192 25.8254 16.3983 26.7018 16.7551 27.4797C17.1118 28.2575 17.7247 28.8899 18.4915 29.2715C19.2584 29.6531 20.1331 29.7609 20.9699 29.577C21.8067 29.393 22.5551 28.9284 23.0906 28.2605C23.6261 27.5926 23.9163 26.7617 23.9129 25.9062C23.9129 25.8093 23.8935 25.7163 23.8857 25.6195L36.1809 19.4889ZM43.6907 26.8518C42.6933 26.8518 41.7368 27.2474 41.0315 27.9516C40.3262 28.6558 39.93 29.6109 39.93 30.6068C39.9268 30.8026 39.9398 30.9983 39.9688 31.1919L34.6983 34.6408C35.3912 35.2959 35.9225 36.1024 36.2507 36.9969L41.4203 33.5984C41.8966 33.9556 42.451 34.1945 43.038 34.2956C43.6249 34.3967 44.2275 34.357 44.7961 34.1798C45.3646 34.0025 45.8828 33.6929 46.3079 33.2763C46.733 32.8598 47.0528 32.3483 47.241 31.784C47.4291 31.2198 47.4802 30.6189 47.3901 30.0311C47.2999 29.4432 47.071 28.8852 46.7223 28.4031C46.3737 27.9209 45.9152 27.5285 45.3847 27.2581C44.8542 26.9877 44.2669 26.8471 43.6713 26.8479L43.6907 26.8518Z" fill="white"/>
<path d="M30.4983 35.303C30.0567 35.3068 29.6192 35.3881 29.2059 35.5433L24.9251 29.6918C24.3306 30.4365 23.5723 31.0346 22.709 31.4395L27.0946 37.4576C26.8462 37.9551 26.7136 38.5022 26.7065 39.058C26.7057 39.8018 26.9259 40.5291 27.3393 41.1478C27.7527 41.7666 28.3406 42.249 29.0287 42.534C29.7167 42.8189 30.474 42.8937 31.2046 42.7488C31.9352 42.6039 32.6064 42.2458 33.1331 41.7199C33.6598 41.1939 34.0185 40.5238 34.1636 39.7943C34.3087 39.0648 34.2338 38.3087 33.9484 37.6217C33.663 36.9346 33.1799 36.3476 32.5602 35.9349C31.9405 35.5221 31.2121 35.3022 30.4672 35.303H30.4983Z" fill="white"/>
<path d="M31.9239 0C17.0573 0 5 12.0573 5 26.9239C5 33.0834 7.14624 38.702 10.5663 43.3085C16.0278 50.6895 31.9239 68.7318 31.9239 68.7318C31.9239 68.7318 47.82 50.672 53.2815 43.3085C56.6841 38.7194 58.8478 33.1008 58.8478 26.9239C58.8478 12.0573 46.7905 0 31.9239 0ZM31.9239 48.0721C20.2505 48.0721 10.7756 38.5973 10.7756 26.9239C10.7756 15.2505 20.2505 5.77563 31.9239 5.77563C43.5973 5.77563 53.0722 15.2505 53.0722 26.9239C53.0722 38.5973 43.5973 48.0721 31.9239 48.0721Z" fill="#BC91FA"/>
<defs>
<filter id="filter0_d_1340_6333" x="0.905569" y="5.21106" width="62.0366" height="62.0366" filterUnits="userSpaceOnUse" color-interpolation-filters="sRGB">
<feFlood flood-opacity="0" result="BackgroundImageFix"/>
<feColorMatrix in="SourceAlpha" type="matrix" values="0 0 0 0 0 0 0 0 0 0 0 0 0 0 0 0 0 0 127 0" result="hardAlpha"/>
<feOffset dy="9.30549"/>
<feGaussianBlur stdDeviation="4.65275"/>
<feComposite in2="hardAlpha" operator="out"/>
<feColorMatrix type="matrix" values="0 0 0 0 0.054902 0 0 0 0 0.00392157 0 0 0 0 0.152941 0 0 0 0.25 0"/>
<feBlend mode="normal" in2="BackgroundImageFix" result="effect1_dropShadow_1340_6333"/>
<feBlend mode="normal" in="SourceGraphic" in2="effect1_dropShadow_1340_6333" result="shape"/>
</filter>
<linearGradient id="paint0_linear_1340_6333" x1="10.2111" y1="5.21106" x2="53.6367" y2="48.6367" gradientUnits="userSpaceOnUse">
<stop stop-color="#CEA8FF"/>
<stop offset="1" stop-color="#5B1BE1"/>
</linearGradient>
</defs>
</svg>
