<svg width="118" height="119" viewBox="0 0 118 119" fill="none" xmlns="http://www.w3.org/2000/svg">
<g filter="url(#filter0_d_914_3939)">
<rect x="12" y="0.5" width="94" height="94" rx="12" fill="url(#paint0_linear_914_3939)"/>
</g>
<path d="M38.0419 61.478C39.2371 61.48 40.4061 61.0882 41.4008 60.352C42.3955 59.6158 43.1712 58.5684 43.6299 57.3423C44.0886 56.1162 44.2095 54.7666 43.9774 53.4641C43.7453 52.1617 43.1707 50.9649 42.3261 50.0254C41.4816 49.0858 40.4051 48.4457 39.233 48.1859C38.0608 47.9262 36.8456 48.0585 35.7411 48.5661C34.6367 49.0737 33.6926 49.9339 33.0284 51.0377C32.3641 52.1415 32.0096 53.4394 32.0096 54.7671C32.0096 56.5452 32.6448 58.2506 33.7758 59.5089C34.9068 60.7671 36.4412 61.4754 38.0419 61.478ZM73.9168 54.7671C73.9168 56.0944 74.2711 57.3919 74.9349 58.4955C75.5988 59.5991 76.5423 60.4593 77.6462 60.9672C78.7502 61.4751 79.9649 61.608 81.1368 61.3491C82.3087 61.0901 83.3852 60.451 84.2301 59.5125C85.075 58.5739 85.6504 57.3782 85.8835 56.0764C86.1166 54.7746 85.997 53.4252 85.5397 52.199C85.0825 50.9727 84.3081 49.9246 83.3146 49.1872C82.3211 48.4498 81.1531 48.0562 79.9582 48.0562C78.3559 48.0562 76.8193 48.7633 75.6863 50.0218C74.5533 51.2803 73.9168 52.9873 73.9168 54.7671ZM71.1831 57.0345C70.7946 55.2426 70.8704 53.3652 71.4018 51.6192C71.7958 50.3401 72.4164 49.1616 73.2271 48.1533C74.0378 47.1449 75.0221 46.3272 76.1219 45.7484C77.7795 44.8221 79.6634 44.5201 81.4891 44.888C81.5945 44.9039 81.7017 44.8945 81.8037 44.8606C81.9056 44.8267 81.9998 44.769 82.08 44.6914C82.1603 44.6138 82.2247 44.518 82.2689 44.4106C82.3131 44.3031 82.3362 44.1863 82.3365 44.0681V21.4454C82.3365 21.0069 82.2583 20.5726 82.1064 20.1678C81.9545 19.763 81.7319 19.3957 81.4514 19.087C81.171 18.7783 80.8383 18.5344 80.4725 18.3693C80.1067 18.2043 79.7151 18.1214 79.3203 18.1254H38.9531C38.556 18.1187 38.1617 18.1999 37.7932 18.3644C37.4247 18.5288 37.0894 18.7732 36.8069 19.0833C36.5244 19.3933 36.3004 19.7628 36.1479 20.1701C35.9954 20.5774 35.9175 21.0144 35.9187 21.4555V44.0175C35.9162 44.1358 35.937 44.2532 35.9797 44.3615C36.0223 44.4698 36.0859 44.5665 36.1658 44.6446C36.2457 44.7228 36.34 44.7805 36.4422 44.8138C36.5443 44.8471 36.6518 44.8552 36.757 44.8374C39.0038 44.4685 41.2915 45.0856 43.1356 46.5582C44.6549 47.6637 45.8299 49.2631 46.5002 51.1382C47.1705 53.0132 47.3034 55.0724 46.8808 57.0345C46.8543 57.1561 46.8533 57.2828 46.8778 57.4049C46.9022 57.5271 46.9515 57.6414 47.0219 57.7391C47.0922 57.8368 47.1818 57.9153 47.2837 57.9686C47.3856 58.0219 47.4971 58.0486 47.6097 58.0467H49.3502C49.9151 58.0467 50.1976 57.7734 50.2614 57.3989C50.7389 55.2163 51.8626 53.2752 53.4523 51.8871C55.042 50.499 57.0054 49.7444 59.0274 49.7444C61.0494 49.7444 63.0128 50.499 64.6024 51.8871C66.1921 53.2752 67.3159 55.2163 67.7934 57.3989C67.8302 57.581 67.9214 57.7441 68.052 57.8616C68.1826 57.9792 68.3451 58.0444 68.5132 58.0467H70.4632C70.5736 58.044 70.6819 58.014 70.7804 57.9587C70.8789 57.9034 70.9649 57.8243 71.0322 57.7272C71.0995 57.6301 71.1464 57.5174 71.1694 57.3976C71.1923 57.2777 71.1908 57.1536 71.1649 57.0345H71.1831ZM58.2528 40.9809H47.7737C47.2783 40.9809 46.8032 40.7623 46.4529 40.3732C46.1025 39.984 45.9057 39.4562 45.9057 38.9059C45.9057 38.3556 46.1025 37.8278 46.4529 37.4387C46.8032 37.0495 47.2783 36.8309 47.7737 36.8309H58.2528C58.7483 36.8309 59.2234 37.0495 59.5737 37.4387C59.924 37.8278 60.1208 38.3556 60.1208 38.9059C60.1208 39.4562 59.924 39.984 59.5737 40.3732C59.2234 40.7623 58.7483 40.9809 58.2528 40.9809ZM47.7737 32.6707C47.2783 32.6707 46.8032 32.4521 46.4529 32.063C46.1025 31.6738 45.9057 31.1461 45.9057 30.5957C45.9057 30.0454 46.1025 29.5176 46.4529 29.1285C46.8032 28.7393 47.2783 28.5207 47.7737 28.5207H71.7572C72.2526 28.5207 72.7277 28.7393 73.0781 29.1285C73.4284 29.5176 73.6252 30.0454 73.6252 30.5957C73.6252 31.1461 73.4284 31.6738 73.0781 32.063C72.7277 32.4521 72.2526 32.6707 71.7572 32.6707H47.7737ZM44.0651 64.8588H32.0278C30.7228 64.8588 29.4712 65.4347 28.5484 66.4597C27.6256 67.4848 27.1072 68.875 27.1072 70.3247L27.1072 71.9037C27.1072 72.3449 27.2643 72.7682 27.5443 73.0811C27.8243 73.394 28.2044 73.5712 28.6016 73.5739H44.6482C44.8151 73.5721 44.9766 73.5084 45.1071 73.3928C45.2376 73.2772 45.3295 73.1165 45.3681 72.9362C45.8292 71.1822 46.7723 69.6321 48.0653 68.5027C48.2159 68.369 48.3162 68.1776 48.3466 67.9661C48.3769 67.7545 48.3351 67.5381 48.2294 67.3589C47.7817 66.5856 47.165 65.9507 46.4369 65.5136C45.7087 65.0764 44.8927 64.8511 44.0651 64.8588ZM85.9814 64.8588H73.935C73.115 64.8596 72.3083 65.089 71.5888 65.5258C70.8692 65.9625 70.2598 66.5928 69.8163 67.3589C69.7105 67.5381 69.6687 67.7545 69.6991 67.9661C69.7294 68.1776 69.8297 68.369 69.9803 68.5027C71.27 69.6336 72.2097 71.1835 72.6684 72.9362C72.7071 73.1165 72.7989 73.2772 72.9294 73.3928C73.0599 73.5084 73.2214 73.5721 73.3883 73.5739H89.3985C89.7957 73.5712 90.1757 73.394 90.4557 73.0811C90.7357 72.7682 90.8929 72.3449 90.8929 71.9037V70.3247C90.8929 68.875 90.3745 67.4848 89.4517 66.4597C88.5289 65.4347 87.2773 64.8588 85.9723 64.8588H85.9814Z" fill="white"/>
<path d="M58.9999 66.4673C60.1948 66.4673 61.3628 66.0737 62.3563 65.3363C63.3498 64.5989 64.1242 63.5508 64.5814 62.3246C65.0387 61.0983 65.1583 59.749 64.9252 58.4472C64.6921 57.1454 64.1167 55.9496 63.2718 55.0111C62.4269 54.0725 61.3505 53.4334 60.1785 53.1745C59.0066 52.9155 57.7919 53.0484 56.688 53.5563C55.584 54.0643 54.6405 54.9244 53.9767 56.028C53.3128 57.1316 52.9585 58.4291 52.9585 59.7564C52.9585 61.5363 53.595 63.2432 54.728 64.5017C55.861 65.7603 57.3976 66.4673 58.9999 66.4673ZM65.014 69.8481H52.9858C51.6808 69.8481 50.4292 70.4239 49.5064 71.449C48.5836 72.4741 48.0652 73.8643 48.0652 75.314V76.893C48.064 77.1114 48.1018 77.3278 48.1765 77.5299C48.2512 77.7319 48.3612 77.9154 48.5002 78.0698C48.6392 78.2242 48.8045 78.3465 48.9863 78.4294C49.1682 78.5123 49.363 78.5544 49.5596 78.553H68.4402C68.6368 78.5544 68.8317 78.5123 69.0135 78.4294C69.1954 78.3465 69.3606 78.2242 69.4996 78.0698C69.6386 77.9154 69.7486 77.7319 69.8233 77.5299C69.898 77.3278 69.9358 77.1114 69.9346 76.893V75.314C69.9346 73.8643 69.4162 72.4741 68.4934 71.449C67.5706 70.4239 66.319 69.8481 65.014 69.8481Z" fill="white"/>
<defs>
<filter id="filter0_d_914_3939" x="0" y="0.5" width="118" height="118" filterUnits="userSpaceOnUse" color-interpolation-filters="sRGB">
<feFlood flood-opacity="0" result="BackgroundImageFix"/>
<feColorMatrix in="SourceAlpha" type="matrix" values="0 0 0 0 0 0 0 0 0 0 0 0 0 0 0 0 0 0 127 0" result="hardAlpha"/>
<feOffset dy="12"/>
<feGaussianBlur stdDeviation="6"/>
<feComposite in2="hardAlpha" operator="out"/>
<feColorMatrix type="matrix" values="0 0 0 0 0.054902 0 0 0 0 0.00392157 0 0 0 0 0.152941 0 0 0 0.25 0"/>
<feBlend mode="normal" in2="BackgroundImageFix" result="effect1_dropShadow_914_3939"/>
<feBlend mode="normal" in="SourceGraphic" in2="effect1_dropShadow_914_3939" result="shape"/>
</filter>
<linearGradient id="paint0_linear_914_3939" x1="12" y1="0.5" x2="106" y2="94.5" gradientUnits="userSpaceOnUse">
<stop stop-color="#CEA8FF"/>
<stop offset="1" stop-color="#5B1BE1"/>
</linearGradient>
</defs>
</svg>
