<svg width="63" height="69" viewBox="0 0 63 69" fill="none" xmlns="http://www.w3.org/2000/svg">
<g filter="url(#filter0_d_1340_6354)">
<rect x="10.2111" y="5.21106" width="43.4256" height="43.4256" rx="9.30549" fill="url(#paint0_linear_1340_6354)"/>
</g>
<path d="M22.2419 33.3814C22.794 33.3823 23.3341 33.2013 23.7936 32.8612C24.2531 32.5211 24.6115 32.0372 24.8234 31.4708C25.0353 30.9044 25.0912 30.2809 24.9839 29.6792C24.8767 29.0775 24.6112 28.5246 24.2211 28.0906C23.8309 27.6565 23.3336 27.3608 22.7921 27.2408C22.2506 27.1208 21.6892 27.1819 21.179 27.4164C20.6688 27.6509 20.2326 28.0483 19.9257 28.5582C19.6189 29.0682 19.4551 29.6678 19.4551 30.2811C19.4551 31.1026 19.7486 31.8904 20.2711 32.4717C20.7936 33.053 21.5024 33.3802 22.2419 33.3814ZM38.8152 30.2811C38.8152 30.8943 38.9789 31.4937 39.2855 32.0036C39.5922 32.5134 40.0281 32.9108 40.5381 33.1454C41.0481 33.3801 41.6092 33.4415 42.1506 33.3218C42.692 33.2022 43.1893 32.9069 43.5797 32.4734C43.97 32.0398 44.2358 31.4874 44.3435 30.886C44.4512 30.2846 44.3959 29.6612 44.1847 29.0947C43.9734 28.5282 43.6157 28.044 43.1567 27.7034C42.6978 27.3627 42.1582 27.1809 41.6062 27.1809C40.8659 27.1809 40.156 27.5075 39.6326 28.0889C39.1092 28.6703 38.8152 29.4589 38.8152 30.2811ZM37.5523 31.3286C37.3728 30.5008 37.4078 29.6335 37.6533 28.8269C37.8353 28.2359 38.122 27.6915 38.4965 27.2257C38.8711 26.7599 39.3258 26.3821 39.8339 26.1147C40.5996 25.6868 41.4699 25.5473 42.3134 25.7172C42.3621 25.7246 42.4116 25.7203 42.4587 25.7046C42.5058 25.6889 42.5493 25.6623 42.5864 25.6264C42.6235 25.5906 42.6532 25.5463 42.6736 25.4967C42.6941 25.447 42.7047 25.3931 42.7049 25.3385V14.8873C42.7049 14.6847 42.6687 14.4841 42.5986 14.2971C42.5284 14.1101 42.4256 13.9404 42.296 13.7978C42.1664 13.6552 42.0127 13.5425 41.8437 13.4663C41.6748 13.39 41.4939 13.3517 41.3115 13.3536H22.6628C22.4794 13.3505 22.2972 13.388 22.127 13.464C21.9567 13.54 21.8019 13.6529 21.6713 13.7961C21.5408 13.9393 21.4373 14.11 21.3669 14.2982C21.2964 14.4863 21.2604 14.6882 21.261 14.892V25.3151C21.2598 25.3697 21.2695 25.424 21.2892 25.474C21.3089 25.524 21.3382 25.5687 21.3752 25.6048C21.4121 25.6409 21.4556 25.6676 21.5028 25.683C21.55 25.6984 21.5997 25.7021 21.6483 25.6939C22.6862 25.5234 23.7431 25.8085 24.595 26.4888C25.2969 26.9995 25.8397 27.7384 26.1494 28.6047C26.4591 29.4709 26.5205 30.4222 26.3252 31.3286C26.313 31.3848 26.3125 31.4433 26.3238 31.4997C26.3351 31.5562 26.3579 31.609 26.3904 31.6541C26.4229 31.6992 26.4643 31.7355 26.5113 31.7601C26.5584 31.7848 26.6099 31.7971 26.662 31.7962H27.466C27.727 31.7962 27.8575 31.6699 27.887 31.4969C28.1076 30.4886 28.6267 29.5919 29.3611 28.9506C30.0955 28.3094 31.0025 27.9608 31.9366 27.9608C32.8708 27.9608 33.7778 28.3094 34.5122 28.9506C35.2466 29.5919 35.7657 30.4886 35.9863 31.4969C36.0033 31.5811 36.0454 31.6564 36.1058 31.7107C36.1661 31.765 36.2412 31.7951 36.3189 31.7962H37.2197C37.2707 31.795 37.3207 31.7811 37.3662 31.7556C37.4117 31.73 37.4515 31.6935 37.4826 31.6486C37.5137 31.6037 37.5353 31.5517 37.5459 31.4963C37.5565 31.4409 37.5558 31.3836 37.5439 31.3286H37.5523ZM31.5788 23.9123H26.7377C26.5089 23.9123 26.2894 23.8113 26.1275 23.6315C25.9657 23.4517 25.8748 23.2079 25.8748 22.9537C25.8748 22.6994 25.9657 22.4556 26.1275 22.2758C26.2894 22.096 26.5089 21.995 26.7377 21.995H31.5788C31.8077 21.995 32.0272 22.096 32.189 22.2758C32.3509 22.4556 32.4418 22.6994 32.4418 22.9537C32.4418 23.2079 32.3509 23.4517 32.189 23.6315C32.0272 23.8113 31.8077 23.9123 31.5788 23.9123ZM26.7377 20.0732C26.5089 20.0732 26.2894 19.9722 26.1275 19.7924C25.9657 19.6126 25.8748 19.3688 25.8748 19.1146C25.8748 18.8603 25.9657 18.6165 26.1275 18.4367C26.2894 18.2569 26.5089 18.156 26.7377 18.156H37.8175C38.0464 18.156 38.2659 18.2569 38.4277 18.4367C38.5895 18.6165 38.6805 18.8603 38.6805 19.1146C38.6805 19.3688 38.5895 19.6126 38.4277 19.7924C38.2659 19.9722 38.0464 20.0732 37.8175 20.0732H26.7377ZM25.0244 34.9432H19.4635C18.8606 34.9432 18.2824 35.2093 17.8561 35.6828C17.4298 36.1564 17.1903 36.7986 17.1903 37.4683V38.1978C17.1903 38.4016 17.2629 38.5972 17.3923 38.7417C17.5216 38.8863 17.6972 38.9681 17.8807 38.9694H25.2938C25.3709 38.9686 25.4456 38.9391 25.5058 38.8857C25.5661 38.8323 25.6085 38.7581 25.6264 38.6748C25.8394 37.8645 26.2751 37.1484 26.8725 36.6266C26.942 36.5648 26.9884 36.4764 27.0024 36.3787C27.0164 36.281 26.9971 36.181 26.9482 36.0982C26.7414 35.741 26.4565 35.4477 26.1201 35.2457C25.7837 35.0438 25.4068 34.9397 25.0244 34.9432ZM44.3887 34.9432H38.8236C38.4448 34.9436 38.0721 35.0496 37.7397 35.2514C37.4073 35.4531 37.1257 35.7443 36.9208 36.0982C36.872 36.181 36.8527 36.281 36.8667 36.3787C36.8807 36.4764 36.927 36.5648 36.9966 36.6266C37.5924 37.1491 38.0266 37.8651 38.2384 38.6748C38.2563 38.7581 38.2988 38.8323 38.359 38.8857C38.4193 38.9391 38.4939 38.9686 38.571 38.9694H45.9673C46.1508 38.9681 46.3264 38.8863 46.4558 38.7417C46.5851 38.5972 46.6577 38.4016 46.6577 38.1978V37.4683C46.6577 36.7986 46.4182 36.1564 45.9919 35.6828C45.5656 35.2093 44.9874 34.9432 44.3845 34.9432H44.3887Z" fill="white"/>
<path d="M31.9238 35.6863C32.4758 35.6863 33.0154 35.5044 33.4743 35.1638C33.9333 34.8231 34.291 34.3389 34.5023 33.7724C34.7135 33.2059 34.7688 32.5826 34.6611 31.9812C34.5534 31.3798 34.2876 30.8273 33.8973 30.3938C33.507 29.9602 33.0097 29.6649 32.4683 29.5453C31.9269 29.4257 31.3657 29.4871 30.8557 29.7217C30.3457 29.9564 29.9098 30.3537 29.6031 30.8636C29.2965 31.3734 29.1328 31.9728 29.1328 32.586C29.1328 33.4082 29.4268 34.1968 29.9502 34.7782C30.4736 35.3596 31.1835 35.6863 31.9238 35.6863ZM34.7021 37.2481H29.1454C28.5425 37.2481 27.9643 37.5141 27.538 37.9877C27.1117 38.4612 26.8722 39.1035 26.8722 39.7732V40.5027C26.8716 40.6035 26.8891 40.7035 26.9236 40.7969C26.9581 40.8902 27.0089 40.975 27.0732 41.0463C27.1374 41.1177 27.2137 41.1741 27.2977 41.2124C27.3817 41.2508 27.4718 41.2702 27.5626 41.2696H36.2849C36.3758 41.2702 36.4658 41.2508 36.5498 41.2124C36.6338 41.1741 36.7101 41.1177 36.7744 41.0463C36.8386 40.975 36.8894 40.8902 36.9239 40.7969C36.9584 40.7035 36.9759 40.6035 36.9753 40.5027V39.7732C36.9753 39.1035 36.7358 38.4612 36.3095 37.9877C35.8832 37.5141 35.305 37.2481 34.7021 37.2481Z" fill="white"/>
<path d="M31.9239 0C17.0573 0 5 12.0573 5 26.9239C5 33.0834 7.14624 38.702 10.5663 43.3085C16.0278 50.6895 31.9239 68.7318 31.9239 68.7318C31.9239 68.7318 47.82 50.672 53.2815 43.3085C56.6841 38.7194 58.8478 33.1008 58.8478 26.9239C58.8478 12.0573 46.7905 0 31.9239 0ZM31.9239 48.0721C20.2505 48.0721 10.7756 38.5973 10.7756 26.9239C10.7756 15.2505 20.2505 5.77563 31.9239 5.77563C43.5973 5.77563 53.0722 15.2505 53.0722 26.9239C53.0722 38.5973 43.5973 48.0721 31.9239 48.0721Z" fill="#BC91FA"/>
<defs>
<filter id="filter0_d_1340_6354" x="0.905568" y="5.21106" width="62.0366" height="62.0366" filterUnits="userSpaceOnUse" color-interpolation-filters="sRGB">
<feFlood flood-opacity="0" result="BackgroundImageFix"/>
<feColorMatrix in="SourceAlpha" type="matrix" values="0 0 0 0 0 0 0 0 0 0 0 0 0 0 0 0 0 0 127 0" result="hardAlpha"/>
<feOffset dy="9.30549"/>
<feGaussianBlur stdDeviation="4.65275"/>
<feComposite in2="hardAlpha" operator="out"/>
<feColorMatrix type="matrix" values="0 0 0 0 0.054902 0 0 0 0 0.00392157 0 0 0 0 0.152941 0 0 0 0.25 0"/>
<feBlend mode="normal" in2="BackgroundImageFix" result="effect1_dropShadow_1340_6354"/>
<feBlend mode="normal" in="SourceGraphic" in2="effect1_dropShadow_1340_6354" result="shape"/>
</filter>
<linearGradient id="paint0_linear_1340_6354" x1="10.2111" y1="5.21106" x2="53.6367" y2="48.6367" gradientUnits="userSpaceOnUse">
<stop stop-color="#CEA8FF"/>
<stop offset="1" stop-color="#5B1BE1"/>
</linearGradient>
</defs>
</svg>
