<svg width="63" height="69" viewBox="0 0 63 69" fill="none" xmlns="http://www.w3.org/2000/svg">
<g filter="url(#filter0_d_1340_6343)">
<rect x="10.2111" y="5.21106" width="43.4256" height="43.4256" rx="9.30549" fill="url(#paint0_linear_1340_6343)"/>
</g>
<path d="M45.8155 39.872H18.032C17.8087 39.872 17.5946 39.9592 17.4367 40.1144C17.2788 40.2696 17.1901 40.4801 17.1901 40.6996V43.1824C17.1901 43.2921 17.2344 43.3974 17.3134 43.475C17.3923 43.5526 17.4994 43.5962 17.611 43.5962H46.2365C46.3481 43.5962 46.4552 43.5526 46.5342 43.475C46.6131 43.3974 46.6574 43.2921 46.6574 43.1824V40.6996C46.6574 40.4801 46.5687 40.2696 46.4109 40.1144C46.253 39.9592 46.0388 39.872 45.8155 39.872ZM19.2949 36.5616V37.3892C19.2949 37.499 19.3392 37.6042 19.4182 37.6818C19.4971 37.7594 19.6042 37.803 19.7158 37.803H23.9255C24.0371 37.803 24.1442 37.7594 24.2231 37.6818C24.3021 37.6042 24.3464 37.499 24.3464 37.3892V36.5616C24.3464 36.4519 24.3021 36.3466 24.2231 36.269C24.1442 36.1914 24.0371 36.1478 23.9255 36.1478V26.2167C24.0371 26.2167 24.1442 26.1731 24.2231 26.0955C24.3021 26.0179 24.3464 25.9126 24.3464 25.8029V24.9753C24.3464 24.8655 24.3021 24.7603 24.2231 24.6827C24.1442 24.6051 24.0371 24.5615 23.9255 24.5615H19.7158C19.6042 24.5615 19.4971 24.6051 19.4182 24.6827C19.3392 24.7603 19.2949 24.8655 19.2949 24.9753V25.8029C19.2949 25.9126 19.3392 26.0179 19.4182 26.0955C19.4971 26.1731 19.6042 26.2167 19.7158 26.2167V36.1478C19.6042 36.1478 19.4971 36.1914 19.4182 36.269C19.3392 36.3466 19.2949 36.4519 19.2949 36.5616ZM46.2365 18.9421L32.3447 11.1379C32.2167 11.0652 32.0715 11.027 31.9238 11.027C31.776 11.027 31.6308 11.0652 31.5028 11.1379L17.611 18.9421C17.4826 19.015 17.376 19.12 17.302 19.2464C17.2281 19.3729 17.1895 19.5163 17.1901 19.6621V22.0787C17.1901 22.1884 17.2344 22.2937 17.3134 22.3713C17.3923 22.4489 17.4994 22.4925 17.611 22.4925H46.2365C46.3481 22.4925 46.4552 22.4489 46.5342 22.3713C46.6131 22.2937 46.6574 22.1884 46.6574 22.0787V19.6621C46.658 19.5163 46.6194 19.3729 46.5455 19.2464C46.4716 19.12 46.365 19.015 46.2365 18.9421ZM31.9238 20.2166C31.445 20.2166 30.977 20.077 30.579 19.8156C30.1809 19.5542 29.8707 19.1826 29.6875 18.7478C29.5043 18.313 29.4563 17.8346 29.5497 17.3731C29.6431 16.9115 29.8737 16.4876 30.2122 16.1548C30.5507 15.822 30.982 15.5954 31.4515 15.5036C31.9211 15.4118 32.4078 15.4589 32.8501 15.639C33.2924 15.8191 33.6704 16.1241 33.9364 16.5154C34.2023 16.9066 34.3443 17.3667 34.3443 17.8373C34.3443 18.4683 34.0893 19.0735 33.6353 19.5197C33.1814 19.9659 32.5657 20.2166 31.9238 20.2166ZM39.5011 36.5616V37.3892C39.5011 37.499 39.5454 37.6042 39.6244 37.6818C39.7033 37.7594 39.8104 37.803 39.922 37.803H44.1317C44.2433 37.803 44.3504 37.7594 44.4293 37.6818C44.5083 37.6042 44.5526 37.499 44.5526 37.3892V36.5616C44.5526 36.4519 44.5083 36.3466 44.4293 36.269C44.3504 36.1914 44.2433 36.1478 44.1317 36.1478V26.2167C44.2433 26.2167 44.3504 26.1731 44.4293 26.0955C44.5083 26.0179 44.5526 25.9126 44.5526 25.8029V24.9753C44.5526 24.8655 44.5083 24.7603 44.4293 24.6827C44.3504 24.6051 44.2433 24.5615 44.1317 24.5615H39.922C39.8104 24.5615 39.7033 24.6051 39.6244 24.6827C39.5454 24.7603 39.5011 24.8655 39.5011 24.9753V25.8029C39.5037 25.8955 39.5379 25.9847 39.5982 26.056C39.6585 26.1272 39.7414 26.1765 39.8336 26.196V36.1644C39.7407 36.184 39.6573 36.2339 39.5969 36.306C39.5366 36.3782 39.5028 36.4682 39.5011 36.5616Z" fill="white"/>
<path d="M30.3243 27.5171C29.8926 27.5185 29.4714 27.6484 29.1161 27.8895C28.7751 28.1184 28.5298 28.4609 28.4258 28.8537C28.3685 29.0696 28.3486 29.2934 28.3668 29.5158C28.4005 29.8667 28.5348 30.201 28.7541 30.4799C29.0001 30.794 29.3403 31.0241 29.7265 31.1378C29.9429 31.2044 30.1695 31.2324 30.3959 31.2206C30.5151 31.2131 30.6335 31.1951 30.7495 31.1668C30.9724 31.111 31.1917 31.0419 31.4062 30.9599C31.7009 30.844 31.9829 30.7034 32.2481 30.5751C32.5728 30.4194 32.9058 30.2813 33.2458 30.1613C33.4492 30.0967 33.6598 30.0564 33.873 30.0413C34.1152 30.0238 34.3586 30.0377 34.5971 30.0827C35.2115 30.1882 35.7899 30.4412 36.2809 30.8192C36.845 31.2415 37.2709 31.8169 37.5059 32.4744C37.5726 32.662 37.6246 32.8543 37.6617 33.0496C37.7128 33.2945 37.7326 33.5447 37.7206 33.7944C37.7121 33.9469 37.6953 34.0989 37.6701 34.2496C37.6277 34.5732 37.5354 34.8885 37.3965 35.1848C37.2486 35.4972 37.0558 35.7871 36.824 36.0455C36.4868 36.4245 36.0742 36.7315 35.6116 36.9476C35.4121 37.0434 35.2034 37.1197 34.9886 37.1752C34.8707 37.2041 34.7486 37.2372 34.6265 37.2579C34.5045 37.2786 34.3698 37.2869 34.2435 37.3034C34.0098 37.3283 33.7741 37.3283 33.5405 37.3034C32.8369 37.2353 32.1658 36.9791 31.5998 36.5627C31.1125 36.1975 30.7261 35.7181 30.4759 35.1682C30.3718 34.917 30.2929 34.6565 30.2401 34.3903C30.177 34.1462 30.1138 33.8979 30.0296 33.662C29.9669 33.482 29.8606 33.3198 29.7197 33.1893C29.5789 33.0588 29.4079 32.964 29.2214 32.913C28.8542 32.808 28.5021 32.6579 28.1732 32.4661C27.8732 32.2876 27.6022 32.0658 27.3691 31.8082C27.0732 31.4751 26.8458 31.0886 26.6998 30.6702C26.6373 30.4922 26.5895 30.3096 26.5567 30.124C26.516 29.9126 26.4963 29.6978 26.4978 29.4826C26.4991 29.3012 26.5131 29.1201 26.5399 28.9406C26.599 28.471 26.7536 28.0178 26.9945 27.6081C27.2418 27.1723 27.5787 26.7918 27.9838 26.4909C28.2725 26.2766 28.5916 26.1051 28.9309 25.9819C29.1017 25.923 29.276 25.8746 29.4529 25.8371C29.6264 25.7977 29.8021 25.7687 29.9791 25.7502C30.1431 25.7398 30.3076 25.7398 30.4716 25.7502C30.6366 25.7599 30.801 25.7779 30.9642 25.804C31.095 25.8265 31.2244 25.8569 31.3515 25.895C31.6133 25.9641 31.8662 26.0626 32.105 26.1888C32.4085 26.3449 32.6775 26.5587 32.8964 26.8178C33.0083 26.9573 33.09 27.1178 33.1363 27.2895C33.1772 27.4236 33.1887 27.5646 33.17 27.7033C33.1554 27.7987 33.12 27.8898 33.0662 27.9705C33.0124 28.0512 32.9416 28.1196 32.8585 28.1709C32.6647 28.2903 32.4366 28.3444 32.2087 28.325C31.9809 28.3056 31.7656 28.2137 31.5956 28.0633C31.4862 27.9723 31.3893 27.8688 31.2757 27.7819C31.0954 27.6475 30.8817 27.5632 30.6569 27.5378L30.3243 27.5171ZM33.9614 35.5158C34.1828 35.5201 34.403 35.4822 34.6097 35.4041C34.9838 35.2737 35.3074 35.0322 35.5358 34.7131C35.7545 34.4107 35.8735 34.0496 35.8768 33.6786C35.8843 33.4428 35.8442 33.208 35.7589 32.9875C35.6286 32.6587 35.4081 32.3718 35.1221 32.1585C34.836 31.9452 34.4955 31.814 34.1382 31.7792C33.9801 31.7627 33.8207 31.7627 33.6625 31.7792C33.5188 31.7987 33.3777 31.8334 33.2416 31.8827C32.906 32.0097 32.614 32.2278 32.3997 32.5117C32.1876 32.7734 32.0562 33.0893 32.0208 33.422C31.9823 33.7408 32.0293 34.0639 32.157 34.3593C32.2848 34.6547 32.4889 34.9122 32.7491 35.1062C33.0926 35.3768 33.5212 35.5216 33.9614 35.5158Z" fill="white"/>
<path d="M35.5903 29.3673C35.3731 29.3666 35.1586 29.3196 34.9617 29.2296C34.7647 29.1396 34.59 29.0087 34.4494 28.8459C34.2856 28.663 34.1751 28.44 34.1295 28.2004C34.11 28.1064 34.0987 28.0108 34.0958 27.9149C34.095 27.709 34.1397 27.5054 34.227 27.3181C34.3142 27.1309 34.4418 26.9646 34.601 26.8307C34.8927 26.5746 35.2755 26.4423 35.666 26.4625C35.9783 26.4747 36.2789 26.5826 36.5257 26.771C36.7726 26.9595 36.9533 27.2191 37.0426 27.5135C37.1014 27.7065 37.1186 27.9095 37.0931 28.1094C37.0597 28.361 36.9563 28.5987 36.7942 28.7963C36.5753 29.0747 36.2613 29.2658 35.9102 29.3342C35.8007 29.3549 35.7123 29.3549 35.5903 29.3673Z" fill="white"/>
<path d="M31.9239 0C17.0573 0 5 12.0573 5 26.9239C5 33.0834 7.14624 38.702 10.5663 43.3085C16.0278 50.6895 31.9239 68.7318 31.9239 68.7318C31.9239 68.7318 47.82 50.672 53.2815 43.3085C56.6841 38.7194 58.8478 33.1008 58.8478 26.9239C58.8478 12.0573 46.7905 0 31.9239 0ZM31.9239 48.0721C20.2505 48.0721 10.7756 38.5973 10.7756 26.9239C10.7756 15.2505 20.2505 5.77563 31.9239 5.77563C43.5973 5.77563 53.0722 15.2505 53.0722 26.9239C53.0722 38.5973 43.5973 48.0721 31.9239 48.0721Z" fill="#BC91FA"/>
<defs>
<filter id="filter0_d_1340_6343" x="0.905568" y="5.21106" width="62.0366" height="62.0366" filterUnits="userSpaceOnUse" color-interpolation-filters="sRGB">
<feFlood flood-opacity="0" result="BackgroundImageFix"/>
<feColorMatrix in="SourceAlpha" type="matrix" values="0 0 0 0 0 0 0 0 0 0 0 0 0 0 0 0 0 0 127 0" result="hardAlpha"/>
<feOffset dy="9.30549"/>
<feGaussianBlur stdDeviation="4.65275"/>
<feComposite in2="hardAlpha" operator="out"/>
<feColorMatrix type="matrix" values="0 0 0 0 0.054902 0 0 0 0 0.00392157 0 0 0 0 0.152941 0 0 0 0.25 0"/>
<feBlend mode="normal" in2="BackgroundImageFix" result="effect1_dropShadow_1340_6343"/>
<feBlend mode="normal" in="SourceGraphic" in2="effect1_dropShadow_1340_6343" result="shape"/>
</filter>
<linearGradient id="paint0_linear_1340_6343" x1="10.2111" y1="5.21106" x2="53.6367" y2="48.6367" gradientUnits="userSpaceOnUse">
<stop stop-color="#CEA8FF"/>
<stop offset="1" stop-color="#5B1BE1"/>
</linearGradient>
</defs>
</svg>
