<svg width="132" height="133" viewBox="0 0 132 133" fill="none" xmlns="http://www.w3.org/2000/svg">
<g filter="url(#filter0_d_914_3932)">
<rect x="19" y="0.5" width="94" height="94" rx="18.8571" fill="url(#paint0_linear_914_3932)"/>
</g>
<path d="M96.0703 75.5278H35.9295C35.4462 75.5278 34.9826 75.7166 34.6409 76.0525C34.2991 76.3885 34.1071 76.8441 34.1071 77.3193V82.6936C34.1071 82.9311 34.2031 83.1589 34.374 83.3269C34.5448 83.4949 34.7766 83.5893 35.0183 83.5893H96.9815C97.2232 83.5893 97.455 83.4949 97.6259 83.3269C97.7968 83.1589 97.8928 82.9311 97.8928 82.6936V77.3193C97.8928 76.8441 97.7008 76.3885 97.359 76.0525C97.0172 75.7166 96.5537 75.5278 96.0703 75.5278ZM38.6632 68.3621V70.1535C38.6632 70.3911 38.7592 70.6189 38.9301 70.7869C39.101 70.9549 39.3327 71.0492 39.5744 71.0492H48.6867C48.9283 71.0492 49.1601 70.9549 49.331 70.7869C49.5019 70.6189 49.5979 70.3911 49.5979 70.1535V68.3621C49.5979 68.1245 49.5019 67.8967 49.331 67.7287C49.1601 67.5607 48.9283 67.4664 48.6867 67.4664V45.9692C48.9283 45.9692 49.1601 45.8748 49.331 45.7068C49.5019 45.5388 49.5979 45.311 49.5979 45.0735V43.282C49.5979 43.0445 49.5019 42.8166 49.331 42.6487C49.1601 42.4807 48.9283 42.3863 48.6867 42.3863H39.5744C39.3327 42.3863 39.101 42.4807 38.9301 42.6487C38.7592 42.8166 38.6632 43.0445 38.6632 43.282V45.0735C38.6632 45.311 38.7592 45.5388 38.9301 45.7068C39.101 45.8748 39.3327 45.9692 39.5744 45.9692V67.4664C39.3327 67.4664 39.101 67.5607 38.9301 67.7287C38.7592 67.8967 38.6632 68.1245 38.6632 68.3621ZM96.9815 30.2225L66.9111 13.3293C66.6341 13.172 66.3198 13.0893 65.9999 13.0893C65.68 13.0893 65.3657 13.172 65.0887 13.3293L35.0183 30.2225C34.7402 30.3803 34.5094 30.6076 34.3494 30.8813C34.1894 31.155 34.1058 31.4654 34.1071 31.781V37.012C34.1071 37.2496 34.2031 37.4774 34.374 37.6454C34.5448 37.8134 34.7766 37.9077 35.0183 37.9077H96.9815C97.2232 37.9077 97.455 37.8134 97.6259 37.6454C97.7968 37.4774 97.8928 37.2496 97.8928 37.012V31.781C97.894 31.4654 97.8104 31.155 97.6504 30.8813C97.4904 30.6076 97.2596 30.3803 96.9815 30.2225ZM65.9999 32.9813C64.9636 32.9813 63.9506 32.6792 63.089 32.1133C62.2273 31.5474 61.5558 30.743 61.1592 29.8019C60.7626 28.8608 60.6589 27.8252 60.8611 26.8261C61.0632 25.8271 61.5622 24.9094 62.295 24.1891C63.0278 23.4688 63.9614 22.9782 64.9777 22.7795C65.9941 22.5808 67.0476 22.6828 68.005 23.0726C68.9624 23.4624 69.7807 24.1226 70.3564 24.9695C70.9322 25.8165 71.2395 26.8123 71.2395 27.8309C71.2395 29.1969 70.6874 30.5069 69.7048 31.4728C68.7222 32.4387 67.3895 32.9813 65.9999 32.9813ZM82.4019 68.3621V70.1535C82.4019 70.3911 82.498 70.6189 82.6688 70.7869C82.8397 70.9549 83.0715 71.0492 83.3132 71.0492H92.4254C92.6671 71.0492 92.8989 70.9549 93.0697 70.7869C93.2406 70.6189 93.3366 70.3911 93.3366 70.1535V68.3621C93.3366 68.1245 93.2406 67.8967 93.0697 67.7287C92.8989 67.5607 92.6671 67.4664 92.4254 67.4664V45.9692C92.6671 45.9692 92.8989 45.8748 93.0697 45.7068C93.2406 45.5388 93.3366 45.311 93.3366 45.0735V43.282C93.3366 43.0445 93.2406 42.8166 93.0697 42.6487C92.8989 42.4807 92.6671 42.3863 92.4254 42.3863H83.3132C83.0715 42.3863 82.8397 42.4807 82.6688 42.6487C82.498 42.8166 82.4019 43.0445 82.4019 43.282V45.0735C82.4076 45.2741 82.4817 45.467 82.6122 45.6213C82.7427 45.7756 82.9222 45.8823 83.1218 45.9244V67.5022C82.9207 67.5446 82.7401 67.6527 82.6094 67.8088C82.4787 67.9649 82.4056 68.1599 82.4019 68.3621Z" fill="white"/>
<path d="M62.5371 48.7842C61.6026 48.7873 60.6909 49.0683 59.9219 49.5904C59.1836 50.0858 58.6528 50.8271 58.4275 51.6774C58.3035 52.1447 58.2604 52.6292 58.2999 53.1106C58.3728 53.8702 58.6635 54.5939 59.1382 55.1976C59.6707 55.8774 60.407 56.3756 61.2432 56.6218C61.7114 56.7658 62.2021 56.8265 62.692 56.8009C62.9502 56.7847 63.2064 56.7457 63.4574 56.6845C63.9401 56.5636 64.4148 56.414 64.8789 56.2366C65.5168 55.9858 66.1273 55.6813 66.7014 55.4036C67.4041 55.0666 68.1251 54.7676 68.861 54.5079C69.3014 54.3681 69.7572 54.2809 70.2187 54.2481C70.7429 54.2103 71.2698 54.2404 71.786 54.3377C73.116 54.5661 74.368 55.1138 75.4309 55.9321C76.6519 56.8461 77.5738 58.0916 78.0826 59.5149C78.2268 59.921 78.3396 60.3372 78.4197 60.76C78.5303 61.2901 78.5732 61.8317 78.5473 62.3723C78.5289 62.7024 78.4924 63.0313 78.438 63.3575C78.3462 64.058 78.1464 64.7405 77.8457 65.3819C77.5256 66.0581 77.1083 66.6856 76.6064 67.245C75.8766 68.0653 74.9834 68.7299 73.9821 69.1976C73.5502 69.4051 73.0984 69.5702 72.6335 69.6903C72.3783 69.753 72.1141 69.8246 71.8498 69.8694C71.5856 69.9142 71.294 69.9321 71.0206 69.9679C70.5148 70.0217 70.0046 70.0217 69.4988 69.9679C67.976 69.8204 66.5232 69.2659 65.2981 68.3646C64.2432 67.5741 63.4068 66.5363 62.8651 65.346C62.64 64.8023 62.4691 64.2383 62.3549 63.6621C62.2182 63.1336 62.0815 62.5962 61.8992 62.0856C61.7635 61.696 61.5333 61.3448 61.2285 61.0623C60.9236 60.7798 60.5533 60.5746 60.1497 60.4644C59.355 60.2371 58.5926 59.9121 57.8807 59.497C57.2314 59.1105 56.6447 58.6304 56.1403 58.0728C55.4996 57.3518 55.0075 56.5152 54.6915 55.6096C54.5562 55.2243 54.4526 54.8289 54.3816 54.4273C54.2936 53.9696 54.2509 53.5046 54.2541 53.0389C54.2569 52.6462 54.2873 52.2541 54.3452 51.8655C54.4732 50.849 54.8079 49.8681 55.3293 48.9813C55.8646 48.0378 56.5939 47.2142 57.4707 46.5629C58.0956 46.0991 58.7864 45.7279 59.5209 45.4611C59.8906 45.3336 60.268 45.2289 60.6509 45.1476C61.0263 45.0625 61.4067 44.9997 61.7899 44.9595C62.1449 44.9372 62.501 44.9372 62.856 44.9595C63.2132 44.9806 63.569 45.0195 63.9222 45.076C64.2055 45.1246 64.4854 45.1905 64.7605 45.273C65.3273 45.4225 65.8746 45.6359 66.3916 45.909C67.0486 46.2469 67.6309 46.7097 68.1047 47.2705C68.347 47.5724 68.5238 47.9199 68.6241 48.2916C68.7126 48.5817 68.7374 48.887 68.697 49.1873C68.6653 49.3938 68.5886 49.5911 68.4723 49.7658C68.3559 49.9405 68.2025 50.0884 68.0227 50.1995C67.6032 50.4579 67.1094 50.575 66.6162 50.533C66.1229 50.491 65.657 50.2921 65.289 49.9666C65.0521 49.7695 64.8425 49.5456 64.5965 49.3575C64.2062 49.0666 63.7436 48.884 63.257 48.829L62.5371 48.7842ZM70.4101 66.0984C70.8893 66.1077 71.3659 66.0256 71.8134 65.8566C72.6231 65.5742 73.3236 65.0515 73.8181 64.3608C74.2915 63.7062 74.5491 62.9246 74.5561 62.1215C74.5723 61.6112 74.4856 61.1028 74.301 60.6256C74.0188 59.9138 73.5417 59.2927 72.9225 58.8311C72.3033 58.3694 71.5662 58.0853 70.7928 58.0101C70.4505 57.9743 70.1054 57.9743 69.7631 58.0101C69.4521 58.0523 69.1465 58.1274 68.8519 58.2341C68.1255 58.5091 67.4935 58.9812 67.0294 59.5955C66.5705 60.1621 66.286 60.8458 66.2093 61.5661C66.126 62.2561 66.2277 62.9555 66.5042 63.595C66.7807 64.2345 67.2225 64.7918 67.7857 65.2117C68.5295 65.7974 69.4572 66.1109 70.4101 66.0984Z" fill="white"/>
<path d="M73.9365 52.7891C73.4664 52.7875 73.0022 52.6859 72.5759 52.491C72.1496 52.2962 71.7713 52.0128 71.4671 51.6605C71.1125 51.2645 70.8732 50.7817 70.7746 50.2632C70.7324 50.0596 70.708 49.8528 70.7017 49.6451C70.6999 49.1994 70.7967 48.7586 70.9855 48.3534C71.1744 47.9481 71.4506 47.5881 71.7952 47.2983C72.4265 46.744 73.2552 46.4574 74.1006 46.5012C74.7765 46.5276 75.4272 46.7611 75.9615 47.1691C76.4958 47.577 76.887 48.139 77.0803 48.7763C77.2076 49.1941 77.2448 49.6334 77.1896 50.0661C77.1174 50.6108 76.8935 51.1254 76.5426 51.553C76.0688 52.1556 75.3891 52.5692 74.6291 52.7174C74.3921 52.7622 74.2008 52.7622 73.9365 52.7891Z" fill="white"/>
<defs>
<filter id="filter0_d_914_3932" x="0.142857" y="0.5" width="131.714" height="131.714" filterUnits="userSpaceOnUse" color-interpolation-filters="sRGB">
<feFlood flood-opacity="0" result="BackgroundImageFix"/>
<feColorMatrix in="SourceAlpha" type="matrix" values="0 0 0 0 0 0 0 0 0 0 0 0 0 0 0 0 0 0 127 0" result="hardAlpha"/>
<feOffset dy="18.8571"/>
<feGaussianBlur stdDeviation="9.42857"/>
<feComposite in2="hardAlpha" operator="out"/>
<feColorMatrix type="matrix" values="0 0 0 0 0.054902 0 0 0 0 0.00392157 0 0 0 0 0.152941 0 0 0 0.25 0"/>
<feBlend mode="normal" in2="BackgroundImageFix" result="effect1_dropShadow_914_3932"/>
<feBlend mode="normal" in="SourceGraphic" in2="effect1_dropShadow_914_3932" result="shape"/>
</filter>
<linearGradient id="paint0_linear_914_3932" x1="19" y1="0.5" x2="113" y2="94.5" gradientUnits="userSpaceOnUse">
<stop stop-color="#CEA8FF"/>
<stop offset="1" stop-color="#5B1BE1"/>
</linearGradient>
</defs>
</svg>
