<svg width="268" height="286" viewBox="0 0 268 286" fill="none" xmlns="http://www.w3.org/2000/svg">
<path opacity="0.5" d="M133.264 283.102L204.653 241.917C210.144 238.805 209.412 233.313 203.188 229.652L134.728 190.114C128.504 186.453 118.986 186.087 113.495 189.199L42.1057 230.384C36.6142 233.496 37.3464 238.988 43.5701 242.649L112.213 282.187C118.437 285.848 127.955 286.214 133.264 283.102Z" fill="#0B0244"/>
<path d="M29.4757 193.957V179.13H67.5497L112.58 153.137C118.62 149.659 129.054 150.025 136.01 154.052L179.392 179.13H217.466V194.689C217.649 197.069 216.368 199.265 213.439 200.913L134.362 246.492C128.322 249.97 117.888 249.603 110.932 245.576L35.1502 201.828C31.1231 199.814 29.2927 196.702 29.4757 193.957Z" fill="#312A91"/>
<path opacity="0.5" d="M29.4757 193.957V179.13H67.5497L112.58 153.137C118.62 149.659 129.054 150.025 136.01 154.052L179.392 179.13H217.466V194.689C217.649 197.069 216.368 199.265 213.439 200.913L134.362 246.492C128.322 249.97 117.888 249.603 110.932 245.576L35.1502 201.828C31.1231 199.814 29.2927 196.702 29.4757 193.957Z" fill="url(#paint0_linear_961_3958)"/>
<path d="M112.58 153.137C115.508 151.49 119.352 150.758 123.379 150.758V249.055C118.986 248.872 114.41 247.773 110.749 245.76L34.9671 202.011C30.94 199.632 29.1096 196.703 29.2926 193.957V179.13H67.3666L112.58 153.137Z" fill="url(#paint1_linear_961_3958)"/>
<path d="M134.362 231.117L213.439 185.538C219.48 182.06 218.747 176.019 211.792 171.992L136.01 128.244C129.054 124.217 118.62 123.85 112.579 127.328L33.5026 172.907C27.462 176.385 28.1942 182.426 35.1501 186.453L110.932 230.202C117.888 234.229 128.322 234.595 134.362 231.117Z" fill="#2A27C7"/>
<path opacity="0.5" d="M134.362 231.117L213.439 185.538C219.48 182.06 218.747 176.019 211.792 171.992L136.01 128.244C129.054 124.217 118.62 123.85 112.579 127.328L33.5026 172.907C27.462 176.385 28.1942 182.426 35.1501 186.453L110.932 230.202C117.888 234.229 128.322 234.595 134.362 231.117Z" fill="url(#paint2_linear_961_3958)"/>
<path d="M132.166 221.048L195.867 184.255C200.626 181.51 200.077 176.567 194.585 173.273L133.63 138.127C127.956 134.832 119.535 134.466 114.776 137.395L51.0754 174.188C46.3162 176.934 46.8653 181.876 52.3568 185.171L113.312 220.316C118.986 223.428 127.407 223.794 132.166 221.048Z" fill="#FDF4FE"/>
<path d="M194.585 178.215L133.63 143.07C127.956 139.775 119.536 139.409 114.776 142.338L51.0755 179.131C49.7941 179.863 49.0619 180.595 48.5128 181.51C47.0484 178.948 47.9636 176.202 51.0755 174.371L114.776 137.396C119.536 134.65 128.139 135.016 133.63 138.128L194.585 173.273C198.795 175.653 200.26 179.131 198.612 181.693C197.88 180.595 196.599 179.314 194.585 178.215Z" fill="#BA56FC"/>
<path opacity="0.5" d="M131.8 231.116L210.876 185.537C216.917 182.059 218.381 176.934 209.229 171.992L133.447 128.243C129.969 126.23 125.759 125.131 121.549 124.948C126.491 124.765 131.983 125.864 136.01 128.243L211.792 171.992C218.747 176.019 219.48 182.059 213.439 185.537L134.362 231.116C131.25 232.947 127.04 233.679 122.83 233.496C126.125 233.313 129.237 232.581 131.8 231.116Z" fill="url(#paint3_linear_961_3958)"/>
<path opacity="0.5" d="M35.1502 193.041L110.932 236.79C117.888 240.817 128.322 241.183 134.362 237.705L213.439 192.126C216.368 190.479 217.649 188.282 217.466 185.903V189.197C217.649 191.577 216.368 193.774 213.439 195.421L134.362 241C128.322 244.478 117.888 244.112 110.932 240.085L35.1502 196.336C31.1231 193.957 29.2927 191.028 29.4757 188.282V184.987C29.2927 187.733 31.1231 190.662 35.1502 193.041Z" fill="url(#paint4_linear_961_3958)"/>
<path d="M48.8785 188.832C47.9633 189.381 47.9633 190.113 48.8785 190.662C49.7938 191.211 51.0751 191.211 51.9903 190.662C52.9056 190.113 52.9056 189.381 51.9903 188.832C51.2581 188.283 49.7938 188.283 48.8785 188.832Z" fill="#FCF3FD"/>
<path d="M44.1192 185.904C43.204 186.453 43.204 187.185 44.1192 187.735C45.0344 188.284 46.3158 188.284 47.231 187.735C48.1463 187.185 48.1463 186.453 47.231 185.904C46.3158 185.355 44.8514 185.355 44.1192 185.904Z" fill="#FCF3FD"/>
<path d="M39.1769 183.158C38.2616 183.707 38.2616 184.439 39.1769 184.988C40.0921 185.538 41.3734 185.538 42.2887 184.988C43.2039 184.439 43.2039 183.707 42.2887 183.158C41.3734 182.609 40.0921 182.609 39.1769 183.158Z" fill="#FCF3FD"/>
<path opacity="0.5" d="M130.335 212.079L180.307 183.341C184.151 181.144 183.602 177.3 179.209 174.738L131.433 147.097C127.04 144.535 120.451 144.351 116.607 146.548L66.6343 175.47C62.7903 177.666 63.3395 181.51 67.7326 184.073L115.508 211.713C119.901 214.093 126.491 214.276 130.335 212.079Z" fill="#0B0244"/>
<path opacity="0.5" d="M123.563 124.948C127.956 125.131 132.532 126.23 136.193 128.243L152.484 137.762L217.649 138.128V179.314C217.832 181.693 216.551 183.89 213.622 185.537L134.545 231.116C131.617 232.764 127.773 233.496 123.746 233.496V124.948H123.563Z" fill="#FFFEFF"/>
<path opacity="0.5" d="M29.4757 179.131C29.4757 178.764 29.4757 178.581 29.4757 178.215V137.029L95.007 137.396L112.58 127.145C118.62 123.667 129.054 124.033 136.01 128.06L152.301 137.579L217.466 137.945V179.131C217.649 181.51 216.368 183.707 213.439 185.354L134.362 230.933C128.322 234.411 117.888 234.045 110.932 230.018L35.1502 186.269C31.4892 184.439 29.6587 181.693 29.4757 179.131Z" fill="#EFCDFF"/>
<path d="M29.4757 137.03V122.203H67.5497L112.58 96.2102C118.62 92.7323 129.054 93.0984 136.01 97.1255L179.392 122.203H217.466V137.762C217.649 140.142 216.368 142.338 213.439 143.986L134.362 189.565C128.322 193.043 117.888 192.677 110.932 188.65L35.1502 144.901C31.1231 142.888 29.2927 139.959 29.4757 137.03Z" fill="#0C04A6"/>
<path opacity="0.5" d="M29.4757 137.03V122.203H67.5497L112.58 96.2102C118.62 92.7323 129.054 93.0984 136.01 97.1255L179.392 122.203H217.466V137.762C217.649 140.142 216.368 142.338 213.439 143.986L134.362 189.565C128.322 193.043 117.888 192.677 110.932 188.65L35.1502 144.901C31.1231 142.888 29.2927 139.959 29.4757 137.03Z" fill="url(#paint5_linear_961_3958)"/>
<path d="M112.58 96.3933C115.508 94.7459 119.352 94.0137 123.379 94.0137V192.311C118.986 192.128 114.41 191.029 110.749 189.016L34.9671 145.267C30.94 142.888 29.1096 139.959 29.2926 137.213V122.386H67.3666L112.58 96.3933Z" fill="url(#paint6_linear_961_3958)"/>
<path d="M134.362 174.372L213.439 128.793C219.48 125.315 218.747 119.274 211.792 115.247L136.01 71.4985C129.054 67.4715 118.62 67.1054 112.579 70.5833L33.5026 116.162C27.462 119.64 28.1942 125.681 35.1501 129.708L110.932 173.456C117.888 177.3 128.322 177.85 134.362 174.372Z" fill="#0C04A6"/>
<path opacity="0.5" d="M134.362 174.372L213.439 128.793C219.48 125.315 218.747 119.274 211.792 115.247L136.01 71.4985C129.054 67.4715 118.62 67.1054 112.579 70.5833L33.5026 116.162C27.462 119.64 28.1942 125.681 35.1501 129.708L110.932 173.456C117.888 177.3 128.322 177.85 134.362 174.372Z" fill="url(#paint7_linear_961_3958)"/>
<path opacity="0.5" d="M131.8 174.371L210.876 128.792C216.917 125.314 218.381 120.189 209.229 115.247L133.447 71.4981C129.969 69.4845 125.759 68.3863 121.549 68.2032C126.491 68.0202 131.983 69.1185 136.01 71.4981L211.792 115.064C218.747 119.091 219.48 125.131 213.439 128.609L134.362 174.188C131.25 176.019 127.04 176.751 122.83 176.568C126.125 176.385 129.237 175.653 131.8 174.371Z" fill="url(#paint8_linear_961_3958)"/>
<path opacity="0.5" d="M35.1502 136.115L110.932 179.863C117.888 183.89 128.322 184.256 134.362 180.778L213.439 135.199C216.368 133.552 217.649 131.355 217.466 128.976V132.271C217.649 134.65 216.368 136.847 213.439 138.494L134.362 184.073C128.322 187.551 117.888 187.185 110.932 183.158L35.1502 139.41C31.1231 137.03 29.2927 134.101 29.4757 131.355V128.061C29.2927 130.806 31.1231 133.918 35.1502 136.115Z" fill="url(#paint9_linear_961_3958)"/>
<path opacity="0.2" d="M129.786 125.681C128.139 126.596 128.139 128.243 129.786 129.158C131.434 130.074 134.179 130.074 135.644 129.158C137.291 128.243 137.291 126.596 135.644 125.681C133.996 124.765 131.434 124.765 129.786 125.681Z" fill="#9448F4"/>
<path opacity="0.6" d="M120.451 120.372C118.803 121.287 118.803 122.934 120.451 123.849C122.098 124.765 124.844 124.765 126.308 123.849C127.956 122.934 127.956 121.287 126.308 120.372C124.844 119.273 122.098 119.273 120.451 120.372Z" fill="#E5B3FE"/>
<path d="M111.298 114.881C109.651 115.796 109.651 117.443 111.298 118.359C112.946 119.274 115.692 119.274 117.156 118.359C118.803 117.443 118.803 115.796 117.156 114.881C115.509 113.966 112.946 113.966 111.298 114.881Z" fill="#FCF3FD"/>
<path opacity="0.5" d="M123.929 163.023C126.857 163.023 129.603 162.474 131.8 161.193L190.375 127.512C192.572 126.231 193.67 124.583 193.67 122.57C193.67 120.373 192.022 117.993 189.094 116.346L133.081 83.9464C127.773 80.8345 119.718 80.6515 115.142 83.2142L56.5668 116.895C54.3702 118.176 53.2719 119.824 53.2719 121.837C53.2719 124.034 54.9193 126.414 57.8481 128.061L113.861 160.461C116.79 162.291 120.451 163.023 123.929 163.023ZM123.013 82.8481C126.308 82.8481 129.786 83.5803 132.532 85.2277L188.545 117.444C191.107 118.909 192.572 120.739 192.572 122.57C192.572 124.034 191.656 125.315 189.826 126.414L131.25 160.094C127.04 162.474 119.535 162.291 114.593 159.362L58.5803 126.963C56.0176 125.498 54.5532 123.668 54.5532 121.837C54.5532 120.373 55.4685 119.092 57.299 117.993L115.874 84.3125C117.705 83.3972 120.268 82.8481 123.013 82.8481Z" fill="#6ECCF3"/>
<path d="M122.83 170.345C126.308 170.345 129.603 169.612 132.166 168.148L240.53 105.545C242.91 104.081 244.375 102.068 244.375 99.871C244.375 97.3083 242.361 94.5626 239.066 92.7321L133.63 31.9601C127.224 28.2991 117.705 27.933 112.214 31.0448L3.8491 93.6473C1.46947 95.1117 0.00507232 97.1252 0.00507232 99.3218C0.00507232 101.884 2.01862 104.63 5.31349 106.461L110.749 167.233C114.227 169.429 118.62 170.345 122.83 170.345ZM121.549 29.7635C125.576 29.7635 129.969 30.6787 133.264 32.6922L238.7 93.4643C241.812 95.2948 243.642 97.6744 243.642 100.054C243.642 102.068 242.361 103.715 240.164 104.996L131.8 167.599C126.491 170.711 117.156 170.345 110.932 166.684L5.49655 105.912C2.38473 104.081 0.554251 101.701 0.554251 99.3218C0.554251 97.3083 1.83558 95.6609 4.03216 94.3795L112.397 31.777C114.959 30.4957 118.254 29.7635 121.549 29.7635Z" fill="#FDF4FE"/>
<path opacity="0.3" d="M170.694 104.268C121.157 104.268 80.9999 81.0751 80.9999 52.4653C80.9999 23.8554 121.157 0.662598 170.694 0.662598C220.23 0.662598 260.387 23.8554 260.387 52.4653C260.387 81.0751 220.23 104.268 170.694 104.268Z" fill="url(#paint10_radial_961_3958)"/>
<path opacity="0.3" d="M44.5 97.6626C19.9233 97.6626 0 86.2459 0 72.1626C0 58.0793 19.9233 46.6626 44.5 46.6626C69.0767 46.6626 89 58.0793 89 72.1626C89 86.2459 69.0767 97.6626 44.5 97.6626Z" fill="url(#paint11_radial_961_3958)"/>
<path opacity="0.3" d="M167.5 178.662C136.848 178.662 112 164.335 112 146.662C112 128.989 136.848 114.662 167.5 114.662C198.152 114.662 223 128.989 223 146.662C223 164.335 198.152 178.662 167.5 178.662Z" fill="url(#paint12_radial_961_3958)"/>
<path opacity="0.3" d="M239 109.662C222.984 109.662 210 102.275 210 93.1621C210 84.0494 222.984 76.6621 239 76.6621C255.016 76.6621 268 84.0494 268 93.1621C268 102.275 255.016 109.662 239 109.662Z" fill="url(#paint13_radial_961_3958)"/>
<path d="M157.76 52.476C157.76 59.6149 163.435 65.2894 170.574 65.2894C177.713 65.2894 183.387 59.6149 183.387 52.476C183.387 45.3371 177.713 39.6626 170.574 39.6626C163.435 39.6626 157.76 45.3371 157.76 52.476Z" fill="url(#paint14_radial_961_3958)"/>
<path d="M166.913 52.4759C166.913 54.4894 168.56 56.1369 170.574 56.1369C172.587 56.1369 174.235 54.4894 174.235 52.4759C174.235 50.4624 172.587 48.8149 170.574 48.8149C168.56 48.8149 166.913 50.4624 166.913 52.4759Z" fill="#C5B0FF"/>
<path d="M37.9298 72.0698C37.9298 75.5973 40.7337 78.4013 44.2613 78.4013C47.7888 78.4013 50.5928 75.5973 50.5928 72.0698C50.5928 68.5422 47.7888 65.7383 44.2613 65.7383C40.7337 65.7383 37.9298 68.5422 37.9298 72.0698Z" fill="url(#paint15_radial_961_3958)"/>
<path d="M42.4523 72.0697C42.4523 73.0647 43.2664 73.8787 44.2613 73.8787C45.2563 73.8787 46.0703 73.0647 46.0703 72.0697C46.0703 71.0748 45.2563 70.2607 44.2613 70.2607C43.2664 70.2607 42.4523 71.0748 42.4523 72.0697Z" fill="#C5B0FF"/>
<path d="M159.346 146.718C159.346 151.121 162.846 154.621 167.249 154.621C171.652 154.621 175.152 151.121 175.152 146.718C175.152 142.314 171.652 138.814 167.249 138.814C162.846 138.814 159.346 142.314 159.346 146.718Z" fill="url(#paint16_radial_961_3958)"/>
<path d="M164.991 146.718C164.991 147.96 166.007 148.976 167.249 148.976C168.491 148.976 169.507 147.96 169.507 146.718C169.507 145.476 168.491 144.46 167.249 144.46C166.007 144.46 164.991 145.476 164.991 146.718Z" fill="#C5B0FF"/>
<path d="M234.718 92.9845C234.718 95.2834 236.546 97.1107 238.845 97.1107C241.143 97.1107 242.971 95.2834 242.971 92.9845C242.971 90.6857 241.143 88.8584 238.845 88.8584C236.546 88.8584 234.718 90.6857 234.718 92.9845Z" fill="url(#paint17_radial_961_3958)"/>
<path d="M237.666 92.9846C237.666 93.633 238.196 94.1635 238.845 94.1635C239.493 94.1635 240.023 93.633 240.023 92.9846C240.023 92.3362 239.493 91.8057 238.845 91.8057C238.196 91.8057 237.666 92.3362 237.666 92.9846Z" fill="#C5B0FF"/>
<defs>
<linearGradient id="paint0_linear_961_3958" x1="259.1" y1="199.974" x2="71.0288" y2="199.974" gradientUnits="userSpaceOnUse">
<stop stop-color="#3D87EE"/>
<stop offset="0.1022" stop-color="#465CDB"/>
<stop offset="0.3445" stop-color="#372FCE"/>
<stop offset="0.564" stop-color="#0903A4"/>
<stop offset="0.7534" stop-color="#0D05A7"/>
<stop offset="0.905" stop-color="#0B0598"/>
<stop offset="1" stop-color="#040344"/>
</linearGradient>
<linearGradient id="paint1_linear_961_3958" x1="123.492" y1="199.97" x2="29.4568" y2="199.97" gradientUnits="userSpaceOnUse">
<stop stop-color="#0A06A7"/>
<stop offset="1" stop-color="#060094"/>
</linearGradient>
<linearGradient id="paint2_linear_961_3958" x1="217.528" y1="179.198" x2="29.4432" y2="179.198" gradientUnits="userSpaceOnUse">
<stop stop-color="#FBF5FE"/>
<stop offset="0.1022" stop-color="#DFD3F3"/>
<stop offset="0.3445" stop-color="#E9C9FD"/>
<stop offset="0.564" stop-color="#E3B5F9"/>
<stop offset="0.7534" stop-color="#D88FFF"/>
<stop offset="0.905" stop-color="#BA68F3"/>
<stop offset="1" stop-color="#6B32D9"/>
</linearGradient>
<linearGradient id="paint3_linear_961_3958" x1="217.528" y1="179.201" x2="121.534" y2="179.201" gradientUnits="userSpaceOnUse">
<stop stop-color="#FEF8FF"/>
<stop offset="0.1022" stop-color="#F3DBFF"/>
<stop offset="0.3445" stop-color="#EACBF3"/>
<stop offset="0.564" stop-color="#DFB2F5"/>
<stop offset="0.7534" stop-color="#D58BFF"/>
<stop offset="0.905" stop-color="#BE62F3"/>
<stop offset="1" stop-color="#752ADE"/>
</linearGradient>
<linearGradient id="paint4_linear_961_3958" x1="191.947" y1="233.926" x2="34.5205" y2="131.028" gradientUnits="userSpaceOnUse">
<stop stop-color="#FCF3FD"/>
<stop offset="0.1022" stop-color="#FCF0FF"/>
<stop offset="0.3445" stop-color="#E6CEFF"/>
<stop offset="0.564" stop-color="#DABDFB"/>
<stop offset="0.7534" stop-color="#CB8AF6"/>
<stop offset="0.905" stop-color="#C96AF5"/>
<stop offset="1" stop-color="#AC51F4"/>
</linearGradient>
<linearGradient id="paint5_linear_961_3958" x1="259.1" y1="143.127" x2="71.0288" y2="143.127" gradientUnits="userSpaceOnUse">
<stop stop-color="#46A0EE"/>
<stop offset="0.1022" stop-color="#355BD5"/>
<stop offset="0.3445" stop-color="#3931D1"/>
<stop offset="0.564" stop-color="#0C04A3"/>
<stop offset="0.7534" stop-color="#0D04A9"/>
<stop offset="0.905" stop-color="#060490"/>
<stop offset="1" stop-color="#01065B"/>
</linearGradient>
<linearGradient id="paint6_linear_961_3958" x1="123.492" y1="143.123" x2="29.4568" y2="143.123" gradientUnits="userSpaceOnUse">
<stop stop-color="#0A06A7"/>
<stop offset="1" stop-color="#020061"/>
</linearGradient>
<linearGradient id="paint7_linear_961_3958" x1="217.528" y1="122.35" x2="29.4432" y2="122.35" gradientUnits="userSpaceOnUse">
<stop stop-color="#740EC4"/>
<stop offset="0.1022" stop-color="#6B03AB"/>
<stop offset="0.3445" stop-color="#5C0095"/>
<stop offset="0.564" stop-color="#3B097B"/>
<stop offset="0.7534" stop-color="#370569"/>
<stop offset="0.905" stop-color="#2E0655"/>
<stop offset="1" stop-color="#200436"/>
</linearGradient>
<linearGradient id="paint8_linear_961_3958" x1="217.528" y1="122.353" x2="121.534" y2="122.353" gradientUnits="userSpaceOnUse">
<stop stop-color="#FDF2FD"/>
<stop offset="0.1022" stop-color="#FAF5F7"/>
<stop offset="0.3445" stop-color="#F1DEFF"/>
<stop offset="0.564" stop-color="#E7CAFD"/>
<stop offset="0.7534" stop-color="#C391FD"/>
<stop offset="0.905" stop-color="#D38FFE"/>
<stop offset="1" stop-color="#B855F4"/>
</linearGradient>
<linearGradient id="paint9_linear_961_3958" x1="191.947" y1="177.079" x2="34.5204" y2="74.1814" gradientUnits="userSpaceOnUse">
<stop stop-color="#FDF4FE"/>
<stop offset="0.1022" stop-color="#E2C4FE"/>
<stop offset="0.3445" stop-color="#DDC3F3"/>
<stop offset="0.564" stop-color="#E1B3FE"/>
<stop offset="0.7534" stop-color="#C06DF0"/>
<stop offset="0.905" stop-color="#7941E3"/>
<stop offset="1" stop-color="#5A41DB"/>
</linearGradient>
<radialGradient id="paint10_radial_961_3958" cx="0" cy="0" r="1" gradientUnits="userSpaceOnUse" gradientTransform="translate(170.686 52.4759) rotate(149.999) scale(73.1675 63.3659)">
<stop offset="0.0225145" stop-color="#703FD8"/>
<stop offset="0.098265" stop-color="#5836BA"/>
<stop offset="0.1786" stop-color="#4C2EA0"/>
<stop offset="0.2622" stop-color="#3B278B"/>
<stop offset="0.35" stop-color="#332279"/>
<stop offset="0.4433" stop-color="#2D1D6C"/>
<stop offset="0.5449" stop-color="#25175E"/>
<stop offset="0.6608" stop-color="#1B105D"/>
<stop offset="0.8226" stop-color="#0C0748"/>
</radialGradient>
<radialGradient id="paint11_radial_961_3958" cx="0" cy="0" r="1" gradientUnits="userSpaceOnUse" gradientTransform="translate(44.4961 72.1678) rotate(150.194) scale(36.2301 31.253)">
<stop offset="0.0225145" stop-color="#703FD8"/>
<stop offset="0.098265" stop-color="#5836BA"/>
<stop offset="0.1786" stop-color="#4C2EA0"/>
<stop offset="0.2622" stop-color="#3B278B"/>
<stop offset="0.35" stop-color="#332279"/>
<stop offset="0.4433" stop-color="#2D1D6C"/>
<stop offset="0.5449" stop-color="#25175E"/>
<stop offset="0.6608" stop-color="#1B105D"/>
<stop offset="0.8226" stop-color="#0C0748"/>
</radialGradient>
<radialGradient id="paint12_radial_961_3958" cx="0" cy="0" r="1" gradientUnits="userSpaceOnUse" gradientTransform="translate(167.495 146.669) rotate(150.041) scale(45.255 39.1594)">
<stop offset="0.0225145" stop-color="#703FD8"/>
<stop offset="0.098265" stop-color="#5836BA"/>
<stop offset="0.1786" stop-color="#4C2EA0"/>
<stop offset="0.2622" stop-color="#3B278B"/>
<stop offset="0.35" stop-color="#332279"/>
<stop offset="0.4433" stop-color="#2D1D6C"/>
<stop offset="0.5449" stop-color="#25175E"/>
<stop offset="0.6608" stop-color="#1B105D"/>
<stop offset="0.8226" stop-color="#0C0748"/>
</radialGradient>
<radialGradient id="paint13_radial_961_3958" cx="0" cy="0" r="1" gradientUnits="userSpaceOnUse" gradientTransform="translate(238.997 93.1655) rotate(150.369) scale(23.5693 20.2579)">
<stop offset="0.0225145" stop-color="#703FD8"/>
<stop offset="0.098265" stop-color="#5836BA"/>
<stop offset="0.1786" stop-color="#4C2EA0"/>
<stop offset="0.2622" stop-color="#3B278B"/>
<stop offset="0.35" stop-color="#332279"/>
<stop offset="0.4433" stop-color="#2D1D6C"/>
<stop offset="0.5449" stop-color="#25175E"/>
<stop offset="0.6608" stop-color="#1B105D"/>
<stop offset="0.8226" stop-color="#0C0748"/>
</radialGradient>
<radialGradient id="paint14_radial_961_3958" cx="0" cy="0" r="1" gradientUnits="userSpaceOnUse" gradientTransform="translate(170.598 52.4386) rotate(180) scale(12.8438)">
<stop stop-color="#7742E8"/>
<stop offset="0.0225145" stop-color="#793FD8"/>
<stop offset="0.098265" stop-color="#7036BA"/>
<stop offset="0.1786" stop-color="#661AB3"/>
<stop offset="0.2622" stop-color="#481E7D"/>
<stop offset="0.35" stop-color="#3D0C6F"/>
<stop offset="0.4433" stop-color="#34155B"/>
<stop offset="0.5449" stop-color="#300E51"/>
<stop offset="0.6608" stop-color="#220B40"/>
<stop offset="0.8226" stop-color="#18072F"/>
</radialGradient>
<radialGradient id="paint15_radial_961_3958" cx="0" cy="0" r="1" gradientUnits="userSpaceOnUse" gradientTransform="translate(44.2732 72.0513) rotate(180) scale(6.3465)">
<stop stop-color="#7742E8"/>
<stop offset="0.0225145" stop-color="#793FD8"/>
<stop offset="0.098265" stop-color="#7036BA"/>
<stop offset="0.1786" stop-color="#661AB3"/>
<stop offset="0.2622" stop-color="#481E7D"/>
<stop offset="0.35" stop-color="#3D0C6F"/>
<stop offset="0.4433" stop-color="#34155B"/>
<stop offset="0.5449" stop-color="#300E51"/>
<stop offset="0.6608" stop-color="#220B40"/>
<stop offset="0.8226" stop-color="#18072F"/>
</radialGradient>
<radialGradient id="paint16_radial_961_3958" cx="0" cy="0" r="1" gradientUnits="userSpaceOnUse" gradientTransform="translate(167.264 146.695) rotate(180) scale(7.92203)">
<stop stop-color="#7742E8"/>
<stop offset="0.0225145" stop-color="#793FD8"/>
<stop offset="0.098265" stop-color="#7036BA"/>
<stop offset="0.1786" stop-color="#661AB3"/>
<stop offset="0.2622" stop-color="#481E7D"/>
<stop offset="0.35" stop-color="#3D0C6F"/>
<stop offset="0.4433" stop-color="#34155B"/>
<stop offset="0.5449" stop-color="#300E51"/>
<stop offset="0.6608" stop-color="#220B40"/>
<stop offset="0.8226" stop-color="#18072F"/>
</radialGradient>
<radialGradient id="paint17_radial_961_3958" cx="0" cy="0" r="1" gradientUnits="userSpaceOnUse" gradientTransform="translate(238.852 92.9725) rotate(180) scale(4.13592)">
<stop stop-color="#7742E8"/>
<stop offset="0.0225145" stop-color="#793FD8"/>
<stop offset="0.098265" stop-color="#7036BA"/>
<stop offset="0.1786" stop-color="#661AB3"/>
<stop offset="0.2622" stop-color="#481E7D"/>
<stop offset="0.35" stop-color="#3D0C6F"/>
<stop offset="0.4433" stop-color="#34155B"/>
<stop offset="0.5449" stop-color="#300E51"/>
<stop offset="0.6608" stop-color="#220B40"/>
<stop offset="0.8226" stop-color="#18072F"/>
</radialGradient>
</defs>
</svg>
