<svg width="294" height="544" viewBox="0 0 294 544" fill="none" xmlns="http://www.w3.org/2000/svg">
<path d="M145.292 540.9C145.097 540.966 144.927 541.092 144.806 541.26C144.686 541.428 144.621 541.629 144.621 541.836C144.621 542.042 144.686 542.244 144.806 542.411C144.927 542.579 145.097 542.705 145.292 542.771C145.795 543.026 146.35 543.158 146.913 543.158C147.477 543.158 148.032 543.026 148.535 542.771C148.73 542.705 148.9 542.579 149.02 542.411C149.141 542.244 149.205 542.042 149.205 541.836C149.205 541.629 149.141 541.428 149.02 541.26C148.9 541.092 148.73 540.966 148.535 540.9C148.032 540.645 147.477 540.512 146.913 540.512C146.35 540.512 145.794 540.645 145.292 540.9Z" fill="url(#paint0_linear_2876_4540)"/>
<path d="M81.0971 503.775C80.9015 503.842 80.7316 503.968 80.6113 504.135C80.4909 504.303 80.4262 504.505 80.4262 504.711C80.4262 504.918 80.4909 505.119 80.6113 505.287C80.7316 505.455 80.9015 505.581 81.0971 505.647C81.5994 505.902 82.1549 506.035 82.7183 506.035C83.2818 506.035 83.8373 505.902 84.3395 505.647C84.5351 505.581 84.705 505.455 84.8254 505.287C84.9457 505.119 85.0104 504.918 85.0104 504.711C85.0104 504.505 84.9457 504.303 84.8254 504.135C84.705 503.968 84.5351 503.842 84.3395 503.775C83.837 503.521 83.2816 503.388 82.7183 503.388C82.155 503.388 81.5997 503.521 81.0971 503.775Z" fill="url(#paint1_linear_2876_4540)"/>
<path d="M209.719 503.775C209.524 503.842 209.354 503.968 209.233 504.135C209.113 504.303 209.048 504.505 209.048 504.711C209.048 504.918 209.113 505.119 209.233 505.287C209.354 505.455 209.524 505.581 209.719 505.647C210.221 505.902 210.777 506.035 211.34 506.035C211.904 506.035 212.459 505.902 212.962 505.647C213.157 505.581 213.327 505.455 213.447 505.287C213.568 505.119 213.632 504.918 213.632 504.711C213.632 504.505 213.568 504.303 213.447 504.135C213.327 503.968 213.157 503.842 212.962 503.775C212.459 503.521 211.904 503.388 211.34 503.388C210.777 503.388 210.222 503.521 209.719 503.775Z" fill="url(#paint2_linear_2876_4540)"/>
<path d="M16.6699 466.648C16.4745 466.714 16.3048 466.84 16.1847 467.008C16.0646 467.176 16 467.378 16 467.584C16 467.79 16.0646 467.992 16.1847 468.16C16.3048 468.328 16.4745 468.454 16.6699 468.52C17.1724 468.775 17.7278 468.907 18.2911 468.907C18.8544 468.907 19.4098 468.775 19.9123 468.52C20.1077 468.454 20.2773 468.328 20.3975 468.16C20.5176 467.992 20.5822 467.79 20.5822 467.584C20.5822 467.378 20.5176 467.176 20.3975 467.008C20.2773 466.84 20.1077 466.714 19.9123 466.648C19.4098 466.393 18.8544 466.26 18.2911 466.26C17.7278 466.26 17.1724 466.393 16.6699 466.648Z" fill="url(#paint3_linear_2876_4540)"/>
<path d="M145.291 466.648C145.095 466.713 144.925 466.839 144.804 467.007C144.683 467.175 144.618 467.377 144.618 467.584C144.618 467.791 144.683 467.993 144.804 468.161C144.925 468.329 145.095 468.455 145.291 468.52C145.794 468.775 146.349 468.907 146.913 468.907C147.476 468.907 148.031 468.775 148.534 468.52C148.729 468.454 148.899 468.328 149.019 468.16C149.139 467.992 149.204 467.79 149.204 467.584C149.204 467.378 149.139 467.176 149.019 467.008C148.899 466.84 148.729 466.714 148.534 466.648C148.031 466.393 147.476 466.26 146.913 466.26C146.349 466.26 145.794 466.393 145.291 466.648Z" fill="url(#paint4_linear_2876_4540)"/>
<path d="M273.913 466.648C273.718 466.714 273.548 466.84 273.428 467.008C273.308 467.176 273.243 467.378 273.243 467.584C273.243 467.79 273.308 467.992 273.428 468.16C273.548 468.328 273.718 468.454 273.913 468.52C274.416 468.775 274.971 468.907 275.534 468.907C276.098 468.907 276.653 468.775 277.156 468.52C277.351 468.454 277.521 468.328 277.641 468.16C277.761 467.992 277.826 467.79 277.826 467.584C277.826 467.378 277.761 467.176 277.641 467.008C277.521 466.84 277.351 466.714 277.156 466.648C276.653 466.393 276.098 466.26 275.534 466.26C274.971 466.26 274.416 466.393 273.913 466.648Z" fill="url(#paint5_linear_2876_4540)"/>
<path d="M81.0971 429.517C80.9015 429.583 80.7316 429.709 80.6113 429.877C80.4909 430.044 80.4262 430.246 80.4262 430.452C80.4262 430.659 80.4909 430.86 80.6113 431.028C80.7316 431.196 80.9015 431.322 81.0971 431.388C81.5994 431.643 82.1549 431.776 82.7183 431.776C83.2818 431.776 83.8373 431.643 84.3395 431.388C84.5351 431.322 84.705 431.196 84.8254 431.028C84.9457 430.86 85.0104 430.659 85.0104 430.452C85.0104 430.246 84.9457 430.044 84.8254 429.877C84.705 429.709 84.5351 429.583 84.3395 429.517C83.8373 429.261 83.2818 429.128 82.7183 429.128C82.1549 429.128 81.5994 429.261 81.0971 429.517Z" fill="url(#paint6_linear_2876_4540)"/>
<path d="M209.719 429.517C209.524 429.583 209.354 429.709 209.233 429.877C209.113 430.044 209.048 430.246 209.048 430.452C209.048 430.659 209.113 430.86 209.233 431.028C209.354 431.196 209.524 431.322 209.719 431.388C210.221 431.643 210.777 431.776 211.34 431.776C211.904 431.776 212.459 431.643 212.962 431.388C213.157 431.322 213.327 431.196 213.447 431.028C213.568 430.86 213.632 430.659 213.632 430.452C213.632 430.246 213.568 430.044 213.447 429.877C213.327 429.709 213.157 429.583 212.962 429.517C212.459 429.261 211.904 429.128 211.34 429.128C210.777 429.128 210.221 429.261 209.719 429.517Z" fill="url(#paint7_linear_2876_4540)"/>
<path d="M145.292 392.387C145.097 392.453 144.927 392.579 144.806 392.747C144.686 392.915 144.621 393.116 144.621 393.323C144.621 393.529 144.686 393.731 144.806 393.898C144.927 394.066 145.097 394.192 145.292 394.258C145.794 394.514 146.35 394.647 146.913 394.647C147.477 394.647 148.032 394.514 148.535 394.258C148.73 394.192 148.9 394.066 149.02 393.898C149.141 393.731 149.205 393.529 149.205 393.323C149.205 393.116 149.141 392.915 149.02 392.747C148.9 392.579 148.73 392.453 148.535 392.387C148.032 392.133 147.477 392 146.913 392C146.35 392 145.795 392.133 145.292 392.387Z" fill="url(#paint8_linear_2876_4540)"/>
<path opacity="0.5" d="M95.6928 427.838L140.105 402.285C142.232 401.211 144.582 400.652 146.965 400.655C149.348 400.658 151.696 401.223 153.82 402.303L197.932 427.821C201.717 430.01 201.719 433.563 197.932 435.754L153.814 461.317C151.692 462.398 149.344 462.964 146.962 462.967C144.58 462.97 142.23 462.41 140.105 461.334L95.6833 435.737C91.901 433.558 91.9026 430.018 95.6928 427.838Z" stroke="#707070" stroke-miterlimit="10"/>
<path opacity="0.5" d="M160.003 463.771L204.42 438.219C206.547 437.145 208.896 436.586 211.279 436.589C213.661 436.592 216.01 437.156 218.134 438.235L262.245 463.755C266.031 465.943 266.032 469.496 262.245 471.687L218.131 497.251C216.008 498.332 213.661 498.897 211.279 498.899C208.897 498.902 206.548 498.343 204.423 497.267L160 471.671C156.211 469.488 156.213 465.951 160.003 463.771Z" stroke="#707070" stroke-miterlimit="10"/>
<path opacity="0.5" d="M31.8139 465.607L76.2293 440.054C78.3558 438.98 80.7056 438.421 83.0883 438.424C85.4709 438.427 87.8193 438.992 89.9431 440.072L134.056 465.59C137.84 467.779 137.842 471.332 134.056 473.523L89.9399 499.088C87.8172 500.168 85.4693 500.733 83.0873 500.736C80.7052 500.739 78.3561 500.179 76.2309 499.103L31.8139 473.508C28.0142 471.324 28.0142 467.787 31.8139 465.607Z" stroke="#707070" stroke-miterlimit="10"/>
<path opacity="0.5" d="M96.1223 501.54L140.539 475.988C142.666 474.914 145.015 474.355 147.398 474.358C149.781 474.36 152.129 474.925 154.253 476.004L198.368 501.524C202.153 503.712 202.155 507.265 198.368 509.456L154.25 535.02C152.127 536.101 149.78 536.666 147.398 536.668C145.016 536.671 142.667 536.112 140.542 535.036L96.1191 509.44C92.332 507.257 92.3336 503.72 96.1223 501.54Z" stroke="#707070" stroke-miterlimit="10"/>
<path d="M211.983 153.351C217.781 167.844 218.552 183.862 214.173 198.844C209.794 213.827 200.517 226.908 187.826 235.996C175.135 245.085 159.764 249.655 144.169 248.977C128.575 248.298 113.658 242.41 101.804 232.255C89.9507 222.099 81.8449 208.261 78.7831 192.955C75.7214 177.649 77.8805 161.758 84.9151 147.824C91.9498 133.89 103.454 122.717 117.587 116.092C131.721 109.466 147.668 107.772 162.878 111.279C173.85 113.81 184.047 118.958 192.598 126.284C201.149 133.61 207.8 142.897 211.983 153.351Z" fill="#C4B5FF"/>
<path d="M138.843 119.741C135.651 119.797 131.56 120.927 134.521 122.74C137.482 124.553 139.382 124.724 139.405 127.075C139.429 129.426 137.89 131.901 138.645 133.566C139.4 135.232 140.65 137.181 141.861 136.617C143.072 136.053 146.4 132.342 148.297 132.515C150.193 132.687 156.651 132.974 157.588 130.862C158.526 128.75 159.479 128.896 161.026 126.548C162.572 124.2 162.49 121.068 160.606 121.056C158.722 121.043 158.469 121.847 155.312 121.618C152.155 121.388 150.695 119.301 147.621 119.852C144.546 120.403 141.186 119.692 138.843 119.741Z" fill="#3C3AAA"/>
<path d="M126.975 120.569C123.355 122.504 115.735 125.424 112.203 124.44C110.45 123.943 108.363 123.247 106.136 122.833C92.529 132.732 82.9469 147.205 79.1467 163.596C79.9878 165.35 81.0469 166.991 82.2988 168.479C85.0615 171.723 87.9192 172.135 91.4166 172.809C94.9139 173.484 93.823 175.452 95.544 177.514C96.7028 179.259 98.2079 180.746 99.9659 181.884C101.934 182.992 99.2677 185.074 98.4998 187.337C97.732 189.599 97.5072 190.859 99.1205 195.446C100.734 200.032 105.407 203.759 106.796 205.537C108.184 207.315 105.836 209.378 106.432 213.099C107.027 216.819 106.842 226.695 110.414 232.256C113.985 237.816 116.113 237.164 115.831 233.413C115.549 229.662 114.332 226.13 116.499 223.314C118.667 220.497 123.067 221.255 124.556 216.104C126.046 210.952 127.007 211.208 129.387 209.462C131.766 207.716 130.702 206.217 132.913 202.243C135.123 198.269 135.78 194.526 132.509 192.902C129.238 191.277 127.066 191.434 124.256 187.571C121.235 183.55 117.406 180.206 113.015 177.755C108.957 175.551 102.513 178.23 99.9422 177.492C97.371 176.755 95.7435 171.853 95.9081 169.956C96.0728 168.06 94.1666 167.581 92.3143 168.037C90.4619 168.493 89.4344 167.315 88.9246 164.841C88.4148 162.366 92.2636 159.244 95.3904 159.005C98.5173 158.766 100.192 160.21 100.811 164.241C101.003 165.871 101.703 167.4 102.811 168.612C103.918 169.824 105.379 170.656 106.986 170.993C109.866 171.714 108.064 168.715 106.023 166.668C103.983 164.621 103.84 162.757 105.379 158.242C106.918 153.727 110.71 154.065 113.537 149.913C116.365 145.76 116.906 148.884 119.762 149.295C122.618 149.707 122.191 148.168 123.245 145.573C124.3 142.978 127.927 145.214 130.91 143.102C133.893 140.99 127.672 137.7 128.074 134.844C128.476 131.988 131.32 132.089 129.74 127.813C128.16 123.536 130.343 123.369 131.472 121.774C132.601 120.18 130.595 118.633 126.975 120.569ZM122.753 131.008C121.814 133.123 121 132.714 119.454 135.027C118.83 135.994 118.021 136.827 117.074 137.48C116.126 138.132 115.059 138.59 113.933 138.827C112.375 139.012 109.809 136.242 109.677 134.529C109.546 132.816 112.022 132.312 114.82 131.942C117.678 131.488 120.355 130.249 122.55 128.364C124.56 126.782 123.694 128.9 122.753 131.008Z" fill="#3C3AAA"/>
<path d="M216.764 173.982L216.78 174.178C216.157 174.425 215.591 174.795 215.115 175.267C214.64 175.739 214.265 176.303 214.014 176.924C212.431 180.812 212.138 179.112 208.413 181.751C204.688 184.39 206.109 186.477 206.312 189.126C206.515 191.774 202.196 194.781 200.065 195.726C197.934 196.671 196.992 202.713 197.69 205.645C198.388 208.577 194.868 209.779 192.72 212.453C190.572 215.127 189.34 219.613 187.931 221.765C187.25 222.84 186.273 223.695 185.118 224.228C183.963 224.762 182.679 224.951 181.419 224.773C178.872 224.338 176.511 220.12 175.132 216.458C173.692 212.737 173.327 208.685 174.078 204.766C174.869 200.788 174.592 201.283 173.645 195.071C173.435 192.996 172.574 191.042 171.187 189.485C169.799 187.929 167.956 186.851 165.919 186.404C163.519 185.798 159.549 187.196 157.408 185.954C155.268 184.713 154.349 182.891 152.961 177.036C151.572 171.181 154.454 169.858 156.727 166.699C159.441 163.136 163.184 160.493 167.449 159.125C168.98 158.696 170.583 158.579 172.16 158.782C173.738 158.984 175.259 159.503 176.631 160.306C179.079 161.532 180.23 164.264 181.978 164.456C183.726 164.648 185.219 163.736 186.968 164.073C188.718 164.41 189.885 165.263 191.585 164.974C193.285 164.684 192.205 162.732 191.962 161.649C191.718 160.566 190.176 160.845 188.132 160.832C187.445 160.946 186.739 160.815 186.138 160.462C185.538 160.108 185.081 159.554 184.848 158.897C184.112 157.541 182.948 158.739 181.967 158.175C180.985 157.612 181.175 160.12 181.088 161.088C181.001 162.057 180.251 160.351 180.251 160.351C180.251 160.351 179.41 161.668 179.043 161.066C178.675 160.465 179.518 158.994 179.402 157.498C179.286 156.002 177.117 156.353 175.769 155.194C175.057 154.645 174.215 154.292 173.325 154.168C172.435 154.045 171.528 154.155 170.694 154.49C168.858 155.101 168.513 154.657 167.696 156.282C166.879 157.906 162.875 159.007 161.605 158.793C160.335 158.579 161.232 155.995 162.319 153.719C163.407 151.442 165.644 152.2 167.047 149.9C168.449 147.6 166.535 147.273 165.245 146.901C163.955 146.529 163.559 145.298 164.898 142.37C166.238 139.443 168.031 140.247 168.766 141.604C169.205 142.275 169.815 142.818 170.532 143.177C171.25 143.536 172.05 143.698 172.851 143.646C174.576 143.673 174.171 142.451 174.13 139.94C174.058 138.87 174.357 137.808 174.976 136.932C175.595 136.057 176.497 135.421 177.529 135.132C180.204 134.17 182.745 132.867 185.087 131.256C186.546 129.883 189.129 130.781 190.496 132.255C191.862 133.729 194.887 134.274 198.074 134.812C198.482 134.873 198.898 134.837 199.289 134.707C199.68 134.578 200.034 134.357 200.324 134.065C209.905 145.286 215.663 159.268 216.764 173.982Z" fill="#3C3AAA"/>
<path d="M203.699 208.322C202.002 208.032 202.151 208.598 201.154 209.929C200.156 211.261 198.704 212.779 198.967 214.177C199.23 215.575 199.361 217.286 200.538 216.254C201.714 215.222 201.309 213.998 202.976 213.246C204.643 212.494 206.244 208.754 203.699 208.322Z" fill="#3C3AAA"/>
<g style="mix-blend-mode:soft-light" opacity="0.4">
<path d="M165.365 117.439C120.923 104.615 112.625 134.904 136.177 153.996C159.729 173.088 200.101 179.378 205.539 166.79C210.978 154.202 198.404 126.975 165.365 117.439Z" fill="white"/>
</g>
<g style="mix-blend-mode:multiply" opacity="0.15">
<path d="M128.266 214.243C93.7328 185.904 94.8047 130.887 125.082 113.108C123.803 113.535 122.527 113.99 121.259 114.498C110.582 118.77 101.127 125.615 93.734 134.423C86.3412 143.232 81.2399 153.731 78.8841 164.987C76.5282 176.242 76.9906 187.906 80.2303 198.94C83.47 209.974 89.3865 220.036 97.4536 228.231C105.521 236.427 115.488 242.502 126.469 245.915C137.451 249.329 149.106 249.975 160.397 247.798C171.689 245.62 182.267 240.685 191.191 233.432C200.115 226.18 207.109 216.834 211.549 206.226C201.792 219.765 162.783 242.567 128.266 214.243Z" fill="#4D3493"/>
</g>
<path opacity="0.5" d="M154.698 63.3189C152.378 64.7066 149.687 65.3482 146.991 65.157C146.948 65.157 146.908 65.157 146.867 65.157C146.905 65.157 146.941 65.157 146.979 65.157V455.53C148.808 455.522 150.594 454.98 152.119 453.972L261.378 390.892C263.41 389.769 264.386 388.78 264.386 387.409V0.0078125L154.698 63.3189Z" fill="url(#paint9_linear_2876_4540)"/>
<path opacity="0.5" d="M146.867 65.1524C146.218 65.164 145.568 65.1386 144.921 65.0763C144.882 65.0763 144.844 65.0621 144.803 65.0574C144.183 64.9922 143.567 64.8896 142.96 64.7502C142.564 64.6568 142.186 64.5191 141.804 64.394C141.566 64.3164 141.329 64.2642 141.09 64.1739C140.479 63.9403 139.886 63.6641 139.314 63.3475L29.578 0V387.412C29.6385 388.051 29.8674 388.662 30.2412 389.183C30.615 389.704 31.1204 390.117 31.7058 390.379L141.859 453.98C143.32 454.994 145.06 455.529 146.839 455.512C146.886 455.512 146.932 455.528 146.979 455.528V65.1571C146.941 65.1571 146.905 65.1524 146.867 65.1524Z" fill="url(#paint10_linear_2876_4540)"/>
<g style="mix-blend-mode:multiply" opacity="0.15">
<path d="M290.574 425.81L153.379 504.956C151.396 505.958 149.206 506.481 146.984 506.481C144.763 506.481 142.572 505.958 140.59 504.956L3.42482 425.821C2.69191 425.5 2.05871 424.989 1.59158 424.339C1.12444 423.69 0.840569 422.927 0.769775 422.13C0.792492 421.594 0.929241 421.069 1.17084 420.59C1.41245 420.111 1.75337 419.689 2.17093 419.352C2.55048 418.999 2.97153 418.693 3.42482 418.441L140.621 339.319C142.603 338.312 144.794 337.787 147.017 337.787C149.239 337.787 151.43 338.312 153.412 339.319L290.574 418.43C294.091 420.471 294.091 423.793 290.574 425.81Z" fill="#6B99D1"/>
</g>
<path d="M290.574 414.524L153.379 493.647C151.414 494.698 149.211 495.223 146.984 495.171C144.768 495.219 142.576 494.702 140.613 493.671L3.42482 414.535C2.69584 414.21 2.06612 413.697 1.59974 413.049C1.13337 412.401 0.846985 411.641 0.769775 410.846C0.840405 410.05 1.12418 409.287 1.59134 408.637C2.05849 407.988 2.69181 407.476 3.42482 407.156L22.0212 396.431L140.621 328.008C142.603 327.002 144.794 326.478 147.017 326.478C149.239 326.478 151.43 327.002 153.412 328.008L290.574 407.145C294.091 409.162 294.091 412.477 290.574 414.524Z" fill="#DCEEFF"/>
<path d="M146.984 468.509V495.172C144.768 495.219 142.576 494.702 140.613 493.671L3.42482 414.535C2.69584 414.21 2.06612 413.697 1.59974 413.049C1.13337 412.401 0.846985 411.641 0.769775 410.847V387.748C0.792492 387.211 0.929241 386.686 1.17084 386.207C1.41245 385.728 1.75337 385.306 2.17093 384.969L22.0212 396.431L146.984 468.509Z" fill="url(#paint11_linear_2876_4540)"/>
<path d="M146.984 468.509V495.172C149.201 495.219 151.393 494.702 153.355 493.671L290.574 414.524C291.303 414.2 291.934 413.687 292.4 413.039C292.867 412.391 293.154 411.631 293.23 410.836V387.737C293.207 387.2 293.07 386.676 292.829 386.196C292.587 385.717 292.246 385.295 291.829 384.958L271.977 396.42L146.984 468.509Z" fill="url(#paint12_linear_2876_4540)"/>
<path d="M290.574 391.421L153.379 470.581C151.396 471.583 149.206 472.106 146.984 472.106C144.763 472.106 142.572 471.583 140.59 470.581L3.42482 391.446C2.69181 391.126 2.05849 390.614 1.59134 389.965C1.12418 389.315 0.840405 388.552 0.769775 387.755C0.792492 387.219 0.929241 386.694 1.17084 386.215C1.41245 385.736 1.75337 385.314 2.17093 384.977C2.55049 384.624 2.97153 384.318 3.42482 384.066L140.621 304.944C142.603 303.938 144.794 303.413 147.017 303.413C149.239 303.413 151.43 303.938 153.412 304.944L290.574 384.055C294.091 386.088 294.091 389.41 290.574 391.421Z" fill="url(#paint13_linear_2876_4540)"/>
<path d="M146.984 470.515C149.148 470.515 151.136 470.05 152.58 469.206L152.588 469.202L289.786 390.054C290.955 389.383 291.627 388.544 291.629 387.75C291.631 386.95 290.957 386.1 289.783 385.419L152.622 306.308C151.166 305.47 149.119 304.989 147.007 304.989C144.895 304.989 142.858 305.469 141.412 306.308L4.18952 385.445C3.85691 385.629 3.53977 385.859 3.24702 386.13L3.22673 386.149C2.66332 386.653 2.35299 387.221 2.35299 387.748C2.35299 388.547 3.02936 389.391 4.2086 390.062L4.216 390.067L141.388 469.206C142.833 470.05 144.82 470.515 146.984 470.515ZM146.984 472.098C144.673 472.098 142.36 471.607 140.59 470.573L3.42482 391.438C1.65482 390.43 0.769775 389.101 0.769775 387.748C0.769775 386.788 1.23684 385.805 2.17093 384.969C2.51605 384.649 2.93403 384.329 3.42482 384.059L140.621 304.936C144.137 302.895 149.869 302.895 153.412 304.936L290.574 384.048C294.091 386.088 294.091 389.41 290.574 391.427L153.379 470.573C151.609 471.607 149.297 472.098 146.984 472.098Z" fill="white"/>
<path d="M142.749 321.004L31.2671 385.298C28.9145 386.657 28.9145 388.861 31.2671 390.217L142.717 454.496C144.038 455.166 145.498 455.515 146.979 455.515C148.459 455.515 149.919 455.166 151.24 454.496L262.718 390.202C265.071 388.843 265.071 386.641 262.718 385.281L151.26 321.002C149.941 320.334 148.483 319.987 147.004 319.987C145.526 319.987 144.068 320.336 142.749 321.004Z" fill="#523493"/>
<path d="M262.72 385.287L151.262 321.009C149.952 320.312 148.485 319.961 147.002 319.989V324.32L261.984 390.629L262.72 390.205C265.073 388.85 265.073 386.647 262.72 385.287Z" fill="#1E3779"/>
<path d="M147.011 319.986C145.527 319.957 144.06 320.307 142.749 321.004L31.2671 385.298C28.9145 386.657 28.9145 388.861 31.2671 390.217L32.0033 390.643L147.011 324.307V319.986Z" fill="#031F60"/>
<path d="M147.917 358.252L180.919 339.254C181.031 339.216 181.128 339.144 181.196 339.048C181.265 338.952 181.302 338.837 181.302 338.719C181.302 338.601 181.265 338.486 181.196 338.39C181.128 338.294 181.031 338.222 180.919 338.184L147.917 319.13C147.629 318.984 147.311 318.907 146.989 318.907C146.667 318.907 146.349 318.984 146.061 319.13L113.119 338.188C113.007 338.226 112.909 338.298 112.84 338.394C112.771 338.49 112.734 338.606 112.734 338.724C112.734 338.843 112.771 338.958 112.84 339.054C112.909 339.151 113.007 339.222 113.119 339.26L146.066 358.259C146.354 358.402 146.671 358.476 146.992 358.475C147.313 358.474 147.63 358.398 147.917 358.252Z" stroke="white" stroke-miterlimit="10" stroke-linecap="round"/>
<path d="M147.017 345.808V422.135C148.903 422.171 150.766 421.725 152.43 420.84L223.042 380.072C224.617 379.045 225.928 377.661 226.869 376.032C227.809 374.403 228.353 372.576 228.455 370.698V345.808H147.017Z" fill="url(#paint14_linear_2876_4540)"/>
<path d="M65.5802 345.808V370.698C65.6818 372.576 66.2248 374.403 67.1651 376.031C68.1053 377.66 69.4163 379.044 70.9916 380.071L141.603 420.84C143.267 421.726 145.13 422.171 147.014 422.135V345.808H65.5802Z" fill="url(#paint15_linear_2876_4540)"/>
<path d="M141.579 391.546L67.8205 348.934C64.833 347.208 64.833 344.41 67.8205 342.685L141.598 300.085C143.275 299.234 145.129 298.791 147.01 298.791C148.89 298.791 150.744 299.234 152.421 300.085L226.199 342.685C229.188 344.41 229.188 347.208 226.199 348.934L152.4 391.547C150.724 392.398 148.87 392.842 146.99 392.842C145.109 392.841 143.256 392.397 141.579 391.546Z" fill="#DAABFF"/>
<path d="M82.9528 343.733L143.409 308.815C144.527 308.248 145.763 307.952 147.017 307.952C148.27 307.952 149.506 308.248 150.624 308.815L211.103 343.736C211.538 343.883 211.917 344.163 212.185 344.537C212.453 344.91 212.597 345.358 212.597 345.818C212.597 346.278 212.453 346.726 212.185 347.099C211.917 347.473 211.538 347.753 211.103 347.9L150.594 382.822C149.476 383.389 148.24 383.685 146.987 383.685C145.733 383.685 144.497 383.389 143.379 382.822L82.948 347.905C82.5114 347.757 82.132 347.476 81.8634 347.102C81.5948 346.727 81.4506 346.278 81.4512 345.817C81.4517 345.356 81.5969 344.907 81.8664 344.533C82.1358 344.159 82.5158 343.879 82.9528 343.733Z" stroke="white" stroke-miterlimit="10" stroke-linecap="round"/>
<path d="M148.794 317.545L196.373 344.767C196.586 344.844 196.771 344.986 196.902 345.172C197.033 345.359 197.103 345.581 197.103 345.808C197.103 346.036 197.033 346.258 196.902 346.444C196.771 346.631 196.586 346.773 196.373 346.85L148.794 374.104C148.235 374.387 147.617 374.535 146.99 374.535C146.363 374.535 145.745 374.387 145.186 374.104L98.0059 346.86C97.7915 346.782 97.6061 346.641 97.475 346.454C97.3439 346.268 97.2736 346.045 97.2736 345.817C97.2736 345.589 97.3439 345.367 97.475 345.18C97.6061 344.994 97.7915 344.852 98.0059 344.775L145.186 317.543C145.745 317.26 146.363 317.112 146.99 317.113C147.617 317.113 148.235 317.261 148.794 317.545V317.545Z" stroke="white" stroke-miterlimit="10" stroke-linecap="round"/>
<path d="M84.3048 372.66C84.2562 371.772 83.9992 370.907 83.5544 370.137C83.1096 369.367 82.4896 368.713 81.7447 368.227C81.4828 368.037 81.174 367.921 80.8516 367.894C80.5292 367.866 80.2053 367.926 79.9146 368.068L69.4654 374.104C68.3439 374.838 67.4105 375.825 66.7404 376.985C66.0702 378.146 65.682 379.448 65.6071 380.786V395.138C65.6364 395.456 65.75 395.761 65.9361 396.021C66.1223 396.281 66.3743 396.487 66.6662 396.617C67.4596 397.018 68.3363 397.228 69.2255 397.228C70.1147 397.228 70.9914 397.018 71.7848 396.617C72.0771 396.487 72.3295 396.282 72.5157 396.022C72.7019 395.762 72.8152 395.457 72.8439 395.138V381.025C72.8442 380.869 72.8854 380.716 72.9634 380.58C73.0415 380.445 73.1537 380.333 73.2888 380.254L83.5433 374.332L83.5639 374.32L83.5892 374.305C83.8406 374.116 84.0387 373.865 84.1641 373.577C84.2895 373.288 84.338 372.972 84.3048 372.66Z" fill="url(#paint16_linear_2876_4540)"/>
<path d="M99.9643 381.744C99.9158 380.856 99.6588 379.992 99.214 379.222C98.7692 378.452 98.1492 377.797 97.4043 377.311C97.1427 377.12 96.8339 377.005 96.5113 376.977C96.1887 376.949 95.8646 377.01 95.5741 377.153L85.1249 383.185C84.0037 383.919 83.0705 384.907 82.4004 386.068C81.7303 387.229 81.3419 388.531 81.2666 389.869V404.221C81.2965 404.539 81.4105 404.844 81.5969 405.103C81.7833 405.363 82.0355 405.568 82.3274 405.698C83.1203 406.1 83.9968 406.31 84.8858 406.31C85.7749 406.31 86.6514 406.1 87.4443 405.698C87.7367 405.569 87.9892 405.363 88.1754 405.103C88.3617 404.843 88.475 404.538 88.5035 404.219V390.107C88.5036 389.95 88.5449 389.797 88.6233 389.661C88.7016 389.526 88.8143 389.414 88.95 389.336L99.2028 383.414L99.2234 383.403L99.2503 383.388C99.5016 383.199 99.6996 382.948 99.8248 382.66C99.95 382.372 99.9981 382.057 99.9643 381.744Z" fill="url(#paint17_linear_2876_4540)"/>
<path d="M115.63 390.83C115.582 389.942 115.324 389.078 114.88 388.308C114.435 387.538 113.815 386.883 113.07 386.397C112.808 386.207 112.5 386.092 112.177 386.064C111.855 386.036 111.531 386.096 111.24 386.239L100.791 392.272C99.6695 393.007 98.7363 393.994 98.0662 395.155C97.3961 396.316 97.0078 397.618 96.9325 398.957V413.309C96.9621 413.627 97.0758 413.931 97.262 414.191C97.4481 414.45 97.6999 414.656 97.9917 414.786C98.7844 415.188 99.661 415.398 100.55 415.398C101.439 415.398 102.316 415.188 103.109 414.786C103.401 414.656 103.653 414.451 103.839 414.191C104.026 413.931 104.14 413.627 104.169 413.309V399.178C104.169 399.022 104.211 398.869 104.289 398.733C104.367 398.598 104.479 398.486 104.614 398.407L114.869 392.486L114.888 392.475L114.915 392.459C115.164 392.272 115.361 392.024 115.486 391.738C115.611 391.453 115.661 391.14 115.63 390.83Z" fill="url(#paint18_linear_2876_4540)"/>
<path d="M131.298 399.916C131.25 399.028 130.993 398.164 130.548 397.394C130.103 396.623 129.483 395.969 128.738 395.483C128.476 395.293 128.167 395.178 127.845 395.15C127.522 395.122 127.198 395.182 126.907 395.325L116.458 401.36C115.337 402.094 114.404 403.081 113.733 404.241C113.063 405.402 112.675 406.703 112.6 408.041V422.395C112.629 422.713 112.743 423.017 112.929 423.277C113.115 423.536 113.367 423.741 113.659 423.87C114.452 424.273 115.329 424.482 116.218 424.482C117.108 424.482 117.985 424.273 118.778 423.87C119.07 423.741 119.323 423.535 119.509 423.275C119.695 423.015 119.808 422.71 119.837 422.392V408.28C119.837 408.124 119.878 407.97 119.956 407.834C120.034 407.699 120.146 407.586 120.282 407.508L130.538 401.585L130.557 401.574L130.582 401.56C130.833 401.371 131.031 401.12 131.157 400.832C131.282 400.544 131.331 400.229 131.298 399.916Z" fill="url(#paint19_linear_2876_4540)"/>
<path d="M210.003 372.773C210.052 371.885 210.309 371.02 210.753 370.25C211.198 369.48 211.818 368.826 212.563 368.34C212.825 368.15 213.134 368.035 213.456 368.007C213.779 367.979 214.103 368.039 214.393 368.181L224.842 374.217C225.964 374.951 226.897 375.938 227.567 377.098C228.238 378.259 228.626 379.561 228.701 380.899V395.251C228.671 395.569 228.558 395.874 228.372 396.134C228.186 396.394 227.934 396.6 227.642 396.73C226.848 397.131 225.972 397.341 225.082 397.341C224.193 397.341 223.316 397.131 222.523 396.73C222.231 396.6 221.978 396.395 221.792 396.135C221.606 395.875 221.493 395.57 221.464 395.251V381.138C221.464 380.982 221.422 380.829 221.344 380.693C221.266 380.558 221.154 380.446 221.019 380.367L210.765 374.445L210.744 374.433L210.719 374.418C210.467 374.229 210.269 373.978 210.144 373.69C210.018 373.401 209.97 373.085 210.003 372.773Z" fill="url(#paint20_linear_2876_4540)"/>
<path d="M194.343 381.857C194.392 380.969 194.649 380.105 195.094 379.335C195.539 378.565 196.159 377.91 196.903 377.424C197.165 377.233 197.474 377.118 197.797 377.09C198.119 377.062 198.443 377.123 198.734 377.266L209.183 383.298C210.304 384.033 211.237 385.02 211.907 386.181C212.578 387.342 212.966 388.644 213.041 389.982V404.334C213.011 404.652 212.897 404.957 212.711 405.216C212.524 405.476 212.272 405.681 211.98 405.811C211.187 406.213 210.311 406.423 209.422 406.423C208.533 406.423 207.656 406.213 206.863 405.811C206.571 405.682 206.319 405.476 206.132 405.216C205.946 404.956 205.833 404.651 205.804 404.332V390.22C205.804 390.063 205.763 389.91 205.685 389.774C205.606 389.639 205.493 389.527 205.358 389.449L195.105 383.528L195.084 383.516L195.057 383.501C194.806 383.312 194.608 383.062 194.483 382.773C194.358 382.485 194.31 382.17 194.343 381.857Z" fill="url(#paint21_linear_2876_4540)"/>
<path d="M178.678 390.943C178.726 390.055 178.983 389.191 179.428 388.421C179.873 387.651 180.493 386.996 181.238 386.51C181.499 386.32 181.808 386.205 182.131 386.177C182.453 386.149 182.777 386.209 183.068 386.352L193.517 392.385C194.638 393.12 195.571 394.108 196.242 395.268C196.912 396.429 197.3 397.731 197.375 399.07V413.422C197.346 413.74 197.232 414.044 197.046 414.304C196.86 414.563 196.608 414.769 196.316 414.899C195.523 415.301 194.647 415.511 193.758 415.511C192.868 415.511 191.992 415.301 191.199 414.899C190.907 414.769 190.655 414.564 190.468 414.304C190.282 414.044 190.168 413.74 190.138 413.422V399.291C190.138 399.135 190.097 398.982 190.019 398.846C189.941 398.711 189.829 398.599 189.694 398.52L179.439 392.599L179.42 392.588L179.393 392.572C179.144 392.385 178.947 392.137 178.822 391.852C178.696 391.566 178.647 391.253 178.678 390.943Z" fill="url(#paint22_linear_2876_4540)"/>
<path d="M163.01 400.029C163.058 399.141 163.315 398.277 163.76 397.507C164.205 396.736 164.825 396.082 165.57 395.596C165.832 395.406 166.141 395.291 166.463 395.263C166.786 395.235 167.11 395.295 167.4 395.438L177.85 401.473C178.971 402.207 179.904 403.194 180.574 404.354C181.245 405.515 181.633 406.816 181.708 408.154V422.508C181.679 422.826 181.565 423.13 181.379 423.39C181.193 423.649 180.941 423.854 180.649 423.983C179.856 424.386 178.979 424.595 178.089 424.595C177.2 424.595 176.323 424.386 175.53 423.983C175.238 423.854 174.985 423.648 174.799 423.388C174.613 423.128 174.5 422.823 174.471 422.505V408.393C174.471 408.237 174.43 408.083 174.352 407.948C174.274 407.812 174.162 407.699 174.026 407.621L163.77 401.698L163.751 401.687L163.726 401.673C163.474 401.484 163.276 401.233 163.151 400.945C163.026 400.657 162.977 400.342 163.01 400.029Z" fill="url(#paint23_linear_2876_4540)"/>
<defs>
<linearGradient id="paint0_linear_2876_4540" x1="144.621" y1="541.835" x2="149.205" y2="541.835" gradientUnits="userSpaceOnUse">
<stop stop-color="#866BD1"/>
<stop offset="0.28" stop-color="#9A83DD" stop-opacity="0.737"/>
<stop offset="0.92" stop-color="#CFC0FB" stop-opacity="0.082"/>
<stop offset="1" stop-color="#D6C8FF" stop-opacity="0"/>
</linearGradient>
<linearGradient id="paint1_linear_2876_4540" x1="80.4262" y1="504.712" x2="85.0104" y2="504.712" gradientUnits="userSpaceOnUse">
<stop stop-color="#866BD1"/>
<stop offset="0.28" stop-color="#A083DD" stop-opacity="0.737"/>
<stop offset="0.92" stop-color="#CCC0FB" stop-opacity="0.082"/>
<stop offset="1" stop-color="#D6C8FF" stop-opacity="0"/>
</linearGradient>
<linearGradient id="paint2_linear_2876_4540" x1="209.048" y1="504.712" x2="213.632" y2="504.712" gradientUnits="userSpaceOnUse">
<stop stop-color="#866BD1"/>
<stop offset="0.28" stop-color="#9583DD" stop-opacity="0.737"/>
<stop offset="0.92" stop-color="#CFC0FB" stop-opacity="0.082"/>
<stop offset="1" stop-color="#D6C8FF" stop-opacity="0"/>
</linearGradient>
<linearGradient id="paint3_linear_2876_4540" x1="16" y1="467.584" x2="20.5822" y2="467.584" gradientUnits="userSpaceOnUse">
<stop stop-color="#866BD1"/>
<stop offset="0.28" stop-color="#9A83DD" stop-opacity="0.737"/>
<stop offset="0.92" stop-color="#CFC0FB" stop-opacity="0.082"/>
<stop offset="1" stop-color="#D0C8FF" stop-opacity="0"/>
</linearGradient>
<linearGradient id="paint4_linear_2876_4540" x1="144.618" y1="467.584" x2="149.204" y2="467.584" gradientUnits="userSpaceOnUse">
<stop stop-color="#6B99D1"/>
<stop offset="0.28" stop-color="#83ACDD" stop-opacity="0.737"/>
<stop offset="0.92" stop-color="#C0DBFB" stop-opacity="0.082"/>
<stop offset="1" stop-color="#C8E2FF" stop-opacity="0"/>
</linearGradient>
<linearGradient id="paint5_linear_2876_4540" x1="273.243" y1="467.584" x2="277.826" y2="467.584" gradientUnits="userSpaceOnUse">
<stop stop-color="#7F6BD1"/>
<stop offset="0.28" stop-color="#9A83DD" stop-opacity="0.737"/>
<stop offset="0.92" stop-color="#D3C0FB" stop-opacity="0.082"/>
<stop offset="1" stop-color="#D6C8FF" stop-opacity="0"/>
</linearGradient>
<linearGradient id="paint6_linear_2876_4540" x1="80.4262" y1="430.452" x2="85.0104" y2="430.452" gradientUnits="userSpaceOnUse">
<stop stop-color="#6B99D1"/>
<stop offset="0.28" stop-color="#83ACDD" stop-opacity="0.737"/>
<stop offset="0.92" stop-color="#C0DBFB" stop-opacity="0.082"/>
<stop offset="1" stop-color="#C8E2FF" stop-opacity="0"/>
</linearGradient>
<linearGradient id="paint7_linear_2876_4540" x1="209.048" y1="430.452" x2="213.632" y2="430.452" gradientUnits="userSpaceOnUse">
<stop stop-color="#6B99D1"/>
<stop offset="0.28" stop-color="#83ACDD" stop-opacity="0.737"/>
<stop offset="0.92" stop-color="#C0DBFB" stop-opacity="0.082"/>
<stop offset="1" stop-color="#C8E2FF" stop-opacity="0"/>
</linearGradient>
<linearGradient id="paint8_linear_2876_4540" x1="144.621" y1="393.323" x2="149.205" y2="393.323" gradientUnits="userSpaceOnUse">
<stop stop-color="#6B99D1"/>
<stop offset="0.28" stop-color="#83ACDD" stop-opacity="0.737"/>
<stop offset="0.92" stop-color="#C0DBFB" stop-opacity="0.082"/>
<stop offset="1" stop-color="#C8E2FF" stop-opacity="0"/>
</linearGradient>
<linearGradient id="paint9_linear_2876_4540" x1="289.77" y1="375.813" x2="171.549" y2="368.506" gradientUnits="userSpaceOnUse">
<stop stop-color="#B221E5"/>
<stop offset="0.117" stop-color="#B221E5" stop-opacity="0.878"/>
<stop offset="0.792404" stop-color="#B221E5" stop-opacity="0.251"/>
<stop offset="1" stop-color="#B221E5" stop-opacity="0"/>
</linearGradient>
<linearGradient id="paint10_linear_2876_4540" x1="4.45409" y1="376.722" x2="132.906" y2="361.559" gradientUnits="userSpaceOnUse">
<stop stop-color="#B221E5"/>
<stop offset="0.117" stop-color="#B221E5" stop-opacity="0.878"/>
<stop offset="0.732" stop-color="#B221E5" stop-opacity="0.251"/>
<stop offset="1" stop-color="#B221E5" stop-opacity="0"/>
</linearGradient>
<linearGradient id="paint11_linear_2876_4540" x1="0.999999" y1="440" x2="147" y2="440" gradientUnits="userSpaceOnUse">
<stop stop-color="#381089"/>
<stop offset="1" stop-color="#7742E6"/>
</linearGradient>
<linearGradient id="paint12_linear_2876_4540" x1="293" y1="440" x2="147" y2="440" gradientUnits="userSpaceOnUse">
<stop stop-color="#431999"/>
<stop offset="1" stop-color="#7742E6"/>
</linearGradient>
<linearGradient id="paint13_linear_2876_4540" x1="146.991" y1="303.413" x2="146.991" y2="472.106" gradientUnits="userSpaceOnUse">
<stop stop-color="#E11BCD"/>
<stop offset="0.854289" stop-color="#871EE3"/>
</linearGradient>
<linearGradient id="paint14_linear_2876_4540" x1="228.77" y1="384" x2="146.77" y2="384" gradientUnits="userSpaceOnUse">
<stop stop-color="#431999"/>
<stop offset="1" stop-color="#7224E6"/>
</linearGradient>
<linearGradient id="paint15_linear_2876_4540" x1="146.77" y1="386.5" x2="65.7699" y2="386.5" gradientUnits="userSpaceOnUse">
<stop stop-color="#7224E6"/>
<stop offset="1" stop-color="#431999"/>
</linearGradient>
<linearGradient id="paint16_linear_2876_4540" x1="65.6071" y1="382.557" x2="84.3149" y2="382.557" gradientUnits="userSpaceOnUse">
<stop stop-color="#7BECFF"/>
<stop offset="1" stop-color="#C5F7FF"/>
</linearGradient>
<linearGradient id="paint17_linear_2876_4540" x1="81.2666" y1="391.64" x2="99.9748" y2="391.64" gradientUnits="userSpaceOnUse">
<stop stop-color="#7BECFF"/>
<stop offset="1" stop-color="#C5F7FF"/>
</linearGradient>
<linearGradient id="paint18_linear_2876_4540" x1="96.9325" y1="400.728" x2="115.639" y2="400.728" gradientUnits="userSpaceOnUse">
<stop stop-color="#7BECFF"/>
<stop offset="1" stop-color="#C5F7FF"/>
</linearGradient>
<linearGradient id="paint19_linear_2876_4540" x1="112.6" y1="409.813" x2="131.308" y2="409.813" gradientUnits="userSpaceOnUse">
<stop stop-color="#7BECFF"/>
<stop offset="1" stop-color="#C5F7FF"/>
</linearGradient>
<linearGradient id="paint20_linear_2876_4540" x1="228.701" y1="382.67" x2="209.993" y2="382.67" gradientUnits="userSpaceOnUse">
<stop stop-color="#7BECFF"/>
<stop offset="1" stop-color="#C5F7FF"/>
</linearGradient>
<linearGradient id="paint21_linear_2876_4540" x1="213.041" y1="391.753" x2="194.333" y2="391.753" gradientUnits="userSpaceOnUse">
<stop stop-color="#7BECFF"/>
<stop offset="1" stop-color="#C5F7FF"/>
</linearGradient>
<linearGradient id="paint22_linear_2876_4540" x1="197.375" y1="400.841" x2="178.669" y2="400.841" gradientUnits="userSpaceOnUse">
<stop stop-color="#7BECFF"/>
<stop offset="1" stop-color="#C5F7FF"/>
</linearGradient>
<linearGradient id="paint23_linear_2876_4540" x1="181.708" y1="409.926" x2="163" y2="409.926" gradientUnits="userSpaceOnUse">
<stop stop-color="#7BECFF"/>
<stop offset="1" stop-color="#C5F7FF"/>
</linearGradient>
</defs>
</svg>
