<svg width="1018" height="593" viewBox="0 0 1018 593" fill="none" xmlns="http://www.w3.org/2000/svg">
<path opacity="0.5" d="M1017.62 254.035L986.888 236.322L673.508 417.083L567.232 355.77L951.16 133.981L920.428 116.269L536.348 337.906L433.704 278.712L500.317 240.258L525.448 225.876L817.784 57.0746L786.901 39.2104L494.564 208.012L398.5 138.5L367 157.5L463.831 225.876L326.5 301L355.5 322L402.972 296.576L508.038 357.132L536.348 373.483L914.675 593L945.407 575.287L704.241 434.947L1017.62 254.035Z" fill="url(#paint0_radial_740_4081)"/>
<path opacity="0.3" d="M767.499 486.801C633.75 486.801 525.326 424.189 525.326 346.952C525.326 269.716 633.75 207.104 767.499 207.104C901.247 207.104 1009.67 269.716 1009.67 346.952C1009.67 424.189 901.247 486.801 767.499 486.801Z" fill="url(#paint1_radial_740_4081)"/>
<path opacity="0.5" d="M704.264 390.44L775.653 349.254C781.144 346.143 780.412 340.651 774.189 336.99L705.729 297.452C699.505 293.791 689.986 293.425 684.495 296.537L613.106 337.722C607.615 340.834 608.347 346.326 614.571 349.987L683.214 389.525C689.437 393.186 698.956 393.552 704.264 390.44Z" fill="#0B0244"/>
<path d="M600.476 301.295V286.468H638.55L683.58 260.475C689.62 256.997 700.054 257.363 707.01 261.391L750.392 286.468H788.466V302.027C788.65 304.407 787.368 306.603 784.439 308.251L705.363 353.83C699.322 357.308 688.888 356.942 681.932 352.915L606.15 309.166C602.123 307.153 600.293 304.041 600.476 301.295Z" fill="#312A91"/>
<path opacity="0.5" d="M600.476 301.295V286.468H638.55L683.58 260.475C689.62 256.997 700.054 257.363 707.01 261.391L750.392 286.468H788.466V302.027C788.65 304.407 787.368 306.603 784.439 308.251L705.363 353.83C699.322 357.308 688.888 356.942 681.932 352.915L606.15 309.166C602.123 307.153 600.293 304.041 600.476 301.295Z" fill="url(#paint2_linear_740_4081)"/>
<path d="M683.58 260.476C686.509 258.828 690.353 258.096 694.38 258.096V356.393C689.986 356.21 685.41 355.112 681.749 353.098L605.967 309.349C601.94 306.97 600.11 304.041 600.293 301.295V286.468H638.367L683.58 260.476Z" fill="url(#paint3_linear_740_4081)"/>
<path d="M705.363 338.455L784.439 292.876C790.48 289.398 789.748 283.357 782.792 279.33L707.01 235.582C700.054 231.554 689.62 231.188 683.58 234.666L604.503 280.245C598.462 283.723 599.195 289.764 606.15 293.791L681.932 337.539C688.888 341.567 699.322 341.933 705.363 338.455Z" fill="#2A27C7"/>
<path opacity="0.5" d="M705.363 338.455L784.439 292.876C790.48 289.398 789.748 283.357 782.792 279.33L707.01 235.582C700.054 231.554 689.62 231.188 683.58 234.666L604.503 280.245C598.462 283.723 599.195 289.764 606.15 293.791L681.932 337.539C688.888 341.567 699.322 341.933 705.363 338.455Z" fill="url(#paint4_linear_740_4081)"/>
<path d="M703.166 328.386L766.867 291.593C771.626 288.848 771.077 283.905 765.585 280.611L704.63 245.465C698.956 242.17 690.536 241.804 685.776 244.733L622.076 281.526C617.316 284.272 617.865 289.214 623.357 292.509L684.312 327.654C689.986 330.766 698.407 331.132 703.166 328.386Z" fill="#FDF4FE"/>
<path d="M765.585 285.553L704.63 250.408C698.956 247.113 690.536 246.747 685.776 249.676L622.076 286.468C620.794 287.201 620.062 287.933 619.513 288.848C618.049 286.285 618.964 283.54 622.076 281.709L685.776 244.733C690.536 241.988 699.139 242.354 704.63 245.466L765.585 280.611C769.796 282.991 771.26 286.468 769.612 289.031C768.88 287.933 767.599 286.651 765.585 285.553Z" fill="#BA56FC"/>
<path opacity="0.5" d="M702.8 338.454L781.877 292.875C787.917 289.398 789.382 284.272 780.229 279.33L704.447 235.581C700.969 233.568 696.759 232.47 692.549 232.286C697.491 232.103 702.983 233.202 707.01 235.581L782.792 279.33C789.748 283.357 790.48 289.398 784.439 292.875L705.363 338.454C702.251 340.285 698.041 341.017 693.83 340.834C697.125 340.651 700.237 339.919 702.8 338.454Z" fill="url(#paint5_linear_740_4081)"/>
<path opacity="0.5" d="M606.15 300.379L681.932 344.128C688.888 348.155 699.322 348.521 705.363 345.043L784.439 299.464C787.368 297.817 788.65 295.62 788.466 293.241V296.535C788.65 298.915 787.368 301.112 784.439 302.759L705.363 348.338C699.322 351.816 688.888 351.45 681.932 347.423L606.15 303.674C602.123 301.295 600.293 298.366 600.476 295.62V292.325C600.293 295.071 602.123 298 606.15 300.379Z" fill="url(#paint6_linear_740_4081)"/>
<path d="M619.879 296.17C618.964 296.719 618.964 297.451 619.879 298.001C620.794 298.55 622.076 298.55 622.991 298.001C623.906 297.451 623.906 296.719 622.991 296.17C622.259 295.621 620.794 295.621 619.879 296.17Z" fill="#FCF3FD"/>
<path d="M615.12 293.242C614.204 293.791 614.204 294.523 615.12 295.072C616.035 295.621 617.316 295.621 618.232 295.072C619.147 294.523 619.147 293.791 618.232 293.242C617.316 292.692 615.852 292.692 615.12 293.242Z" fill="#FCF3FD"/>
<path d="M610.177 290.496C609.262 291.045 609.262 291.777 610.177 292.326C611.093 292.875 612.374 292.875 613.289 292.326C614.204 291.777 614.204 291.045 613.289 290.496C612.374 289.946 611.093 289.946 610.177 290.496Z" fill="#FCF3FD"/>
<path opacity="0.5" d="M701.336 319.417L751.308 290.679C755.152 288.482 754.603 284.638 750.209 282.076L702.434 254.435C698.041 251.873 691.451 251.689 687.607 253.886L637.635 282.808C633.791 285.004 634.34 288.848 638.733 291.411L686.509 319.051C690.902 321.431 697.491 321.614 701.336 319.417Z" fill="#0B0244"/>
<path opacity="0.5" d="M694.563 232.286C698.956 232.469 703.532 233.568 707.193 235.581L723.484 245.1L788.65 245.466V286.652C788.833 289.031 787.551 291.228 784.622 292.875L705.546 338.454C702.617 340.102 698.773 340.834 694.746 340.834V232.286H694.563Z" fill="#FFFEFF"/>
<path opacity="0.5" d="M600.476 286.469C600.476 286.103 600.476 285.92 600.476 285.554V244.368L666.007 244.734L683.58 234.483C689.62 231.005 700.054 231.371 707.01 235.398L723.301 244.917L788.467 245.283V286.469C788.65 288.849 787.368 291.045 784.439 292.693L705.363 338.272C699.322 341.749 688.888 341.383 681.932 337.356L606.15 293.608C602.489 291.777 600.659 289.032 600.476 286.469Z" fill="#EFCDFF"/>
<path d="M600.476 244.368V229.541H638.55L683.58 203.548C689.62 200.07 700.054 200.436 707.01 204.463L750.392 229.541H788.467V245.1C788.65 247.48 787.368 249.676 784.439 251.324L705.363 296.903C699.322 300.381 688.888 300.015 681.932 295.988L606.15 252.239C602.123 250.225 600.293 247.297 600.476 244.368Z" fill="#0C04A6"/>
<path opacity="0.5" d="M600.476 244.368V229.541H638.55L683.58 203.548C689.62 200.07 700.054 200.436 707.01 204.463L750.392 229.541H788.467V245.1C788.65 247.48 787.368 249.676 784.439 251.324L705.363 296.903C699.322 300.381 688.888 300.015 681.932 295.988L606.15 252.239C602.123 250.225 600.293 247.297 600.476 244.368Z" fill="url(#paint7_linear_740_4081)"/>
<path d="M683.58 203.731C686.509 202.084 690.353 201.352 694.38 201.352V299.648C689.987 299.465 685.41 298.367 681.749 296.354L605.967 252.605C601.94 250.225 600.11 247.297 600.293 244.551V229.724H638.367L683.58 203.731Z" fill="url(#paint8_linear_740_4081)"/>
<path d="M705.363 281.71L784.439 236.131C790.48 232.653 789.748 226.612 782.792 222.585L707.01 178.836C700.054 174.809 689.62 174.443 683.58 177.921L604.503 223.5C598.462 226.978 599.195 233.019 606.15 237.046L681.932 280.794C688.888 284.638 699.322 285.187 705.363 281.71Z" fill="#0C04A6"/>
<path opacity="0.5" d="M705.363 281.71L784.439 236.131C790.48 232.653 789.748 226.612 782.792 222.585L707.01 178.836C700.054 174.809 689.62 174.443 683.58 177.921L604.503 223.5C598.462 226.978 599.195 233.019 606.15 237.046L681.932 280.794C688.888 284.638 699.322 285.187 705.363 281.71Z" fill="url(#paint9_linear_740_4081)"/>
<path opacity="0.5" d="M702.8 281.709L781.877 236.13C787.917 232.652 789.382 227.527 780.229 222.585L704.447 178.836C700.969 176.822 696.759 175.724 692.549 175.541C697.491 175.358 702.983 176.456 707.01 178.836L782.792 222.401C789.748 226.429 790.48 232.469 784.439 235.947L705.363 281.526C702.251 283.357 698.041 284.089 693.83 283.906C697.125 283.723 700.237 282.99 702.8 281.709Z" fill="url(#paint10_linear_740_4081)"/>
<path opacity="0.5" d="M606.15 243.452L681.932 287.201C688.888 291.228 699.322 291.594 705.363 288.116L784.439 242.537C787.368 240.89 788.65 238.693 788.467 236.314V239.608C788.65 241.988 787.368 244.185 784.439 245.832L705.363 291.411C699.322 294.889 688.888 294.523 681.932 290.496L606.15 246.747C602.123 244.368 600.293 241.439 600.476 238.693V235.398C600.293 238.144 602.123 241.256 606.15 243.452Z" fill="url(#paint11_linear_740_4081)"/>
<path opacity="0.2" d="M700.786 233.018C699.139 233.933 699.139 235.581 700.786 236.496C702.434 237.411 705.18 237.411 706.644 236.496C708.291 235.581 708.291 233.933 706.644 233.018C704.997 232.103 702.434 232.103 700.786 233.018Z" fill="#9448F4"/>
<path opacity="0.6" d="M691.451 227.71C689.804 228.625 689.804 230.273 691.451 231.188C693.098 232.103 695.844 232.103 697.309 231.188C698.956 230.273 698.956 228.625 697.309 227.71C695.844 226.612 693.098 226.612 691.451 227.71Z" fill="#E5B3FE"/>
<path d="M682.299 222.219C680.651 223.134 680.651 224.781 682.299 225.697C683.946 226.612 686.692 226.612 688.156 225.697C689.804 224.781 689.804 223.134 688.156 222.219C686.509 221.303 683.946 221.303 682.299 222.219Z" fill="#FCF3FD"/>
<path opacity="0.5" d="M694.929 270.361C697.858 270.361 700.603 269.812 702.8 268.53L761.375 234.849C763.572 233.568 764.67 231.921 764.67 229.907C764.67 227.711 763.023 225.331 760.094 223.684L704.081 191.284C698.773 188.172 690.719 187.989 686.142 190.552L627.567 224.233C625.37 225.514 624.272 227.161 624.272 229.175C624.272 231.372 625.92 233.751 628.848 235.399L684.861 267.798C687.79 269.629 691.451 270.361 694.929 270.361ZM694.014 190.186C697.308 190.186 700.786 190.918 703.532 192.565L759.545 224.782C762.107 226.246 763.572 228.077 763.572 229.907C763.572 231.372 762.657 232.653 760.826 233.751L702.251 267.432C698.041 269.812 690.536 269.629 685.593 266.7L629.581 234.3C627.018 232.836 625.553 231.005 625.553 229.175C625.553 227.711 626.469 226.429 628.299 225.331L686.875 191.65C688.705 190.735 691.268 190.186 694.014 190.186Z" fill="#6ECCF3"/>
<path d="M693.83 277.682C697.308 277.682 700.603 276.95 703.166 275.486L811.53 212.883C813.91 211.419 815.375 209.405 815.375 207.209C815.375 204.646 813.361 201.9 810.066 200.07L704.63 139.298C698.224 135.637 688.705 135.271 683.214 138.382L574.849 200.985C572.469 202.449 571.005 204.463 571.005 206.659C571.005 209.222 573.019 211.968 576.313 213.798L681.749 274.57C685.227 276.767 689.62 277.682 693.83 277.682ZM692.549 137.101C696.576 137.101 700.969 138.016 704.264 140.03L809.7 200.802C812.812 202.632 814.642 205.012 814.642 207.392C814.642 209.405 813.361 211.053 811.164 212.334L702.8 274.936C697.491 278.048 688.156 277.682 681.932 274.021L576.497 213.249C573.385 211.419 571.554 209.039 571.554 206.659C571.554 204.646 572.836 202.999 575.032 201.717L683.397 139.115C685.959 137.833 689.254 137.101 692.549 137.101Z" fill="#FDF4FE"/>
<path opacity="0.3" d="M741.694 211.605C692.157 211.605 652 188.412 652 159.803C652 131.193 692.157 108 741.694 108C791.23 108 831.387 131.193 831.387 159.803C831.387 188.412 791.23 211.605 741.694 211.605Z" fill="url(#paint12_radial_740_4081)"/>
<path opacity="0.3" d="M615.5 205C590.923 205 571 193.583 571 179.5C571 165.417 590.923 154 615.5 154C640.077 154 660 165.417 660 179.5C660 193.583 640.077 205 615.5 205Z" fill="url(#paint13_radial_740_4081)"/>
<path opacity="0.3" d="M738.5 286C707.848 286 683 271.673 683 254C683 236.327 707.848 222 738.5 222C769.152 222 794 236.327 794 254C794 271.673 769.152 286 738.5 286Z" fill="url(#paint14_radial_740_4081)"/>
<path opacity="0.3" d="M810 217C793.984 217 781 209.613 781 200.5C781 191.387 793.984 184 810 184C826.016 184 839 191.387 839 200.5C839 209.613 826.016 217 810 217Z" fill="url(#paint15_radial_740_4081)"/>
<path d="M728.761 159.813C728.761 166.952 734.435 172.627 741.574 172.627C748.713 172.627 754.387 166.952 754.387 159.813C754.387 152.674 748.713 147 741.574 147C734.435 147 728.761 152.674 728.761 159.813Z" fill="url(#paint16_radial_740_4081)"/>
<path d="M737.913 159.813C737.913 161.827 739.56 163.474 741.574 163.474C743.587 163.474 745.235 161.827 745.235 159.813C745.235 157.8 743.587 156.152 741.574 156.152C739.56 156.152 737.913 157.8 737.913 159.813Z" fill="#C5B0FF"/>
<path d="M608.93 179.408C608.93 182.935 611.734 185.739 615.261 185.739C618.789 185.739 621.593 182.935 621.593 179.408C621.593 175.88 618.789 173.076 615.261 173.076C611.734 173.076 608.93 175.88 608.93 179.408Z" fill="url(#paint17_radial_740_4081)"/>
<path d="M613.452 179.408C613.452 180.403 614.266 181.217 615.261 181.217C616.256 181.217 617.07 180.403 617.07 179.408C617.07 178.413 616.256 177.599 615.261 177.599C614.266 177.599 613.452 178.413 613.452 179.408Z" fill="#C5B0FF"/>
<path d="M730.346 254.055C730.346 258.458 733.846 261.958 738.249 261.958C742.652 261.958 746.152 258.458 746.152 254.055C746.152 249.651 742.652 246.151 738.249 246.151C733.846 246.151 730.346 249.651 730.346 254.055Z" fill="url(#paint18_radial_740_4081)"/>
<path d="M735.991 254.055C735.991 255.297 737.007 256.313 738.249 256.313C739.491 256.313 740.507 255.297 740.507 254.055C740.507 252.813 739.491 251.797 738.249 251.797C737.007 251.797 735.991 252.813 735.991 254.055Z" fill="#C5B0FF"/>
<path d="M805.718 200.322C805.718 202.621 807.546 204.448 809.844 204.448C812.143 204.448 813.971 202.621 813.971 200.322C813.971 198.023 812.143 196.196 809.844 196.196C807.546 196.196 805.718 198.023 805.718 200.322Z" fill="url(#paint19_radial_740_4081)"/>
<path d="M808.666 200.322C808.666 200.97 809.196 201.501 809.844 201.501C810.493 201.501 811.023 200.97 811.023 200.322C811.023 199.674 810.493 199.143 809.844 199.143C809.196 199.143 808.666 199.674 808.666 200.322Z" fill="#C5B0FF"/>
<defs>
<radialGradient id="paint0_radial_740_4081" cx="0" cy="0" r="1" gradientUnits="userSpaceOnUse" gradientTransform="translate(691.5 279) rotate(30.0333) scale(406.591 273.026)">
<stop stop-color="#C742E8"/>
<stop offset="0.0759497" stop-color="#B83CCC"/>
<stop offset="0.2218" stop-color="#A031AA"/>
<stop offset="0.3636" stop-color="#80288E"/>
<stop offset="0.4979" stop-color="#612178"/>
<stop offset="0.6227" stop-color="#4B1C68"/>
<stop offset="0.7346" stop-color="#3D135F"/>
<stop offset="0.8226" stop-color="#300B4E"/>
<stop offset="1" stop-color="#180626"/>
</radialGradient>
<radialGradient id="paint1_radial_740_4081" cx="0" cy="0" r="1" gradientUnits="userSpaceOnUse" gradientTransform="translate(767.571 346.969) rotate(149.999) scale(197.717 171.23)">
<stop stop-color="#A942E8"/>
<stop offset="0.0225145" stop-color="#823FD8"/>
<stop offset="0.098265" stop-color="#7036BA"/>
<stop offset="0.1786" stop-color="#602EA0"/>
<stop offset="0.2622" stop-color="#4D278B"/>
<stop offset="0.35" stop-color="#392279"/>
<stop offset="0.4433" stop-color="#321D6C"/>
<stop offset="0.5449" stop-color="#231962"/>
<stop offset="0.6608" stop-color="#1B105D"/>
<stop offset="0.8226" stop-color="#180D5B"/>
</radialGradient>
<linearGradient id="paint2_linear_740_4081" x1="830.1" y1="307.312" x2="642.029" y2="307.312" gradientUnits="userSpaceOnUse">
<stop stop-color="#3D87EE"/>
<stop offset="0.1022" stop-color="#465CDB"/>
<stop offset="0.3445" stop-color="#372FCE"/>
<stop offset="0.564" stop-color="#0903A4"/>
<stop offset="0.7534" stop-color="#0D05A7"/>
<stop offset="0.905" stop-color="#0B0598"/>
<stop offset="1" stop-color="#040344"/>
</linearGradient>
<linearGradient id="paint3_linear_740_4081" x1="694.493" y1="307.308" x2="600.457" y2="307.308" gradientUnits="userSpaceOnUse">
<stop stop-color="#0A06A7"/>
<stop offset="1" stop-color="#060094"/>
</linearGradient>
<linearGradient id="paint4_linear_740_4081" x1="788.528" y1="286.536" x2="600.443" y2="286.536" gradientUnits="userSpaceOnUse">
<stop stop-color="#FBF5FE"/>
<stop offset="0.1022" stop-color="#DFD3F3"/>
<stop offset="0.3445" stop-color="#E9C9FD"/>
<stop offset="0.564" stop-color="#E3B5F9"/>
<stop offset="0.7534" stop-color="#D88FFF"/>
<stop offset="0.905" stop-color="#BA68F3"/>
<stop offset="1" stop-color="#6B32D9"/>
</linearGradient>
<linearGradient id="paint5_linear_740_4081" x1="788.528" y1="286.539" x2="692.534" y2="286.539" gradientUnits="userSpaceOnUse">
<stop stop-color="#FEF8FF"/>
<stop offset="0.1022" stop-color="#F3DBFF"/>
<stop offset="0.3445" stop-color="#EACBF3"/>
<stop offset="0.564" stop-color="#DFB2F5"/>
<stop offset="0.7534" stop-color="#D58BFF"/>
<stop offset="0.905" stop-color="#BE62F3"/>
<stop offset="1" stop-color="#752ADE"/>
</linearGradient>
<linearGradient id="paint6_linear_740_4081" x1="762.947" y1="341.264" x2="605.521" y2="238.366" gradientUnits="userSpaceOnUse">
<stop stop-color="#FCF3FD"/>
<stop offset="0.1022" stop-color="#FCF0FF"/>
<stop offset="0.3445" stop-color="#E6CEFF"/>
<stop offset="0.564" stop-color="#DABDFB"/>
<stop offset="0.7534" stop-color="#CB8AF6"/>
<stop offset="0.905" stop-color="#C96AF5"/>
<stop offset="1" stop-color="#AC51F4"/>
</linearGradient>
<linearGradient id="paint7_linear_740_4081" x1="830.1" y1="250.465" x2="642.029" y2="250.465" gradientUnits="userSpaceOnUse">
<stop stop-color="#46A0EE"/>
<stop offset="0.1022" stop-color="#355BD5"/>
<stop offset="0.3445" stop-color="#3931D1"/>
<stop offset="0.564" stop-color="#0C04A3"/>
<stop offset="0.7534" stop-color="#0D04A9"/>
<stop offset="0.905" stop-color="#060490"/>
<stop offset="1" stop-color="#01065B"/>
</linearGradient>
<linearGradient id="paint8_linear_740_4081" x1="694.493" y1="250.46" x2="600.457" y2="250.46" gradientUnits="userSpaceOnUse">
<stop stop-color="#0A06A7"/>
<stop offset="1" stop-color="#020061"/>
</linearGradient>
<linearGradient id="paint9_linear_740_4081" x1="788.528" y1="229.688" x2="600.443" y2="229.688" gradientUnits="userSpaceOnUse">
<stop stop-color="#740EC4"/>
<stop offset="0.1022" stop-color="#6B03AB"/>
<stop offset="0.3445" stop-color="#5C0095"/>
<stop offset="0.564" stop-color="#3B097B"/>
<stop offset="0.7534" stop-color="#370569"/>
<stop offset="0.905" stop-color="#2E0655"/>
<stop offset="1" stop-color="#200436"/>
</linearGradient>
<linearGradient id="paint10_linear_740_4081" x1="788.528" y1="229.69" x2="692.534" y2="229.69" gradientUnits="userSpaceOnUse">
<stop stop-color="#FDF2FD"/>
<stop offset="0.1022" stop-color="#FAF5F7"/>
<stop offset="0.3445" stop-color="#F1DEFF"/>
<stop offset="0.564" stop-color="#E7CAFD"/>
<stop offset="0.7534" stop-color="#C391FD"/>
<stop offset="0.905" stop-color="#D38FFE"/>
<stop offset="1" stop-color="#B855F4"/>
</linearGradient>
<linearGradient id="paint11_linear_740_4081" x1="762.947" y1="284.417" x2="605.521" y2="181.519" gradientUnits="userSpaceOnUse">
<stop stop-color="#FDF4FE"/>
<stop offset="0.1022" stop-color="#E2C4FE"/>
<stop offset="0.3445" stop-color="#DDC3F3"/>
<stop offset="0.564" stop-color="#E1B3FE"/>
<stop offset="0.7534" stop-color="#C06DF0"/>
<stop offset="0.905" stop-color="#7941E3"/>
<stop offset="1" stop-color="#5A41DB"/>
</linearGradient>
<radialGradient id="paint12_radial_740_4081" cx="0" cy="0" r="1" gradientUnits="userSpaceOnUse" gradientTransform="translate(741.686 159.813) rotate(149.999) scale(73.1675 63.3659)">
<stop offset="0.0225145" stop-color="#703FD8"/>
<stop offset="0.098265" stop-color="#5836BA"/>
<stop offset="0.1786" stop-color="#4C2EA0"/>
<stop offset="0.2622" stop-color="#3B278B"/>
<stop offset="0.35" stop-color="#332279"/>
<stop offset="0.4433" stop-color="#2D1D6C"/>
<stop offset="0.5449" stop-color="#25175E"/>
<stop offset="0.6608" stop-color="#1B105D"/>
<stop offset="0.8226" stop-color="#0C0748"/>
</radialGradient>
<radialGradient id="paint13_radial_740_4081" cx="0" cy="0" r="1" gradientUnits="userSpaceOnUse" gradientTransform="translate(615.496 179.505) rotate(150.194) scale(36.2301 31.253)">
<stop offset="0.0225145" stop-color="#703FD8"/>
<stop offset="0.098265" stop-color="#5836BA"/>
<stop offset="0.1786" stop-color="#4C2EA0"/>
<stop offset="0.2622" stop-color="#3B278B"/>
<stop offset="0.35" stop-color="#332279"/>
<stop offset="0.4433" stop-color="#2D1D6C"/>
<stop offset="0.5449" stop-color="#25175E"/>
<stop offset="0.6608" stop-color="#1B105D"/>
<stop offset="0.8226" stop-color="#0C0748"/>
</radialGradient>
<radialGradient id="paint14_radial_740_4081" cx="0" cy="0" r="1" gradientUnits="userSpaceOnUse" gradientTransform="translate(738.495 254.007) rotate(150.041) scale(45.255 39.1594)">
<stop offset="0.0225145" stop-color="#703FD8"/>
<stop offset="0.098265" stop-color="#5836BA"/>
<stop offset="0.1786" stop-color="#4C2EA0"/>
<stop offset="0.2622" stop-color="#3B278B"/>
<stop offset="0.35" stop-color="#332279"/>
<stop offset="0.4433" stop-color="#2D1D6C"/>
<stop offset="0.5449" stop-color="#25175E"/>
<stop offset="0.6608" stop-color="#1B105D"/>
<stop offset="0.8226" stop-color="#0C0748"/>
</radialGradient>
<radialGradient id="paint15_radial_740_4081" cx="0" cy="0" r="1" gradientUnits="userSpaceOnUse" gradientTransform="translate(809.997 200.503) rotate(150.369) scale(23.5693 20.2579)">
<stop offset="0.0225145" stop-color="#703FD8"/>
<stop offset="0.098265" stop-color="#5836BA"/>
<stop offset="0.1786" stop-color="#4C2EA0"/>
<stop offset="0.2622" stop-color="#3B278B"/>
<stop offset="0.35" stop-color="#332279"/>
<stop offset="0.4433" stop-color="#2D1D6C"/>
<stop offset="0.5449" stop-color="#25175E"/>
<stop offset="0.6608" stop-color="#1B105D"/>
<stop offset="0.8226" stop-color="#0C0748"/>
</radialGradient>
<radialGradient id="paint16_radial_740_4081" cx="0" cy="0" r="1" gradientUnits="userSpaceOnUse" gradientTransform="translate(741.598 159.776) rotate(180) scale(12.8438)">
<stop stop-color="#7742E8"/>
<stop offset="0.0225145" stop-color="#793FD8"/>
<stop offset="0.098265" stop-color="#7036BA"/>
<stop offset="0.1786" stop-color="#661AB3"/>
<stop offset="0.2622" stop-color="#481E7D"/>
<stop offset="0.35" stop-color="#3D0C6F"/>
<stop offset="0.4433" stop-color="#34155B"/>
<stop offset="0.5449" stop-color="#300E51"/>
<stop offset="0.6608" stop-color="#220B40"/>
<stop offset="0.8226" stop-color="#18072F"/>
</radialGradient>
<radialGradient id="paint17_radial_740_4081" cx="0" cy="0" r="1" gradientUnits="userSpaceOnUse" gradientTransform="translate(615.273 179.389) rotate(180) scale(6.3465)">
<stop stop-color="#7742E8"/>
<stop offset="0.0225145" stop-color="#793FD8"/>
<stop offset="0.098265" stop-color="#7036BA"/>
<stop offset="0.1786" stop-color="#661AB3"/>
<stop offset="0.2622" stop-color="#481E7D"/>
<stop offset="0.35" stop-color="#3D0C6F"/>
<stop offset="0.4433" stop-color="#34155B"/>
<stop offset="0.5449" stop-color="#300E51"/>
<stop offset="0.6608" stop-color="#220B40"/>
<stop offset="0.8226" stop-color="#18072F"/>
</radialGradient>
<radialGradient id="paint18_radial_740_4081" cx="0" cy="0" r="1" gradientUnits="userSpaceOnUse" gradientTransform="translate(738.264 254.032) rotate(180) scale(7.92203)">
<stop stop-color="#7742E8"/>
<stop offset="0.0225145" stop-color="#793FD8"/>
<stop offset="0.098265" stop-color="#7036BA"/>
<stop offset="0.1786" stop-color="#661AB3"/>
<stop offset="0.2622" stop-color="#481E7D"/>
<stop offset="0.35" stop-color="#3D0C6F"/>
<stop offset="0.4433" stop-color="#34155B"/>
<stop offset="0.5449" stop-color="#300E51"/>
<stop offset="0.6608" stop-color="#220B40"/>
<stop offset="0.8226" stop-color="#18072F"/>
</radialGradient>
<radialGradient id="paint19_radial_740_4081" cx="0" cy="0" r="1" gradientUnits="userSpaceOnUse" gradientTransform="translate(809.852 200.31) rotate(180) scale(4.13592)">
<stop stop-color="#7742E8"/>
<stop offset="0.0225145" stop-color="#793FD8"/>
<stop offset="0.098265" stop-color="#7036BA"/>
<stop offset="0.1786" stop-color="#661AB3"/>
<stop offset="0.2622" stop-color="#481E7D"/>
<stop offset="0.35" stop-color="#3D0C6F"/>
<stop offset="0.4433" stop-color="#34155B"/>
<stop offset="0.5449" stop-color="#300E51"/>
<stop offset="0.6608" stop-color="#220B40"/>
<stop offset="0.8226" stop-color="#18072F"/>
</radialGradient>
</defs>
</svg>
