<svg width="508" height="154" viewBox="0 0 508 154" fill="none" xmlns="http://www.w3.org/2000/svg">
<path opacity="0.5" d="M508 101.335L492.656 94.2937L336.182 166.154L283.117 141.779L474.816 53.6092L459.471 46.5676L267.697 134.677L216.446 111.145L249.706 95.8585L262.254 90.141L408.22 23.0356L392.8 15.9339L246.834 83.0393L66.927 0.346191L51.582 7.38774L231.489 90.141L76.7538 161.7L92.0988 168.742L201.101 118.247L253.561 142.321L267.697 148.821L456.599 236.088L471.944 229.046L351.527 173.255L508 101.335Z" fill="url(#paint0_radial_1678_4476)"/>
<path opacity="0.3" d="M100.037 155.226C155.286 155.226 200.074 134.619 200.074 109.198C200.074 83.7767 155.286 63.1689 100.037 63.1689C44.7881 63.1689 0 83.7767 0 109.198C0 134.619 44.7881 155.226 100.037 155.226Z" fill="url(#paint1_radial_1678_4476)"/>
<path opacity="0.5" d="M126.338 157.657L96.8857 140.673C94.6201 139.39 94.9222 137.125 97.4898 135.616L125.734 119.311C128.302 117.801 132.229 117.65 134.494 118.933L163.947 135.918C166.213 137.201 165.91 139.465 163.343 140.975L135.023 157.28C132.455 158.79 128.528 158.941 126.338 157.657Z" fill="#170244"/>
<path d="M169.157 120.896V114.781H153.449L134.871 104.062C132.379 102.628 128.075 102.779 125.205 104.44L107.307 114.781H91.5989V121.198C91.5233 122.179 92.052 123.085 93.2603 123.764L125.885 142.56C128.377 143.994 132.681 143.843 135.551 142.183L166.816 124.141C168.478 123.311 169.233 122.028 169.157 120.896Z" fill="#572A91"/>
<path opacity="0.5" d="M169.157 120.896V114.781H153.449L134.871 104.062C132.379 102.628 128.075 102.779 125.205 104.44L107.307 114.781H91.5989V121.198C91.5233 122.179 92.052 123.085 93.2603 123.764L125.885 142.56C128.377 143.994 132.681 143.843 135.551 142.183L166.816 124.141C168.478 123.311 169.233 122.028 169.157 120.896Z" fill="url(#paint2_linear_1678_4476)"/>
<path d="M134.872 104.062C133.663 103.383 132.077 103.081 130.416 103.081V143.617C132.228 143.541 134.116 143.088 135.627 142.258L166.892 124.217C168.553 123.236 169.309 122.028 169.233 120.896V114.781H153.525L134.872 104.062Z" fill="url(#paint3_linear_1678_4476)"/>
<path d="M125.884 136.22L93.26 117.424C90.7678 115.99 91.0699 113.499 93.9396 111.838L125.205 93.7972C128.074 92.1365 132.379 91.9856 134.871 93.4198L167.496 112.216C169.988 113.65 169.686 116.141 166.816 117.802L135.551 135.843C132.681 137.503 128.377 137.654 125.884 136.22Z" fill="#832A91"/>
<path opacity="0.5" d="M125.884 136.22L93.26 117.424C90.7678 115.99 91.0699 113.499 93.9396 111.838L125.205 93.7972C128.074 92.1365 132.379 91.9856 134.871 93.4198L167.496 112.216C169.988 113.65 169.686 116.141 166.816 117.802L135.551 135.843C132.681 137.503 128.377 137.654 125.884 136.22Z" fill="url(#paint4_linear_1678_4476)"/>
<path d="M126.791 132.067L100.51 116.895C98.5465 115.762 98.7731 113.724 101.039 112.366L126.187 97.8724C128.528 96.5136 132.002 96.3626 133.965 97.5704L160.246 112.743C162.209 113.875 161.983 115.913 159.717 117.272L134.569 131.765C132.228 133.049 128.754 133.2 126.791 132.067Z" fill="#FADAFF"/>
<path d="M101.038 114.404L126.186 99.9105C128.527 98.5517 132.001 98.4008 133.964 99.6085L160.245 114.781C160.774 115.083 161.076 115.385 161.302 115.762C161.906 114.706 161.529 113.573 160.245 112.818L133.964 97.5704C132.001 96.4381 128.451 96.5891 126.186 97.8724L101.038 112.366C99.3007 113.347 98.6966 114.781 99.3763 115.838C99.6783 115.385 100.207 114.857 101.038 114.404Z" fill="#E842E1"/>
<path opacity="0.5" d="M126.942 136.219L94.3172 117.423C91.8251 115.989 91.2209 113.876 94.9969 111.838L126.262 93.7965C127.697 92.9662 129.434 92.5133 131.171 92.4378C129.132 92.3623 126.866 92.8152 125.205 93.7965L93.9396 111.838C91.0699 113.498 90.7678 115.989 93.26 117.423L125.884 136.219C127.168 136.974 128.905 137.276 130.642 137.201C129.283 137.125 127.999 136.823 126.942 136.219Z" fill="url(#paint5_linear_1678_4476)"/>
<path opacity="0.5" d="M166.816 120.518L135.551 138.559C132.681 140.22 128.377 140.371 125.885 138.937L93.2603 120.141C92.052 119.461 91.5233 118.556 91.5989 117.574V118.933C91.5233 119.914 92.052 120.82 93.2603 121.499L125.885 140.295C128.377 141.73 132.681 141.579 135.551 139.918L166.816 121.877C168.478 120.896 169.233 119.688 169.157 118.556V117.197C169.233 118.329 168.478 119.537 166.816 120.518Z" fill="url(#paint6_linear_1678_4476)"/>
<path d="M161.151 118.782C161.529 119.009 161.529 119.311 161.151 119.537C160.773 119.763 160.245 119.763 159.867 119.537C159.49 119.311 159.49 119.009 159.867 118.782C160.169 118.556 160.773 118.556 161.151 118.782Z" fill="#FD96FF"/>
<path d="M163.114 117.575C163.492 117.801 163.492 118.103 163.114 118.329C162.736 118.556 162.208 118.556 161.83 118.329C161.452 118.103 161.452 117.801 161.83 117.575C162.208 117.348 162.812 117.348 163.114 117.575Z" fill="#FD96FF"/>
<path d="M165.153 116.442C165.531 116.669 165.531 116.971 165.153 117.197C164.775 117.424 164.247 117.424 163.869 117.197C163.492 116.971 163.492 116.669 163.869 116.442C164.247 116.216 164.775 116.216 165.153 116.442Z" fill="#FD96FF"/>
<path opacity="0.5" d="M127.546 128.369L106.93 116.518C105.344 115.612 105.57 114.027 107.383 112.97L127.093 101.572C128.906 100.515 131.625 100.44 133.21 101.345L153.827 113.272C155.413 114.178 155.187 115.763 153.374 116.82L133.664 128.218C131.851 129.2 129.132 129.275 127.546 128.369Z" fill="#3B0244"/>
<path opacity="0.5" d="M130.342 92.438C128.529 92.5135 126.641 92.9664 125.131 93.7967L118.41 97.722L91.5246 97.8729V114.857C91.4491 115.838 91.9778 116.744 93.1861 117.424L125.81 136.22C127.019 136.899 128.605 137.201 130.266 137.201V92.438H130.342Z" fill="#E85CFF"/>
<path opacity="0.5" d="M169.159 114.782C169.159 114.631 169.159 114.556 169.159 114.405V97.4203L142.123 97.5713L134.873 93.3441C132.381 91.9099 128.077 92.0608 125.207 93.7215L118.486 97.6468L91.6008 97.7977V114.782C91.5253 115.763 92.0539 116.669 93.2622 117.348L125.887 136.144C128.379 137.579 132.683 137.428 135.553 135.767L166.818 117.726C168.329 116.971 169.084 115.839 169.159 114.782Z" fill="#FFD6F8"/>
<path d="M169.159 97.42V91.3057H153.451L134.873 80.5868C132.381 79.1525 128.077 79.3035 125.207 80.9642L107.309 91.3057H91.6008V97.722C91.5253 98.7033 92.0539 99.6091 93.2622 100.288L125.887 119.084C128.379 120.519 132.683 120.368 135.553 118.707L166.818 100.666C168.48 99.8356 169.235 98.6278 169.159 97.42Z" fill="#572A91"/>
<path opacity="0.5" d="M169.159 97.42V91.3057H153.451L134.873 80.5868C132.381 79.1525 128.077 79.3035 125.207 80.9642L107.309 91.3057H91.6008V97.722C91.5253 98.7033 92.0539 99.6091 93.2622 100.288L125.887 119.084C128.379 120.519 132.683 120.368 135.553 118.707L166.818 100.666C168.48 99.8356 169.235 98.6278 169.159 97.42Z" fill="url(#paint7_linear_1678_4476)"/>
<path d="M134.874 80.6625C133.665 79.9831 132.079 79.6812 130.418 79.6812V120.217C132.23 120.141 134.118 119.688 135.629 118.858L166.894 100.817C168.555 99.8358 169.31 98.628 169.235 97.4957V91.3814H153.527L134.874 80.6625Z" fill="url(#paint8_linear_1678_4476)"/>
<path d="M125.886 112.819L93.2619 94.0233C90.7698 92.589 91.0719 90.098 93.9416 88.4374L125.207 70.3963C128.076 68.7356 132.381 68.5847 134.873 70.0189L167.498 88.8148C169.99 90.249 169.688 92.74 166.818 94.4007L135.553 112.442C132.683 114.027 128.378 114.253 125.886 112.819Z" fill="#8F2A91"/>
<path opacity="0.5" d="M125.886 112.819L93.2619 94.0233C90.7698 92.589 91.0719 90.098 93.9416 88.4374L125.207 70.3963C128.076 68.7356 132.381 68.5847 134.873 70.0189L167.498 88.8148C169.99 90.249 169.688 92.74 166.818 94.4007L135.553 112.442C132.683 114.027 128.378 114.253 125.886 112.819Z" fill="url(#paint9_linear_1678_4476)"/>
<path opacity="0.5" d="M126.944 112.819L94.3192 94.0231C91.827 92.5888 91.2229 90.4753 94.9989 88.4371L126.264 70.3961C127.699 69.5658 129.436 69.1129 131.173 69.0374C129.134 68.9619 126.868 69.4148 125.207 70.3961L93.9416 88.3617C91.0719 90.0223 90.7698 92.5134 93.2619 93.9476L125.886 112.743C127.17 113.498 128.907 113.8 130.644 113.725C129.285 113.649 128.001 113.347 126.944 112.819Z" fill="url(#paint10_linear_1678_4476)"/>
<path opacity="0.5" d="M166.818 97.0425L135.553 115.084C132.683 116.744 128.379 116.895 125.887 115.461L93.2622 96.6651C92.0539 95.9858 91.5253 95.0799 91.6008 94.0986V95.4574C91.5253 96.4387 92.0539 97.3445 93.2622 98.0239L125.887 116.82C128.379 118.254 132.683 118.103 135.553 116.442L166.818 98.4013C168.48 97.42 169.235 96.2122 169.159 95.0799V93.7212C169.235 94.8535 168.48 96.1367 166.818 97.0425Z" fill="url(#paint11_linear_1678_4476)"/>
<path opacity="0.2" d="M127.774 92.7396C128.454 93.117 128.454 93.7964 127.774 94.1738C127.094 94.5513 125.962 94.5513 125.357 94.1738C124.678 93.7964 124.678 93.117 125.357 92.7396C126.037 92.3622 127.094 92.3622 127.774 92.7396Z" fill="#FB26FF"/>
<path opacity="0.6" d="M131.626 90.5506C132.305 90.928 132.305 91.6074 131.626 91.9848C130.946 92.3623 129.813 92.3623 129.209 91.9848C128.529 91.6074 128.529 90.928 129.209 90.5506C129.813 90.0977 130.946 90.0977 131.626 90.5506Z" fill="#FC6BFF"/>
<path d="M135.401 88.286C136.081 88.6634 136.081 89.3428 135.401 89.7202C134.721 90.0977 133.589 90.0977 132.984 89.7202C132.305 89.3428 132.305 88.6634 132.984 88.286C133.664 87.9086 134.721 87.9086 135.401 88.286Z" fill="#FD96FF"/>
<path opacity="0.5" d="M130.189 108.139C128.981 108.139 127.848 107.913 126.942 107.384L102.775 93.4949C101.869 92.9665 101.416 92.2871 101.416 91.4567C101.416 90.5509 102.096 89.5696 103.304 88.8902L126.413 75.5293C128.603 74.2461 131.926 74.1706 133.814 75.2274L157.98 89.1167C158.886 89.6451 159.339 90.3245 159.339 91.1548C159.339 92.0606 158.66 93.0419 157.451 93.7213L134.342 107.082C133.134 107.837 131.624 108.139 130.189 108.139ZM130.567 75.0764C129.207 75.0764 127.772 75.3783 126.64 76.0577L103.531 89.3432C102.473 89.947 101.869 90.7019 101.869 91.4567C101.869 92.0606 102.247 92.589 103.002 93.0419L127.168 106.931C128.905 107.913 132.001 107.837 134.04 106.629L157.149 93.2684C158.207 92.6645 158.811 91.9097 158.811 91.1548C158.811 90.5509 158.433 90.0225 157.678 89.5696L133.512 75.6803C132.757 75.3029 131.699 75.0764 130.567 75.0764Z" fill="#370244"/>
<path d="M130.643 111.158C129.208 111.158 127.849 110.856 126.791 110.252L82.084 84.4363C81.1022 83.8324 80.498 83.0021 80.498 82.0962C80.498 81.0394 81.3288 79.9072 82.6881 79.1523L126.187 54.0911C128.83 52.5814 132.757 52.4305 135.023 53.7137L179.731 79.5297C180.712 80.1336 181.317 80.964 181.317 81.8698C181.317 82.9266 180.486 84.0589 179.126 84.8137L135.627 109.875C134.192 110.781 132.38 111.158 130.643 111.158ZM131.172 53.1853C129.51 53.1853 127.698 53.5627 126.338 54.3931L82.8392 79.4543C81.5553 80.2091 80.8001 81.1904 80.8001 82.1717C80.8001 83.0021 81.3288 83.6814 82.235 84.2098L126.943 110.026C129.133 111.309 132.984 111.158 135.552 109.648L179.051 84.5873C180.335 83.8324 181.09 82.8511 181.09 81.8698C181.09 81.0394 180.561 80.3601 179.655 79.8317L134.948 54.0157C133.89 53.4873 132.531 53.1853 131.172 53.1853Z" fill="#FDF4FE"/>
<path opacity="0.3" d="M125.296 77.0402C104.771 77.0402 88.1325 67.4411 88.1325 55.6C88.1325 43.7588 104.771 34.1597 125.296 34.1597C145.82 34.1597 162.459 43.7588 162.459 55.6C162.459 67.4411 145.82 77.0402 125.296 77.0402Z" fill="url(#paint12_radial_1678_4476)"/>
<path d="M119.916 55.6045C119.916 58.5592 122.266 60.9078 125.222 60.9078C128.178 60.9078 130.527 58.5592 130.527 55.6045C130.527 52.6498 128.178 50.3013 125.222 50.3013C122.266 50.3013 119.916 52.6498 119.916 55.6045Z" fill="url(#paint13_radial_1678_4476)"/>
<path d="M123.706 55.6046C123.706 56.4379 124.389 57.1198 125.222 57.1198C126.056 57.1198 126.738 56.4379 126.738 55.6046C126.738 54.7712 126.056 54.0894 125.222 54.0894C124.389 54.0894 123.706 54.7712 123.706 55.6046Z" fill="#E0B0FF"/>
<path opacity="0.3" d="M141.259 121.916C125.693 121.916 113.075 114.66 113.075 105.711C113.075 96.761 125.693 89.5059 141.259 89.5059C156.825 89.5059 169.443 96.761 169.443 105.711C169.443 114.66 156.825 121.916 141.259 121.916Z" fill="url(#paint14_radial_1678_4476)"/>
<path d="M137.097 105.714C137.097 107.947 138.873 109.722 141.107 109.722C143.341 109.722 145.117 107.947 145.117 105.714C145.117 103.481 143.341 101.706 141.107 101.706C138.873 101.706 137.097 103.481 137.097 105.714Z" fill="url(#paint15_radial_1678_4476)"/>
<path d="M139.962 105.714C139.962 106.344 140.478 106.859 141.108 106.859C141.738 106.859 142.254 106.344 142.254 105.714C142.254 105.084 141.738 104.569 141.108 104.569C140.478 104.569 139.962 105.084 139.962 105.714Z" fill="#E0B0FF"/>
<path opacity="0.3" d="M383.346 246.058C316.659 246.058 262.598 214.796 262.598 176.233C262.598 137.669 316.659 106.407 383.346 106.407C450.033 106.407 504.094 137.669 504.094 176.233C504.094 214.796 450.033 246.058 383.346 246.058Z" fill="url(#paint16_radial_1678_4476)"/>
<path opacity="0.5" d="M351.817 197.946L387.411 177.382C390.149 175.829 389.784 173.087 386.681 171.259L352.547 151.518C349.444 149.69 344.698 149.507 341.96 151.061L306.365 171.624C303.627 173.178 303.992 175.92 307.095 177.748L341.321 197.489C344.424 199.317 349.17 199.5 351.817 197.946Z" fill="#0B0244"/>
<path d="M300.068 153.437V146.034H319.051L341.503 133.056C344.515 131.319 349.718 131.502 353.186 133.513L374.816 146.034H393.8V153.802C393.891 154.99 393.252 156.087 391.792 156.91L352.364 179.667C349.352 181.403 344.15 181.22 340.682 179.21L302.897 157.367C300.889 156.361 299.976 154.807 300.068 153.437Z" fill="#312A91"/>
<path opacity="0.5" d="M300.068 153.437V146.034H319.051L341.503 133.056C344.515 131.319 349.718 131.502 353.186 133.513L374.816 146.034H393.8V153.802C393.891 154.99 393.252 156.087 391.792 156.91L352.364 179.667C349.352 181.403 344.15 181.22 340.682 179.21L302.897 157.367C300.889 156.361 299.976 154.807 300.068 153.437Z" fill="url(#paint17_linear_1678_4476)"/>
<path d="M341.504 133.055C342.964 132.233 344.881 131.867 346.889 131.867V180.946C344.698 180.855 342.417 180.306 340.591 179.301L302.806 157.458C300.798 156.27 299.886 154.807 299.977 153.436V146.033H318.961L341.504 133.055Z" fill="url(#paint18_linear_1678_4476)"/>
<path d="M352.365 171.99L391.792 149.233C394.804 147.496 394.439 144.48 390.971 142.47L353.186 120.626C349.718 118.616 344.516 118.433 341.504 120.169L302.076 142.927C299.064 144.663 299.429 147.679 302.897 149.69L340.682 171.533C344.15 173.544 349.353 173.727 352.365 171.99Z" fill="#2A27C7"/>
<path opacity="0.5" d="M352.365 171.99L391.792 149.233C394.804 147.496 394.439 144.48 390.971 142.47L353.186 120.626C349.718 118.616 344.516 118.433 341.504 120.169L302.076 142.927C299.064 144.663 299.429 147.679 302.897 149.69L340.682 171.533C344.15 173.544 349.353 173.727 352.365 171.99Z" fill="url(#paint19_linear_1678_4476)"/>
<path d="M351.269 166.963L383.03 148.593C385.403 147.222 385.129 144.754 382.391 143.109L351.999 125.561C349.17 123.916 344.971 123.733 342.598 125.196L310.837 143.566C308.464 144.937 308.738 147.405 311.476 149.05L341.868 166.597C344.698 168.151 348.896 168.334 351.269 166.963Z" fill="#FDF4FE"/>
<path d="M382.391 145.577L351.999 128.029C349.169 126.384 344.971 126.201 342.598 127.663L310.837 146.033C310.198 146.399 309.833 146.765 309.559 147.222C308.829 145.942 309.285 144.571 310.837 143.657L342.598 125.196C344.971 123.825 349.261 124.007 351.999 125.561L382.391 143.109C384.49 144.297 385.22 146.033 384.399 147.313C384.034 146.765 383.395 146.125 382.391 145.577Z" fill="#BA56FC"/>
<path opacity="0.5" d="M351.087 171.99L390.515 149.233C393.526 147.496 394.257 144.937 389.693 142.469L351.908 120.626C350.174 119.621 348.075 119.072 345.976 118.981C348.44 118.89 351.178 119.438 353.186 120.626L390.971 142.469C394.439 144.48 394.804 147.496 391.792 149.233L352.365 171.99C350.813 172.904 348.714 173.269 346.615 173.178C348.257 173.087 349.809 172.721 351.087 171.99Z" fill="url(#paint20_linear_1678_4476)"/>
<path opacity="0.5" d="M302.897 152.979L340.682 174.823C344.15 176.833 349.352 177.016 352.364 175.28L391.792 152.522C393.252 151.7 393.891 150.603 393.8 149.415V151.06C393.891 152.248 393.252 153.345 391.792 154.168L352.364 176.925C349.352 178.661 344.15 178.478 340.682 176.468L302.897 154.624C300.889 153.436 299.976 151.974 300.068 150.603V148.958C299.976 150.329 300.889 151.791 302.897 152.979Z" fill="url(#paint21_linear_1678_4476)"/>
<path d="M309.743 150.878C309.287 151.152 309.287 151.517 309.743 151.791C310.199 152.066 310.838 152.066 311.294 151.791C311.751 151.517 311.751 151.152 311.294 150.878C310.929 150.603 310.199 150.603 309.743 150.878Z" fill="#FCF3FD"/>
<path d="M307.37 149.416C306.914 149.69 306.914 150.055 307.37 150.33C307.826 150.604 308.465 150.604 308.921 150.33C309.378 150.055 309.378 149.69 308.921 149.416C308.465 149.141 307.735 149.141 307.37 149.416Z" fill="#FCF3FD"/>
<path d="M304.905 148.045C304.449 148.319 304.449 148.684 304.905 148.958C305.361 149.233 306 149.233 306.457 148.958C306.913 148.684 306.913 148.319 306.457 148.045C306 147.77 305.361 147.77 304.905 148.045Z" fill="#FCF3FD"/>
<path opacity="0.5" d="M350.357 162.485L375.273 148.136C377.19 147.039 376.916 145.12 374.725 143.84L350.904 130.04C348.714 128.76 345.428 128.669 343.512 129.766L318.595 144.206C316.679 145.303 316.953 147.222 319.143 148.501L342.964 162.302C345.154 163.49 348.44 163.582 350.357 162.485Z" fill="#0B0244"/>
<path opacity="0.5" d="M346.98 118.981C349.17 119.072 351.452 119.621 353.278 120.626L361.4 125.379L393.892 125.561V146.125C393.983 147.313 393.344 148.41 391.884 149.233L352.456 171.99C350.996 172.812 349.079 173.178 347.071 173.178V118.981H346.98Z" fill="#FFFEFF"/>
<path opacity="0.5" d="M300.068 146.034C300.068 145.851 300.068 145.759 300.068 145.577V125.013L332.742 125.196L341.503 120.078C344.515 118.341 349.718 118.524 353.186 120.535L361.309 125.287L393.8 125.47V146.034C393.891 147.222 393.252 148.318 391.792 149.141L352.364 171.898C349.352 173.635 344.15 173.452 340.682 171.441L302.897 149.598C301.072 148.684 300.159 147.313 300.068 146.034Z" fill="#EFCDFF"/>
<path d="M300.068 125.013V117.61H319.051L341.503 104.632C344.515 102.896 349.718 103.079 353.186 105.089L374.816 117.61H393.8V125.379C393.891 126.567 393.252 127.664 391.792 128.486L352.364 151.243C349.352 152.98 344.15 152.797 340.682 150.786L302.897 128.943C300.889 127.938 299.976 126.476 300.068 125.013Z" fill="#0C04A6"/>
<path opacity="0.5" d="M300.068 125.013V117.61H319.051L341.503 104.632C344.515 102.896 349.718 103.079 353.186 105.089L374.816 117.61H393.8V125.379C393.891 126.567 393.252 127.664 391.792 128.486L352.364 151.243C349.352 152.98 344.15 152.797 340.682 150.786L302.897 128.943C300.889 127.938 299.976 126.476 300.068 125.013Z" fill="url(#paint22_linear_1678_4476)"/>
<path d="M341.504 104.723C342.964 103.901 344.881 103.535 346.889 103.535V152.614C344.698 152.523 342.417 151.974 340.591 150.969L302.806 129.126C300.798 127.937 299.886 126.475 299.977 125.104V117.701H318.961L341.504 104.723Z" fill="url(#paint23_linear_1678_4476)"/>
<path d="M352.365 143.658L391.792 120.9C394.804 119.164 394.439 116.148 390.971 114.137L353.186 92.2938C349.718 90.2831 344.516 90.1003 341.504 91.8368L302.076 114.594C299.064 116.331 299.429 119.347 302.897 121.357L340.682 143.201C344.15 145.12 349.353 145.394 352.365 143.658Z" fill="#0C04A6"/>
<path opacity="0.5" d="M352.365 143.658L391.792 120.9C394.804 119.164 394.439 116.148 390.971 114.137L353.186 92.2938C349.718 90.2831 344.516 90.1003 341.504 91.8368L302.076 114.594C299.064 116.331 299.429 119.347 302.897 121.357L340.682 143.201C344.15 145.12 349.353 145.394 352.365 143.658Z" fill="url(#paint24_linear_1678_4476)"/>
<path opacity="0.5" d="M351.087 143.657L390.515 120.9C393.526 119.164 394.257 116.605 389.693 114.137L351.908 92.2936C350.174 91.2882 348.075 90.7399 345.976 90.6485C348.44 90.5571 351.178 91.1054 353.186 92.2936L390.971 114.045C394.439 116.056 394.804 119.072 391.792 120.809L352.365 143.566C350.813 144.48 348.714 144.845 346.615 144.754C348.257 144.663 349.809 144.297 351.087 143.657Z" fill="url(#paint25_linear_1678_4476)"/>
<path opacity="0.5" d="M302.897 124.556L340.682 146.399C344.15 148.41 349.352 148.593 352.364 146.856L391.792 124.099C393.252 123.276 393.891 122.18 393.8 120.992V122.637C393.891 123.825 393.252 124.922 391.792 125.744L352.364 148.501C349.352 150.238 344.15 150.055 340.682 148.044L302.897 126.201C300.889 125.013 299.976 123.551 300.068 122.18V120.535C299.976 121.906 300.889 123.459 302.897 124.556Z" fill="url(#paint26_linear_1678_4476)"/>
<path opacity="0.2" d="M350.083 119.346C349.261 119.803 349.261 120.626 350.083 121.083C350.904 121.54 352.273 121.54 353.003 121.083C353.824 120.626 353.824 119.803 353.003 119.346C352.182 118.889 350.904 118.889 350.083 119.346Z" fill="#9448F4"/>
<path opacity="0.6" d="M345.428 116.696C344.607 117.153 344.607 117.975 345.428 118.432C346.25 118.889 347.619 118.889 348.349 118.432C349.17 117.975 349.17 117.153 348.349 116.696C347.619 116.148 346.25 116.148 345.428 116.696Z" fill="#E5B3FE"/>
<path d="M340.864 113.954C340.042 114.411 340.042 115.234 340.864 115.691C341.685 116.148 343.054 116.148 343.784 115.691C344.606 115.234 344.606 114.411 343.784 113.954C342.963 113.497 341.685 113.497 340.864 113.954Z" fill="#FCF3FD"/>
<path opacity="0.5" d="M347.162 137.991C348.623 137.991 349.992 137.717 351.087 137.077L380.293 120.26C381.388 119.621 381.936 118.798 381.936 117.793C381.936 116.696 381.114 115.508 379.654 114.685L351.726 98.5085C349.079 96.9548 345.063 96.8634 342.782 98.1429L313.576 114.96C312.481 115.599 311.933 116.422 311.933 117.427C311.933 118.524 312.754 119.712 314.215 120.535L342.143 136.711C343.603 137.625 345.428 137.991 347.162 137.991ZM346.706 97.9601C348.349 97.9601 350.083 98.3257 351.452 99.1483L379.38 115.234C380.658 115.965 381.388 116.879 381.388 117.793C381.388 118.524 380.932 119.164 380.019 119.712L350.813 136.529C348.714 137.717 344.972 137.625 342.508 136.163L314.58 119.986C313.302 119.255 312.572 118.341 312.572 117.427C312.572 116.696 313.028 116.056 313.941 115.508L343.147 98.6913C344.059 98.2343 345.337 97.9601 346.706 97.9601Z" fill="#6ECCF3"/>
<path d="M346.615 141.647C348.349 141.647 349.992 141.281 351.269 140.55L405.3 109.293C406.487 108.562 407.217 107.556 407.217 106.46C407.217 105.18 406.213 103.809 404.57 102.895L352 72.5524C348.805 70.7245 344.059 70.5417 341.321 72.0954L287.291 103.352C286.104 104.083 285.374 105.089 285.374 106.186C285.374 107.465 286.378 108.836 288.021 109.75L340.591 140.093C342.325 141.19 344.516 141.647 346.615 141.647ZM345.976 71.4556C347.984 71.4556 350.174 71.9126 351.817 72.9179L404.387 103.261C405.939 104.175 406.852 105.363 406.852 106.551C406.852 107.556 406.213 108.379 405.118 109.019L351.087 140.276C348.44 141.829 343.785 141.647 340.682 139.819L288.112 109.476C286.56 108.562 285.648 107.374 285.648 106.186C285.648 105.18 286.287 104.358 287.382 103.718L341.412 72.461C342.69 71.8212 344.333 71.4556 345.976 71.4556Z" fill="#FDF4FE"/>
<path opacity="0.3" d="M370.48 108.655C345.781 108.655 325.758 97.0751 325.758 82.7904C325.758 68.5058 345.781 56.9258 370.48 56.9258C395.179 56.9258 415.201 68.5058 415.201 82.7904C415.201 97.0751 395.179 108.655 370.48 108.655Z" fill="url(#paint27_radial_1678_4476)"/>
<path opacity="0.3" d="M307.558 105.357C295.304 105.357 285.371 99.6567 285.371 92.625C285.371 85.5933 295.304 79.8931 307.558 79.8931C319.812 79.8931 329.746 85.5933 329.746 92.625C329.746 99.6567 319.812 105.357 307.558 105.357Z" fill="url(#paint28_radial_1678_4476)"/>
<path opacity="0.3" d="M368.886 145.8C353.603 145.8 341.214 138.647 341.214 129.823C341.214 120.999 353.603 113.845 368.886 113.845C384.169 113.845 396.559 120.999 396.559 129.823C396.559 138.647 384.169 145.8 368.886 145.8Z" fill="url(#paint29_radial_1678_4476)"/>
<path opacity="0.3" d="M404.537 111.349C396.551 111.349 390.077 107.66 390.077 103.11C390.077 98.5605 396.551 94.8721 404.537 94.8721C412.522 94.8721 418.996 98.5605 418.996 103.11C418.996 107.66 412.522 111.349 404.537 111.349Z" fill="url(#paint30_radial_1678_4476)"/>
<path d="M364.031 82.7956C364.031 86.3599 366.86 89.1932 370.42 89.1932C373.979 89.1932 376.809 86.3599 376.809 82.7956C376.809 79.2312 373.979 76.3979 370.42 76.3979C366.86 76.3979 364.031 79.2312 364.031 82.7956Z" fill="url(#paint31_radial_1678_4476)"/>
<path d="M368.595 82.7952C368.595 83.8005 369.417 84.6231 370.421 84.6231C371.425 84.6231 372.246 83.8005 372.246 82.7952C372.246 81.7898 371.425 80.9673 370.421 80.9673C369.417 80.9673 368.595 81.7898 368.595 82.7952Z" fill="#C5B0FF"/>
<path d="M304.282 92.5792C304.282 94.3405 305.68 95.7405 307.439 95.7405C309.198 95.7405 310.596 94.3405 310.596 92.5792C310.596 90.818 309.198 89.418 307.439 89.418C305.68 89.418 304.282 90.818 304.282 92.5792Z" fill="url(#paint32_radial_1678_4476)"/>
<path d="M306.536 92.5795C306.536 93.0763 306.942 93.4827 307.438 93.4827C307.934 93.4827 308.34 93.0763 308.34 92.5795C308.34 92.0827 307.934 91.6763 307.438 91.6763C306.942 91.6763 306.536 92.0827 306.536 92.5795Z" fill="#C5B0FF"/>
<path d="M364.822 129.85C364.822 132.048 366.567 133.796 368.763 133.796C370.958 133.796 372.703 132.048 372.703 129.85C372.703 127.651 370.958 125.904 368.763 125.904C366.567 125.904 364.822 127.651 364.822 129.85Z" fill="url(#paint33_radial_1678_4476)"/>
<path d="M367.637 129.85C367.637 130.47 368.144 130.978 368.763 130.978C369.382 130.978 369.889 130.47 369.889 129.85C369.889 129.23 369.382 128.723 368.763 128.723C368.144 128.723 367.637 129.23 367.637 129.85Z" fill="#C5B0FF"/>
<path d="M402.401 103.022C402.401 104.169 403.312 105.082 404.458 105.082C405.605 105.082 406.516 104.169 406.516 103.022C406.516 101.874 405.605 100.961 404.458 100.961C403.312 100.961 402.401 101.874 402.401 103.022Z" fill="url(#paint34_radial_1678_4476)"/>
<path d="M403.871 103.022C403.871 103.345 404.136 103.61 404.459 103.61C404.782 103.61 405.047 103.345 405.047 103.022C405.047 102.698 404.782 102.433 404.459 102.433C404.136 102.433 403.871 102.698 403.871 103.022Z" fill="#C5B0FF"/>
<defs>
<radialGradient id="paint0_radial_1678_4476" cx="0" cy="0" r="1" gradientUnits="userSpaceOnUse" gradientTransform="translate(279.795 118.323) scale(244.819 130.889)">
<stop stop-color="#C742E8"/>
<stop offset="0.0759497" stop-color="#B83CCC"/>
<stop offset="0.2218" stop-color="#A031AA"/>
<stop offset="0.3636" stop-color="#80288E"/>
<stop offset="0.4979" stop-color="#612178"/>
<stop offset="0.6227" stop-color="#4B1C68"/>
<stop offset="0.7346" stop-color="#3D135F"/>
<stop offset="0.8226" stop-color="#300B4E"/>
<stop offset="0.973958" stop-color="#180626"/>
</radialGradient>
<radialGradient id="paint1_radial_1678_4476" cx="0" cy="0" r="1" gradientUnits="userSpaceOnUse" gradientTransform="translate(100.007 109.203) rotate(24.7039) scale(77.8558 59.1205)">
<stop stop-color="#E842E1"/>
<stop offset="0.0001" stop-color="#C742E8"/>
<stop offset="0.0225145" stop-color="#C33FD8"/>
<stop offset="0.098265" stop-color="#A836BA"/>
<stop offset="0.1786" stop-color="#902EA0"/>
<stop offset="0.2622" stop-color="#83278B"/>
<stop offset="0.35" stop-color="#772279"/>
<stop offset="0.4433" stop-color="#6A1D6C"/>
<stop offset="0.5449" stop-color="#581962"/>
<stop offset="0.6608" stop-color="#44105D"/>
<stop offset="0.8226" stop-color="#2F0D5B"/>
</radialGradient>
<linearGradient id="paint2_linear_1678_4476" x1="74.4223" y1="123.377" x2="152.014" y2="123.377" gradientUnits="userSpaceOnUse">
<stop stop-color="#751C7C"/>
<stop offset="0.1022" stop-color="#821584"/>
<stop offset="0.3445" stop-color="#5E166A"/>
<stop offset="0.564" stop-color="#591464"/>
<stop offset="0.7534" stop-color="#451257"/>
<stop offset="0.905" stop-color="#371056"/>
<stop offset="1" stop-color="#220943"/>
</linearGradient>
<linearGradient id="paint3_linear_1678_4476" x1="130.369" y1="123.375" x2="169.165" y2="123.375" gradientUnits="userSpaceOnUse">
<stop stop-color="#220539"/>
<stop offset="1" stop-color="#34054A"/>
</linearGradient>
<linearGradient id="paint4_linear_1678_4476" x1="91.5731" y1="114.81" x2="169.17" y2="114.81" gradientUnits="userSpaceOnUse">
<stop stop-color="#E842C3"/>
<stop offset="0.1022" stop-color="#CE3CBF"/>
<stop offset="0.3445" stop-color="#A32FA5"/>
<stop offset="0.564" stop-color="#782585"/>
<stop offset="0.7534" stop-color="#5E1E6E"/>
<stop offset="0.905" stop-color="#3B1660"/>
<stop offset="1" stop-color="#2F0D5B"/>
</linearGradient>
<linearGradient id="paint5_linear_1678_4476" x1="91.5731" y1="114.81" x2="131.177" y2="114.81" gradientUnits="userSpaceOnUse">
<stop stop-color="#E542E8"/>
<stop offset="0.1022" stop-color="#CB3CCE"/>
<stop offset="0.3445" stop-color="#A52F99"/>
<stop offset="0.564" stop-color="#85257B"/>
<stop offset="0.7534" stop-color="#5E1E6E"/>
<stop offset="0.905" stop-color="#3F1660"/>
<stop offset="1" stop-color="#340D5B"/>
</linearGradient>
<linearGradient id="paint6_linear_1678_4476" x1="102.127" y1="137.378" x2="167.059" y2="94.9183" gradientUnits="userSpaceOnUse">
<stop stop-color="#E542E8"/>
<stop offset="0.1022" stop-color="#CE3CC8"/>
<stop offset="0.3445" stop-color="#9C2FA5"/>
<stop offset="0.564" stop-color="#722585"/>
<stop offset="0.7534" stop-color="#541E6E"/>
<stop offset="0.905" stop-color="#3F1660"/>
<stop offset="1" stop-color="#340D5B"/>
</linearGradient>
<linearGradient id="paint7_linear_1678_4476" x1="74.4242" y1="99.9342" x2="152.016" y2="99.9342" gradientUnits="userSpaceOnUse">
<stop stop-color="#60136C"/>
<stop offset="0.1022" stop-color="#570E63"/>
<stop offset="0.3444" stop-color="#4A0C59"/>
<stop offset="0.564" stop-color="#3B0B4D"/>
<stop offset="0.7534" stop-color="#34114F"/>
<stop offset="0.905" stop-color="#220C3E"/>
<stop offset="1" stop-color="#1B0842"/>
</linearGradient>
<linearGradient id="paint8_linear_1678_4476" x1="130.371" y1="99.9327" x2="169.167" y2="99.9327" gradientUnits="userSpaceOnUse">
<stop stop-color="#220539"/>
<stop offset="1" stop-color="#34054A"/>
</linearGradient>
<linearGradient id="paint9_linear_1678_4476" x1="91.575" y1="91.3665" x2="169.172" y2="91.3665" gradientUnits="userSpaceOnUse">
<stop stop-color="#E842D7"/>
<stop offset="0.1022" stop-color="#CE3CBF"/>
<stop offset="0.3445" stop-color="#942FA5"/>
<stop offset="0.564" stop-color="#7D2585"/>
<stop offset="0.7534" stop-color="#591E6E"/>
<stop offset="0.905" stop-color="#3F1660"/>
<stop offset="1" stop-color="#340D5B"/>
</linearGradient>
<linearGradient id="paint10_linear_1678_4476" x1="91.575" y1="91.3675" x2="131.179" y2="91.3675" gradientUnits="userSpaceOnUse">
<stop stop-color="#E842D7"/>
<stop offset="0.1022" stop-color="#CE3CBF"/>
<stop offset="0.3445" stop-color="#A32FA5"/>
<stop offset="0.564" stop-color="#722585"/>
<stop offset="0.7533" stop-color="#5C2470"/>
<stop offset="0.905" stop-color="#3B1660"/>
<stop offset="1" stop-color="#340D5B"/>
</linearGradient>
<linearGradient id="paint11_linear_1678_4476" x1="102.129" y1="113.935" x2="167.061" y2="71.4757" gradientUnits="userSpaceOnUse">
<stop stop-color="#E842D7"/>
<stop offset="0.1022" stop-color="#CE3CBF"/>
<stop offset="0.3445" stop-color="#A52FA0"/>
<stop offset="0.564" stop-color="#832585"/>
<stop offset="0.7534" stop-color="#631E6E"/>
<stop offset="0.905" stop-color="#561660"/>
<stop offset="1" stop-color="#3D0D5B"/>
</linearGradient>
<radialGradient id="paint12_radial_1678_4476" cx="0" cy="0" r="1" gradientUnits="userSpaceOnUse" gradientTransform="translate(125.292 55.6043) rotate(150.026) scale(30.3077 26.2333)">
<stop stop-color="#DB42E8"/>
<stop offset="0.0225145" stop-color="#D53FD8"/>
<stop offset="0.098265" stop-color="#B736BA"/>
<stop offset="0.1786" stop-color="#972EA0"/>
<stop offset="0.2622" stop-color="#71278B"/>
<stop offset="0.35" stop-color="#682279"/>
<stop offset="0.4433" stop-color="#491D6C"/>
<stop offset="0.5449" stop-color="#421962"/>
<stop offset="0.6608" stop-color="#37105D"/>
<stop offset="0.8226" stop-color="#260D5B"/>
</radialGradient>
<radialGradient id="paint13_radial_1678_4476" cx="0" cy="0" r="1" gradientUnits="userSpaceOnUse" gradientTransform="translate(125.232 55.5891) rotate(180) scale(5.31821 5.31582)">
<stop stop-color="#B342E8"/>
<stop offset="0.0225145" stop-color="#C33FD8"/>
<stop offset="0.098265" stop-color="#A836BA"/>
<stop offset="0.1786" stop-color="#902EA0"/>
<stop offset="0.2622" stop-color="#77278B"/>
<stop offset="0.35" stop-color="#56176C"/>
<stop offset="0.4433" stop-color="#49155B"/>
<stop offset="0.5449" stop-color="#3C0E51"/>
<stop offset="0.6608" stop-color="#280B40"/>
<stop offset="0.8226" stop-color="#1D072F"/>
</radialGradient>
<radialGradient id="paint14_radial_1678_4476" cx="0" cy="0" r="1" gradientUnits="userSpaceOnUse" gradientTransform="translate(141.257 105.714) rotate(150.111) scale(22.9655 19.8443)">
<stop stop-color="#DB42E8"/>
<stop offset="0.0225145" stop-color="#D53FD8"/>
<stop offset="0.098265" stop-color="#B736BA"/>
<stop offset="0.1786" stop-color="#972EA0"/>
<stop offset="0.2622" stop-color="#71278B"/>
<stop offset="0.35" stop-color="#682279"/>
<stop offset="0.4433" stop-color="#491D6C"/>
<stop offset="0.5449" stop-color="#421962"/>
<stop offset="0.6608" stop-color="#37105D"/>
<stop offset="0.8226" stop-color="#260D5B"/>
</radialGradient>
<radialGradient id="paint15_radial_1678_4476" cx="0" cy="0" r="1" gradientUnits="userSpaceOnUse" gradientTransform="translate(141.115 105.702) rotate(180) scale(4.01958 4.01777)">
<stop stop-color="#B342E8"/>
<stop offset="0.0225145" stop-color="#C33FD8"/>
<stop offset="0.098265" stop-color="#A836BA"/>
<stop offset="0.1786" stop-color="#902EA0"/>
<stop offset="0.2622" stop-color="#77278B"/>
<stop offset="0.35" stop-color="#56176C"/>
<stop offset="0.4433" stop-color="#49155B"/>
<stop offset="0.5449" stop-color="#3C0E51"/>
<stop offset="0.6608" stop-color="#280B40"/>
<stop offset="0.8226" stop-color="#1D072F"/>
</radialGradient>
<radialGradient id="paint16_radial_1678_4476" cx="0" cy="0" r="1" gradientUnits="userSpaceOnUse" gradientTransform="translate(383.382 176.241) rotate(149.965) scale(98.6161 85.4644)">
<stop stop-color="#A942E8"/>
<stop offset="0.0225145" stop-color="#823FD8"/>
<stop offset="0.098265" stop-color="#7036BA"/>
<stop offset="0.1786" stop-color="#602EA0"/>
<stop offset="0.2622" stop-color="#4D278B"/>
<stop offset="0.35" stop-color="#392279"/>
<stop offset="0.4433" stop-color="#321D6C"/>
<stop offset="0.5449" stop-color="#231962"/>
<stop offset="0.6608" stop-color="#1B105D"/>
<stop offset="0.8226" stop-color="#180D5B"/>
</radialGradient>
<linearGradient id="paint17_linear_1678_4476" x1="414.559" y1="156.441" x2="320.786" y2="156.441" gradientUnits="userSpaceOnUse">
<stop stop-color="#3D87EE"/>
<stop offset="0.1022" stop-color="#465CDB"/>
<stop offset="0.3445" stop-color="#372FCE"/>
<stop offset="0.564" stop-color="#0903A4"/>
<stop offset="0.7534" stop-color="#0D05A7"/>
<stop offset="0.905" stop-color="#0B0598"/>
<stop offset="1" stop-color="#040344"/>
</linearGradient>
<linearGradient id="paint18_linear_1678_4476" x1="346.945" y1="156.438" x2="300.059" y2="156.438" gradientUnits="userSpaceOnUse">
<stop stop-color="#0A06A7"/>
<stop offset="1" stop-color="#060094"/>
</linearGradient>
<linearGradient id="paint19_linear_1678_4476" x1="393.831" y1="146.068" x2="300.052" y2="146.068" gradientUnits="userSpaceOnUse">
<stop stop-color="#FBF5FE"/>
<stop offset="0.1022" stop-color="#DFD3F3"/>
<stop offset="0.3445" stop-color="#E9C9FD"/>
<stop offset="0.564" stop-color="#E3B5F9"/>
<stop offset="0.7534" stop-color="#D88FFF"/>
<stop offset="0.905" stop-color="#BA68F3"/>
<stop offset="1" stop-color="#6B32D9"/>
</linearGradient>
<linearGradient id="paint20_linear_1678_4476" x1="393.831" y1="146.069" x2="345.968" y2="146.069" gradientUnits="userSpaceOnUse">
<stop stop-color="#FEF8FF"/>
<stop offset="0.1022" stop-color="#F3DBFF"/>
<stop offset="0.3445" stop-color="#EACBF3"/>
<stop offset="0.564" stop-color="#DFB2F5"/>
<stop offset="0.7534" stop-color="#D58BFF"/>
<stop offset="0.905" stop-color="#BE62F3"/>
<stop offset="1" stop-color="#752ADE"/>
</linearGradient>
<linearGradient id="paint21_linear_1678_4476" x1="381.076" y1="173.393" x2="302.518" y2="122.116" gradientUnits="userSpaceOnUse">
<stop stop-color="#FCF3FD"/>
<stop offset="0.1022" stop-color="#FCF0FF"/>
<stop offset="0.3445" stop-color="#E6CEFF"/>
<stop offset="0.564" stop-color="#DABDFB"/>
<stop offset="0.7534" stop-color="#CB8AF6"/>
<stop offset="0.905" stop-color="#C96AF5"/>
<stop offset="1" stop-color="#AC51F4"/>
</linearGradient>
<linearGradient id="paint22_linear_1678_4476" x1="414.559" y1="128.057" x2="320.786" y2="128.057" gradientUnits="userSpaceOnUse">
<stop stop-color="#46A0EE"/>
<stop offset="0.1022" stop-color="#355BD5"/>
<stop offset="0.3445" stop-color="#3931D1"/>
<stop offset="0.564" stop-color="#0C04A3"/>
<stop offset="0.7534" stop-color="#0D04A9"/>
<stop offset="0.905" stop-color="#060490"/>
<stop offset="1" stop-color="#01065B"/>
</linearGradient>
<linearGradient id="paint23_linear_1678_4476" x1="346.945" y1="128.055" x2="300.059" y2="128.055" gradientUnits="userSpaceOnUse">
<stop stop-color="#0A06A7"/>
<stop offset="1" stop-color="#020061"/>
</linearGradient>
<linearGradient id="paint24_linear_1678_4476" x1="393.831" y1="117.684" x2="300.052" y2="117.684" gradientUnits="userSpaceOnUse">
<stop stop-color="#740EC4"/>
<stop offset="0.1022" stop-color="#6B03AB"/>
<stop offset="0.3445" stop-color="#5C0095"/>
<stop offset="0.564" stop-color="#3B097B"/>
<stop offset="0.7534" stop-color="#370569"/>
<stop offset="0.905" stop-color="#2E0655"/>
<stop offset="1" stop-color="#200436"/>
</linearGradient>
<linearGradient id="paint25_linear_1678_4476" x1="393.831" y1="117.685" x2="345.968" y2="117.685" gradientUnits="userSpaceOnUse">
<stop stop-color="#FDF2FD"/>
<stop offset="0.1022" stop-color="#FAF5F7"/>
<stop offset="0.3445" stop-color="#F1DEFF"/>
<stop offset="0.564" stop-color="#E7CAFD"/>
<stop offset="0.7534" stop-color="#C391FD"/>
<stop offset="0.905" stop-color="#D38FFE"/>
<stop offset="1" stop-color="#B855F4"/>
</linearGradient>
<linearGradient id="paint26_linear_1678_4476" x1="381.076" y1="145.009" x2="302.518" y2="93.7328" gradientUnits="userSpaceOnUse">
<stop stop-color="#FDF4FE"/>
<stop offset="0.1022" stop-color="#E2C4FE"/>
<stop offset="0.3445" stop-color="#DDC3F3"/>
<stop offset="0.564" stop-color="#E1B3FE"/>
<stop offset="0.7534" stop-color="#C06DF0"/>
<stop offset="0.905" stop-color="#7941E3"/>
<stop offset="1" stop-color="#5A41DB"/>
</linearGradient>
<radialGradient id="paint27_radial_1678_4476" cx="0" cy="0" r="1" gradientUnits="userSpaceOnUse" gradientTransform="translate(370.476 82.7957) rotate(149.965) scale(36.4941 31.6271)">
<stop offset="0.0225145" stop-color="#703FD8"/>
<stop offset="0.098265" stop-color="#5836BA"/>
<stop offset="0.1786" stop-color="#4C2EA0"/>
<stop offset="0.2622" stop-color="#3B278B"/>
<stop offset="0.35" stop-color="#332279"/>
<stop offset="0.4433" stop-color="#2D1D6C"/>
<stop offset="0.5449" stop-color="#25175E"/>
<stop offset="0.6608" stop-color="#1B105D"/>
<stop offset="0.8226" stop-color="#0C0748"/>
</radialGradient>
<radialGradient id="paint28_radial_1678_4476" cx="0" cy="0" r="1" gradientUnits="userSpaceOnUse" gradientTransform="translate(307.556 92.6276) rotate(150.16) scale(18.0705 15.599)">
<stop offset="0.0225145" stop-color="#703FD8"/>
<stop offset="0.098265" stop-color="#5836BA"/>
<stop offset="0.1786" stop-color="#4C2EA0"/>
<stop offset="0.2622" stop-color="#3B278B"/>
<stop offset="0.35" stop-color="#332279"/>
<stop offset="0.4433" stop-color="#2D1D6C"/>
<stop offset="0.5449" stop-color="#25175E"/>
<stop offset="0.6608" stop-color="#1B105D"/>
<stop offset="0.8226" stop-color="#0C0748"/>
</radialGradient>
<radialGradient id="paint29_radial_1678_4476" cx="0" cy="0" r="1" gradientUnits="userSpaceOnUse" gradientTransform="translate(368.884 129.826) rotate(150.007) scale(22.572 19.5452)">
<stop offset="0.0225145" stop-color="#703FD8"/>
<stop offset="0.098265" stop-color="#5836BA"/>
<stop offset="0.1786" stop-color="#4C2EA0"/>
<stop offset="0.2622" stop-color="#3B278B"/>
<stop offset="0.35" stop-color="#332279"/>
<stop offset="0.4433" stop-color="#2D1D6C"/>
<stop offset="0.5449" stop-color="#25175E"/>
<stop offset="0.6608" stop-color="#1B105D"/>
<stop offset="0.8226" stop-color="#0C0748"/>
</radialGradient>
<radialGradient id="paint30_radial_1678_4476" cx="0" cy="0" r="1" gradientUnits="userSpaceOnUse" gradientTransform="translate(404.535 103.112) rotate(150.335) scale(11.7557 10.1112)">
<stop offset="0.0225145" stop-color="#703FD8"/>
<stop offset="0.098265" stop-color="#5836BA"/>
<stop offset="0.1786" stop-color="#4C2EA0"/>
<stop offset="0.2622" stop-color="#3B278B"/>
<stop offset="0.35" stop-color="#332279"/>
<stop offset="0.4433" stop-color="#2D1D6C"/>
<stop offset="0.5449" stop-color="#25175E"/>
<stop offset="0.6608" stop-color="#1B105D"/>
<stop offset="0.8226" stop-color="#0C0748"/>
</radialGradient>
<radialGradient id="paint31_radial_1678_4476" cx="0" cy="0" r="1" gradientUnits="userSpaceOnUse" gradientTransform="translate(370.432 82.7769) rotate(180) scale(6.40392 6.41279)">
<stop stop-color="#7742E8"/>
<stop offset="0.0225145" stop-color="#793FD8"/>
<stop offset="0.098265" stop-color="#7036BA"/>
<stop offset="0.1786" stop-color="#661AB3"/>
<stop offset="0.2622" stop-color="#481E7D"/>
<stop offset="0.35" stop-color="#3D0C6F"/>
<stop offset="0.4433" stop-color="#34155B"/>
<stop offset="0.5449" stop-color="#300E51"/>
<stop offset="0.6608" stop-color="#220B40"/>
<stop offset="0.8226" stop-color="#18072F"/>
</radialGradient>
<radialGradient id="paint32_radial_1678_4476" cx="0" cy="0" r="1" gradientUnits="userSpaceOnUse" gradientTransform="translate(307.445 92.57) rotate(180) scale(3.16438 3.16876)">
<stop stop-color="#7742E8"/>
<stop offset="0.0225145" stop-color="#793FD8"/>
<stop offset="0.098265" stop-color="#7036BA"/>
<stop offset="0.1786" stop-color="#661AB3"/>
<stop offset="0.2622" stop-color="#481E7D"/>
<stop offset="0.35" stop-color="#3D0C6F"/>
<stop offset="0.4433" stop-color="#34155B"/>
<stop offset="0.5449" stop-color="#300E51"/>
<stop offset="0.6608" stop-color="#220B40"/>
<stop offset="0.8226" stop-color="#18072F"/>
</radialGradient>
<radialGradient id="paint33_radial_1678_4476" cx="0" cy="0" r="1" gradientUnits="userSpaceOnUse" gradientTransform="translate(368.77 129.838) rotate(180) scale(3.94993 3.9554)">
<stop stop-color="#7742E8"/>
<stop offset="0.0225145" stop-color="#793FD8"/>
<stop offset="0.098265" stop-color="#7036BA"/>
<stop offset="0.1786" stop-color="#661AB3"/>
<stop offset="0.2622" stop-color="#481E7D"/>
<stop offset="0.35" stop-color="#3D0C6F"/>
<stop offset="0.4433" stop-color="#34155B"/>
<stop offset="0.5449" stop-color="#300E51"/>
<stop offset="0.6608" stop-color="#220B40"/>
<stop offset="0.8226" stop-color="#18072F"/>
</radialGradient>
<radialGradient id="paint34_radial_1678_4476" cx="0" cy="0" r="1" gradientUnits="userSpaceOnUse" gradientTransform="translate(404.462 103.016) rotate(180) scale(2.06218 2.06503)">
<stop stop-color="#7742E8"/>
<stop offset="0.0225145" stop-color="#793FD8"/>
<stop offset="0.098265" stop-color="#7036BA"/>
<stop offset="0.1786" stop-color="#661AB3"/>
<stop offset="0.2622" stop-color="#481E7D"/>
<stop offset="0.35" stop-color="#3D0C6F"/>
<stop offset="0.4433" stop-color="#34155B"/>
<stop offset="0.5449" stop-color="#300E51"/>
<stop offset="0.6608" stop-color="#220B40"/>
<stop offset="0.8226" stop-color="#18072F"/>
</radialGradient>
</defs>
</svg>
