<svg width="692" height="593" viewBox="0 0 692 593" fill="none" xmlns="http://www.w3.org/2000/svg">
<path opacity="0.5" d="M1017.62 254.035L986.888 236.322L673.508 417.083L567.231 355.77L951.16 133.981L920.427 116.269L536.347 337.906L433.704 278.712L500.316 240.258L525.447 225.876L817.784 57.0746L786.9 39.2104L494.563 208.012L134.252 0L103.52 17.7128L463.831 225.876L153.933 405.88L184.665 423.593L402.972 296.576L508.037 357.132L536.347 373.483L914.674 593L945.407 575.287L704.24 434.947L1017.62 254.035Z" fill="url(#paint0_radial_831_3916)"/>
<path opacity="0.3" d="M353.291 383.043C242.674 383.043 153 331.259 153 267.38C153 203.501 242.674 151.717 353.291 151.717C463.909 151.717 553.582 203.501 553.582 267.38C553.582 331.259 463.909 383.043 353.291 383.043Z" fill="url(#paint1_radial_831_3916)"/>
<path opacity="0.5" d="M300.991 303.346L360.034 269.283C364.576 266.709 363.97 262.168 358.823 259.14L302.203 226.439C297.055 223.411 289.183 223.109 284.641 225.682L225.599 259.745C221.057 262.319 221.662 266.861 226.81 269.889L283.581 302.589C288.729 305.617 296.601 305.92 300.991 303.346Z" fill="#170244"/>
<path d="M215.153 229.618V217.355H246.643L283.885 195.858C288.881 192.981 297.51 193.284 303.263 196.615L339.143 217.355H370.632V230.224C370.784 232.192 369.724 234.008 367.302 235.371L301.901 273.067C296.905 275.944 288.275 275.641 282.523 272.31L219.847 236.128C216.516 234.463 215.002 231.889 215.153 229.618Z" fill="#572A91"/>
<path opacity="0.5" d="M215.153 229.618V217.355H246.643L283.885 195.858C288.881 192.981 297.51 193.284 303.263 196.615L339.143 217.355H370.632V230.224C370.784 232.192 369.724 234.008 367.302 235.371L301.901 273.067C296.905 275.944 288.275 275.641 282.523 272.31L219.847 236.128C216.516 234.463 215.002 231.889 215.153 229.618Z" fill="url(#paint2_linear_831_3916)"/>
<path d="M283.884 195.858C286.307 194.495 289.486 193.89 292.816 193.89V275.187C289.183 275.035 285.398 274.127 282.37 272.462L219.694 236.279C216.364 234.311 214.85 231.889 215.001 229.618V217.355H246.491L283.884 195.858Z" fill="url(#paint3_linear_831_3916)"/>
<path d="M301.9 260.351L367.301 222.654C372.297 219.778 371.692 214.782 365.939 211.452L303.263 175.269C297.51 171.938 288.881 171.636 283.885 174.512L218.484 212.208C213.488 215.085 214.093 220.081 219.846 223.411L282.522 259.594C288.275 262.925 296.904 263.227 301.9 260.351Z" fill="#832A91"/>
<path opacity="0.5" d="M301.9 260.351L367.301 222.654C372.297 219.778 371.692 214.782 365.939 211.452L303.263 175.269C297.51 171.938 288.881 171.636 283.885 174.512L218.484 212.208C213.488 215.085 214.093 220.081 219.846 223.411L282.522 259.594C288.275 262.925 296.904 263.227 301.9 260.351Z" fill="url(#paint4_linear_831_3916)"/>
<path d="M300.084 252.024L352.768 221.594C356.704 219.323 356.25 215.236 351.708 212.51L301.295 183.443C296.602 180.718 289.638 180.416 285.701 182.838L233.017 213.267C229.081 215.538 229.535 219.626 234.077 222.351L284.49 251.418C289.183 253.992 296.147 254.295 300.084 252.024Z" fill="#FADAFF"/>
<path d="M351.708 216.598L301.294 187.531C296.601 184.806 289.637 184.503 285.701 186.925L233.017 217.355C231.957 217.96 231.351 218.566 230.897 219.323C229.686 217.203 230.443 214.932 233.017 213.419L285.701 182.837C289.637 180.567 296.753 180.869 301.294 183.443L351.708 212.51C355.19 214.478 356.401 217.355 355.038 219.474C354.433 218.566 353.373 217.506 351.708 216.598Z" fill="#E842E1"/>
<path opacity="0.5" d="M299.781 260.351L365.182 222.654C370.178 219.778 371.389 215.539 363.819 211.451L301.143 175.269C298.267 173.603 294.785 172.695 291.303 172.544C295.39 172.392 299.932 173.301 303.263 175.269L365.939 211.451C371.692 214.782 372.297 219.778 367.301 222.654L301.9 260.351C299.327 261.864 295.845 262.47 292.363 262.319C295.088 262.167 297.661 261.562 299.781 260.351Z" fill="url(#paint5_linear_831_3916)"/>
<path opacity="0.5" d="M219.847 228.86L282.523 265.043C288.275 268.374 296.905 268.676 301.901 265.8L367.302 228.103C369.724 226.741 370.784 224.924 370.632 222.956V225.681C370.784 227.649 369.724 229.466 367.302 230.829L301.901 268.525C296.905 271.401 288.275 271.099 282.523 267.768L219.847 231.586C216.516 229.617 215.002 227.195 215.153 224.924V222.199C215.002 224.47 216.516 226.892 219.847 228.86Z" fill="url(#paint6_linear_831_3916)"/>
<path d="M231.2 225.379C230.443 225.833 230.443 226.438 231.2 226.893C231.957 227.347 233.017 227.347 233.774 226.893C234.531 226.438 234.531 225.833 233.774 225.379C233.169 224.925 231.957 224.925 231.2 225.379Z" fill="#FD96FF"/>
<path d="M227.264 222.958C226.507 223.412 226.507 224.018 227.264 224.472C228.021 224.926 229.081 224.926 229.838 224.472C230.595 224.018 230.595 223.412 229.838 222.958C229.081 222.504 227.869 222.504 227.264 222.958Z" fill="#FD96FF"/>
<path d="M223.177 220.686C222.42 221.141 222.42 221.746 223.177 222.2C223.934 222.654 224.994 222.654 225.751 222.2C226.508 221.746 226.508 221.141 225.751 220.686C224.994 220.232 223.934 220.232 223.177 220.686Z" fill="#FD96FF"/>
<path opacity="0.5" d="M298.57 244.605L339.9 220.837C343.08 219.02 342.625 215.841 338.992 213.721L299.479 190.861C295.845 188.742 290.395 188.59 287.216 190.407L245.886 214.327C242.707 216.144 243.161 219.323 246.795 221.442L286.308 244.302C289.941 246.271 295.391 246.422 298.57 244.605Z" fill="#3B0244"/>
<path opacity="0.5" d="M292.969 172.543C296.602 172.694 300.387 173.603 303.415 175.268L316.888 183.14L370.784 183.443V217.506C370.935 219.474 369.875 221.291 367.453 222.654L302.052 260.35C299.63 261.713 296.451 262.318 293.12 262.318V172.543H292.969Z" fill="#E85CFF"/>
<path opacity="0.5" d="M215.153 217.356C215.153 217.053 215.153 216.902 215.153 216.599V182.536L269.351 182.839L283.885 174.361C288.881 171.484 297.51 171.787 303.263 175.118L316.737 182.99L370.632 183.293V217.356C370.784 219.324 369.724 221.141 367.302 222.503L301.901 260.2C296.905 263.076 288.275 262.773 282.523 259.443L219.847 223.26C216.819 221.746 215.305 219.475 215.153 217.356Z" fill="#FFD6F8"/>
<path d="M215.153 182.536V170.273H246.643L283.885 148.776C288.881 145.899 297.51 146.202 303.263 149.533L339.143 170.273H370.632V183.142C370.784 185.11 369.724 186.926 367.302 188.289L301.901 225.985C296.905 228.862 288.275 228.559 282.523 225.228L219.847 189.046C216.516 187.38 215.002 184.958 215.153 182.536Z" fill="#572A91"/>
<path opacity="0.5" d="M215.153 182.536V170.273H246.643L283.885 148.776C288.881 145.899 297.51 146.202 303.263 149.533L339.143 170.273H370.632V183.142C370.784 185.11 369.724 186.926 367.302 188.289L301.901 225.985C296.905 228.862 288.275 228.559 282.523 225.228L219.847 189.046C216.516 187.38 215.002 184.958 215.153 182.536Z" fill="url(#paint7_linear_831_3916)"/>
<path d="M283.885 148.927C286.308 147.565 289.487 146.959 292.817 146.959V228.256C289.184 228.105 285.399 227.196 282.371 225.531L219.695 189.349C216.365 187.38 214.851 184.958 215.002 182.687V170.425H246.492L283.885 148.927Z" fill="url(#paint8_linear_831_3916)"/>
<path d="M301.9 213.419L367.301 175.723C372.297 172.846 371.692 167.85 365.939 164.52L303.263 128.337C297.51 125.007 288.881 124.704 283.885 127.58L218.484 165.277C213.488 168.153 214.093 173.149 219.846 176.48L282.522 212.662C288.275 215.842 296.904 216.296 301.9 213.419Z" fill="#8F2A91"/>
<path opacity="0.5" d="M301.9 213.419L367.301 175.723C372.297 172.846 371.692 167.85 365.939 164.52L303.263 128.337C297.51 125.007 288.881 124.704 283.885 127.58L218.484 165.277C213.488 168.153 214.093 173.149 219.846 176.48L282.522 212.662C288.275 215.842 296.904 216.296 301.9 213.419Z" fill="url(#paint9_linear_831_3916)"/>
<path opacity="0.5" d="M299.781 213.419L365.182 175.722C370.178 172.846 371.389 168.607 363.819 164.52L301.143 128.337C298.267 126.672 294.785 125.763 291.303 125.612C295.39 125.461 299.932 126.369 303.263 128.337L365.939 164.368C371.692 167.699 372.297 172.695 367.301 175.571L301.9 213.268C299.327 214.781 295.845 215.387 292.363 215.236C295.088 215.084 297.661 214.479 299.781 213.419Z" fill="url(#paint10_linear_831_3916)"/>
<path opacity="0.5" d="M219.847 181.778L282.523 217.961C288.275 221.292 296.905 221.594 301.901 218.718L367.302 181.021C369.724 179.659 370.784 177.842 370.632 175.874V178.599C370.784 180.567 369.724 182.384 367.302 183.746L301.901 221.443C296.905 224.319 288.275 224.017 282.523 220.686L219.847 184.503C216.516 182.535 215.002 180.113 215.153 177.842V175.117C215.002 177.388 216.516 179.962 219.847 181.778Z" fill="url(#paint11_linear_831_3916)"/>
<path opacity="0.2" d="M298.116 173.15C296.753 173.907 296.753 175.269 298.116 176.026C299.479 176.783 301.749 176.783 302.961 176.026C304.323 175.269 304.323 173.907 302.961 173.15C301.598 172.393 299.479 172.393 298.116 173.15Z" fill="#FB26FF"/>
<path opacity="0.6" d="M290.395 168.759C289.033 169.516 289.033 170.879 290.395 171.636C291.758 172.393 294.029 172.393 295.24 171.636C296.602 170.879 296.602 169.516 295.24 168.759C294.029 167.851 291.758 167.851 290.395 168.759Z" fill="#FC6BFF"/>
<path d="M282.826 164.217C281.463 164.974 281.463 166.337 282.826 167.094C284.188 167.851 286.459 167.851 287.67 167.094C289.033 166.337 289.033 164.974 287.67 164.217C286.308 163.46 284.188 163.46 282.826 164.217Z" fill="#FD96FF"/>
<path opacity="0.5" d="M293.271 204.033C295.693 204.033 297.964 203.579 299.781 202.519L348.226 174.663C350.043 173.603 350.951 172.241 350.951 170.575C350.951 168.759 349.589 166.791 347.166 165.428L300.841 138.632C296.45 136.058 289.789 135.907 286.004 138.026L237.559 165.882C235.742 166.942 234.834 168.304 234.834 169.97C234.834 171.786 236.196 173.755 238.619 175.117L284.945 201.913C287.367 203.427 290.395 204.033 293.271 204.033ZM292.514 137.723C295.239 137.723 298.116 138.329 300.386 139.692L346.712 166.336C348.832 167.548 350.043 169.061 350.043 170.575C350.043 171.786 349.286 172.846 347.772 173.755L299.327 201.611C295.845 203.579 289.638 203.427 285.55 201.005L239.224 174.209C237.105 172.998 235.894 171.484 235.894 169.97C235.894 168.759 236.651 167.699 238.165 166.791L286.61 138.935C288.124 138.178 290.243 137.723 292.514 137.723Z" fill="#370244"/>
<path d="M292.363 210.088C295.239 210.088 297.964 209.483 300.084 208.272L389.707 156.496C391.676 155.285 392.887 153.619 392.887 151.803C392.887 149.683 391.221 147.412 388.496 145.898L301.295 95.6365C295.996 92.6087 288.124 92.3059 283.582 94.8795L193.958 146.655C191.99 147.867 190.779 149.532 190.779 151.349C190.779 153.468 192.445 155.739 195.17 157.253L282.371 207.515C285.247 209.331 288.881 210.088 292.363 210.088ZM291.303 93.8198C294.634 93.8198 298.267 94.5767 300.992 96.242L388.194 146.504C390.767 148.018 392.281 149.986 392.281 151.954C392.281 153.619 391.221 154.982 389.405 156.042L299.781 207.817C295.391 210.391 287.67 210.088 282.522 207.061L195.321 156.799C192.747 155.285 191.233 153.317 191.233 151.349C191.233 149.683 192.293 148.321 194.11 147.261L283.734 95.4851C285.853 94.4253 288.578 93.8198 291.303 93.8198Z" fill="#FDF4FE"/>
<path opacity="0.3" d="M303.082 141.662C344.227 141.662 377.582 122.41 377.582 98.6621C377.582 74.9139 344.227 55.6621 303.082 55.6621C261.937 55.6621 228.582 74.9139 228.582 98.6621C228.582 122.41 261.937 141.662 303.082 141.662Z" fill="url(#paint12_radial_831_3916)"/>
<path d="M313.865 98.6712C313.865 104.597 309.155 109.307 303.229 109.307C297.303 109.307 292.593 104.597 292.593 98.6712C292.593 92.7454 297.303 88.0352 303.229 88.0352C309.155 88.0352 313.865 92.7454 313.865 98.6712Z" fill="url(#paint13_radial_831_3916)"/>
<path d="M306.268 98.6707C306.268 100.342 304.901 101.71 303.229 101.71C301.558 101.71 300.19 100.342 300.19 98.6707C300.19 96.9993 301.558 95.6318 303.229 95.6318C304.901 95.6318 306.268 96.9993 306.268 98.6707Z" fill="#E0B0FF"/>
<path opacity="0.3" d="M271.082 231.662C302.286 231.662 327.582 217.111 327.582 199.162C327.582 181.213 302.286 166.662 271.082 166.662C239.878 166.662 214.582 181.213 214.582 199.162C214.582 217.111 239.878 231.662 271.082 231.662Z" fill="url(#paint14_radial_831_3916)"/>
<path d="M279.424 199.169C279.424 203.648 275.864 207.208 271.386 207.208C266.907 207.208 263.347 203.648 263.347 199.169C263.347 194.69 266.907 191.13 271.386 191.13C275.864 191.13 279.424 194.69 279.424 199.169Z" fill="url(#paint15_radial_831_3916)"/>
<path d="M273.682 199.169C273.682 200.432 272.648 201.466 271.385 201.466C270.121 201.466 269.088 200.432 269.088 199.169C269.088 197.906 270.121 196.872 271.385 196.872C272.648 196.872 273.682 197.906 273.682 199.169Z" fill="#E0B0FF"/>
<defs>
<radialGradient id="paint0_radial_831_3916" cx="0" cy="0" r="1" gradientUnits="userSpaceOnUse" gradientTransform="translate(180.5 249.5) scale(517 347.166)">
<stop stop-color="#C742E8"/>
<stop offset="0.0759497" stop-color="#B83CCC"/>
<stop offset="0.2218" stop-color="#A031AA"/>
<stop offset="0.3636" stop-color="#80288E"/>
<stop offset="0.4979" stop-color="#612178"/>
<stop offset="0.6227" stop-color="#4B1C68"/>
<stop offset="0.7346" stop-color="#3D135F"/>
<stop offset="0.8226" stop-color="#300B4E"/>
<stop offset="0.973958" stop-color="#180626"/>
</radialGradient>
<radialGradient id="paint1_radial_831_3916" cx="0" cy="0" r="1" gradientUnits="userSpaceOnUse" gradientTransform="translate(353.351 267.393) rotate(149.999) scale(163.523 141.617)">
<stop stop-color="#E842E1"/>
<stop offset="0.0001" stop-color="#C742E8"/>
<stop offset="0.0225145" stop-color="#C33FD8"/>
<stop offset="0.098265" stop-color="#A836BA"/>
<stop offset="0.1786" stop-color="#902EA0"/>
<stop offset="0.2622" stop-color="#83278B"/>
<stop offset="0.35" stop-color="#772279"/>
<stop offset="0.4433" stop-color="#6A1D6C"/>
<stop offset="0.5449" stop-color="#581962"/>
<stop offset="0.6608" stop-color="#44105D"/>
<stop offset="0.8226" stop-color="#2F0D5B"/>
</radialGradient>
<linearGradient id="paint2_linear_831_3916" x1="405.066" y1="234.594" x2="249.52" y2="234.594" gradientUnits="userSpaceOnUse">
<stop stop-color="#751C7C"/>
<stop offset="0.1022" stop-color="#821584"/>
<stop offset="0.3445" stop-color="#5E166A"/>
<stop offset="0.564" stop-color="#591464"/>
<stop offset="0.7534" stop-color="#451257"/>
<stop offset="0.905" stop-color="#371056"/>
<stop offset="1" stop-color="#220943"/>
</linearGradient>
<linearGradient id="paint3_linear_831_3916" x1="292.91" y1="234.591" x2="215.137" y2="234.591" gradientUnits="userSpaceOnUse">
<stop stop-color="#220539"/>
<stop offset="1" stop-color="#34054A"/>
</linearGradient>
<linearGradient id="paint4_linear_831_3916" x1="370.683" y1="217.411" x2="215.126" y2="217.411" gradientUnits="userSpaceOnUse">
<stop stop-color="#E842C3"/>
<stop offset="0.1022" stop-color="#CE3CBF"/>
<stop offset="0.3445" stop-color="#A32FA5"/>
<stop offset="0.564" stop-color="#782585"/>
<stop offset="0.7534" stop-color="#5E1E6E"/>
<stop offset="0.905" stop-color="#3B1660"/>
<stop offset="1" stop-color="#2F0D5B"/>
</linearGradient>
<linearGradient id="paint5_linear_831_3916" x1="370.683" y1="217.413" x2="291.29" y2="217.413" gradientUnits="userSpaceOnUse">
<stop stop-color="#E542E8"/>
<stop offset="0.1022" stop-color="#CB3CCE"/>
<stop offset="0.3445" stop-color="#A52F99"/>
<stop offset="0.564" stop-color="#85257B"/>
<stop offset="0.7534" stop-color="#5E1E6E"/>
<stop offset="0.905" stop-color="#3F1660"/>
<stop offset="1" stop-color="#340D5B"/>
</linearGradient>
<linearGradient id="paint6_linear_831_3916" x1="349.526" y1="262.674" x2="219.326" y2="177.572" gradientUnits="userSpaceOnUse">
<stop stop-color="#E542E8"/>
<stop offset="0.1022" stop-color="#CE3CC8"/>
<stop offset="0.3445" stop-color="#9C2FA5"/>
<stop offset="0.564" stop-color="#722585"/>
<stop offset="0.7534" stop-color="#541E6E"/>
<stop offset="0.905" stop-color="#3F1660"/>
<stop offset="1" stop-color="#340D5B"/>
</linearGradient>
<linearGradient id="paint7_linear_831_3916" x1="405.066" y1="187.578" x2="249.52" y2="187.578" gradientUnits="userSpaceOnUse">
<stop stop-color="#60136C"/>
<stop offset="0.1022" stop-color="#570E63"/>
<stop offset="0.3444" stop-color="#4A0C59"/>
<stop offset="0.564" stop-color="#3B0B4D"/>
<stop offset="0.7534" stop-color="#34114F"/>
<stop offset="0.905" stop-color="#220C3E"/>
<stop offset="1" stop-color="#1B0842"/>
</linearGradient>
<linearGradient id="paint8_linear_831_3916" x1="292.911" y1="187.575" x2="215.138" y2="187.575" gradientUnits="userSpaceOnUse">
<stop stop-color="#220539"/>
<stop offset="1" stop-color="#34054A"/>
</linearGradient>
<linearGradient id="paint9_linear_831_3916" x1="370.683" y1="170.394" x2="215.126" y2="170.394" gradientUnits="userSpaceOnUse">
<stop stop-color="#E842D7"/>
<stop offset="0.1022" stop-color="#CE3CBF"/>
<stop offset="0.3445" stop-color="#942FA5"/>
<stop offset="0.564" stop-color="#7D2585"/>
<stop offset="0.7534" stop-color="#591E6E"/>
<stop offset="0.905" stop-color="#3F1660"/>
<stop offset="1" stop-color="#340D5B"/>
</linearGradient>
<linearGradient id="paint10_linear_831_3916" x1="370.683" y1="170.397" x2="291.29" y2="170.397" gradientUnits="userSpaceOnUse">
<stop stop-color="#E842D7"/>
<stop offset="0.1022" stop-color="#CE3CBF"/>
<stop offset="0.3445" stop-color="#A32FA5"/>
<stop offset="0.564" stop-color="#722585"/>
<stop offset="0.7533" stop-color="#5C2470"/>
<stop offset="0.905" stop-color="#3B1660"/>
<stop offset="1" stop-color="#340D5B"/>
</linearGradient>
<linearGradient id="paint11_linear_831_3916" x1="349.526" y1="215.658" x2="219.326" y2="130.556" gradientUnits="userSpaceOnUse">
<stop stop-color="#E842D7"/>
<stop offset="0.1022" stop-color="#CE3CBF"/>
<stop offset="0.3445" stop-color="#A52FA0"/>
<stop offset="0.564" stop-color="#832585"/>
<stop offset="0.7534" stop-color="#631E6E"/>
<stop offset="0.905" stop-color="#561660"/>
<stop offset="1" stop-color="#3D0D5B"/>
</linearGradient>
<radialGradient id="paint12_radial_831_3916" cx="0" cy="0" r="1" gradientUnits="userSpaceOnUse" gradientTransform="translate(303.089 98.6709) rotate(29.9848) scale(60.7636 52.6067)">
<stop stop-color="#DB42E8"/>
<stop offset="0.0225145" stop-color="#D53FD8"/>
<stop offset="0.098265" stop-color="#B736BA"/>
<stop offset="0.1786" stop-color="#972EA0"/>
<stop offset="0.2622" stop-color="#71278B"/>
<stop offset="0.35" stop-color="#682279"/>
<stop offset="0.4433" stop-color="#491D6C"/>
<stop offset="0.5449" stop-color="#421962"/>
<stop offset="0.6608" stop-color="#37105D"/>
<stop offset="0.8226" stop-color="#260D5B"/>
</radialGradient>
<radialGradient id="paint13_radial_831_3916" cx="0" cy="0" r="1" gradientUnits="userSpaceOnUse" gradientTransform="translate(303.209 98.6402) scale(10.6612)">
<stop stop-color="#B342E8"/>
<stop offset="0.0225145" stop-color="#C33FD8"/>
<stop offset="0.098265" stop-color="#A836BA"/>
<stop offset="0.1786" stop-color="#902EA0"/>
<stop offset="0.2622" stop-color="#77278B"/>
<stop offset="0.35" stop-color="#56176C"/>
<stop offset="0.4433" stop-color="#49155B"/>
<stop offset="0.5449" stop-color="#3C0E51"/>
<stop offset="0.6608" stop-color="#280B40"/>
<stop offset="0.8226" stop-color="#1D072F"/>
</radialGradient>
<radialGradient id="paint14_radial_831_3916" cx="0" cy="0" r="1" gradientUnits="userSpaceOnUse" gradientTransform="translate(271.087 199.169) rotate(29.9005) scale(46.0434 39.7946)">
<stop stop-color="#DB42E8"/>
<stop offset="0.0225145" stop-color="#D53FD8"/>
<stop offset="0.098265" stop-color="#B736BA"/>
<stop offset="0.1786" stop-color="#972EA0"/>
<stop offset="0.2622" stop-color="#71278B"/>
<stop offset="0.35" stop-color="#682279"/>
<stop offset="0.4433" stop-color="#491D6C"/>
<stop offset="0.5449" stop-color="#421962"/>
<stop offset="0.6608" stop-color="#37105D"/>
<stop offset="0.8226" stop-color="#260D5B"/>
</radialGradient>
<radialGradient id="paint15_radial_831_3916" cx="0" cy="0" r="1" gradientUnits="userSpaceOnUse" gradientTransform="translate(271.37 199.145) scale(8.05792)">
<stop stop-color="#B342E8"/>
<stop offset="0.0225145" stop-color="#C33FD8"/>
<stop offset="0.098265" stop-color="#A836BA"/>
<stop offset="0.1786" stop-color="#902EA0"/>
<stop offset="0.2622" stop-color="#77278B"/>
<stop offset="0.35" stop-color="#56176C"/>
<stop offset="0.4433" stop-color="#49155B"/>
<stop offset="0.5449" stop-color="#3C0E51"/>
<stop offset="0.6608" stop-color="#280B40"/>
<stop offset="0.8226" stop-color="#1D072F"/>
</radialGradient>
</defs>
</svg>
