<svg width="692" height="554" viewBox="0 0 692 554" fill="none" xmlns="http://www.w3.org/2000/svg">
<path opacity="0.5" d="M691.621 215.035L660.888 197.322L347.508 378.083L241.232 316.77L625.16 94.9815L594.428 77.2687L210.348 298.906L107.704 239.712L174.317 201.258L199.448 186.876L491.784 18.0746L460.901 0.210449L168.564 169.012L72.5 99.5L41 118.5L137.831 186.876L0.5 262L29.5 283L76.972 257.576L182.038 318.132L210.348 334.483L588.675 554L619.407 536.287L378.241 395.947L691.621 215.035Z" fill="url(#paint0_radial_1335_3836)"/>
<path opacity="0.3" d="M441.499 447.801C307.75 447.801 199.326 385.189 199.326 307.952C199.326 230.716 307.75 168.104 441.499 168.104C575.247 168.104 683.672 230.716 683.672 307.952C683.672 385.189 575.247 447.801 441.499 447.801Z" fill="url(#paint1_radial_1335_3836)"/>
<path opacity="0.5" d="M378.264 351.44L449.653 310.254C455.144 307.143 454.412 301.651 448.189 297.99L379.729 258.452C373.505 254.791 363.986 254.425 358.495 257.537L287.106 298.722C281.615 301.834 282.347 307.326 288.571 310.987L357.214 350.525C363.437 354.186 372.956 354.552 378.264 351.44Z" fill="#0B0244"/>
<path d="M274.476 262.295V247.468H312.55L357.58 221.475C363.62 217.997 374.054 218.363 381.01 222.391L424.392 247.468H462.466V263.027C462.65 265.407 461.368 267.603 458.439 269.251L379.363 314.83C373.322 318.308 362.888 317.942 355.932 313.915L280.15 270.166C276.123 268.153 274.293 265.041 274.476 262.295Z" fill="#312A91"/>
<path opacity="0.5" d="M274.476 262.295V247.468H312.55L357.58 221.475C363.62 217.997 374.054 218.363 381.01 222.391L424.392 247.468H462.466V263.027C462.65 265.407 461.368 267.603 458.439 269.251L379.363 314.83C373.322 318.308 362.888 317.942 355.932 313.915L280.15 270.166C276.123 268.153 274.293 265.041 274.476 262.295Z" fill="url(#paint2_linear_1335_3836)"/>
<path d="M357.58 221.476C360.509 219.828 364.353 219.096 368.38 219.096V317.393C363.986 317.21 359.41 316.112 355.749 314.098L279.967 270.349C275.94 267.97 274.11 265.041 274.293 262.295V247.468H312.367L357.58 221.476Z" fill="url(#paint3_linear_1335_3836)"/>
<path d="M379.363 299.455L458.439 253.876C464.48 250.398 463.748 244.357 456.792 240.33L381.01 196.582C374.054 192.554 363.62 192.188 357.58 195.666L278.503 241.245C272.462 244.723 273.195 250.764 280.15 254.791L355.932 298.539C362.888 302.567 373.322 302.933 379.363 299.455Z" fill="#2A27C7"/>
<path opacity="0.5" d="M379.363 299.455L458.439 253.876C464.48 250.398 463.748 244.357 456.792 240.33L381.01 196.582C374.054 192.554 363.62 192.188 357.58 195.666L278.503 241.245C272.462 244.723 273.195 250.764 280.15 254.791L355.932 298.539C362.888 302.567 373.322 302.933 379.363 299.455Z" fill="url(#paint4_linear_1335_3836)"/>
<path d="M377.166 289.386L440.867 252.593C445.626 249.848 445.077 244.905 439.585 241.611L378.63 206.465C372.956 203.17 364.536 202.804 359.776 205.733L296.076 242.526C291.316 245.272 291.865 250.214 297.357 253.509L358.312 288.654C363.986 291.766 372.407 292.132 377.166 289.386Z" fill="#FDF4FE"/>
<path d="M439.585 246.553L378.63 211.408C372.956 208.113 364.536 207.747 359.776 210.676L296.076 247.468C294.794 248.201 294.062 248.933 293.513 249.848C292.049 247.285 292.964 244.54 296.076 242.709L359.776 205.733C364.536 202.988 373.139 203.354 378.63 206.466L439.585 241.611C443.796 243.991 445.26 247.468 443.612 250.031C442.88 248.933 441.599 247.651 439.585 246.553Z" fill="#BA56FC"/>
<path opacity="0.5" d="M376.8 299.454L455.877 253.875C461.917 250.398 463.382 245.272 454.229 240.33L378.447 196.581C374.969 194.568 370.759 193.47 366.549 193.286C371.491 193.103 376.983 194.202 381.01 196.581L456.792 240.33C463.748 244.357 464.48 250.398 458.439 253.875L379.363 299.454C376.251 301.285 372.041 302.017 367.83 301.834C371.125 301.651 374.237 300.919 376.8 299.454Z" fill="url(#paint5_linear_1335_3836)"/>
<path opacity="0.5" d="M280.15 261.379L355.932 305.128C362.888 309.155 373.322 309.521 379.363 306.043L458.439 260.464C461.368 258.817 462.65 256.62 462.466 254.241V257.535C462.65 259.915 461.368 262.112 458.439 263.759L379.363 309.338C373.322 312.816 362.888 312.45 355.932 308.423L280.15 264.674C276.123 262.295 274.293 259.366 274.476 256.62V253.325C274.293 256.071 276.123 259 280.15 261.379Z" fill="url(#paint6_linear_1335_3836)"/>
<path d="M293.879 257.17C292.964 257.719 292.964 258.451 293.879 259.001C294.794 259.55 296.076 259.55 296.991 259.001C297.906 258.451 297.906 257.719 296.991 257.17C296.259 256.621 294.794 256.621 293.879 257.17Z" fill="#FCF3FD"/>
<path d="M289.12 254.242C288.204 254.791 288.204 255.523 289.12 256.072C290.035 256.621 291.316 256.621 292.232 256.072C293.147 255.523 293.147 254.791 292.232 254.242C291.316 253.692 289.852 253.692 289.12 254.242Z" fill="#FCF3FD"/>
<path d="M284.177 251.496C283.262 252.045 283.262 252.777 284.177 253.326C285.093 253.875 286.374 253.875 287.289 253.326C288.204 252.777 288.204 252.045 287.289 251.496C286.374 250.946 285.093 250.946 284.177 251.496Z" fill="#FCF3FD"/>
<path opacity="0.5" d="M375.336 280.417L425.308 251.679C429.152 249.482 428.603 245.638 424.209 243.076L376.434 215.435C372.041 212.873 365.451 212.689 361.607 214.886L311.635 243.808C307.791 246.004 308.34 249.848 312.733 252.411L360.509 280.051C364.902 282.431 371.491 282.614 375.336 280.417Z" fill="#0B0244"/>
<path opacity="0.5" d="M368.563 193.286C372.956 193.469 377.532 194.568 381.193 196.581L397.484 206.1L462.65 206.466V247.652C462.833 250.031 461.551 252.228 458.622 253.875L379.546 299.454C376.617 301.102 372.773 301.834 368.746 301.834V193.286H368.563Z" fill="#FFFEFF"/>
<path opacity="0.5" d="M274.476 247.469C274.476 247.103 274.476 246.92 274.476 246.554V205.368L340.007 205.734L357.58 195.483C363.62 192.005 374.054 192.371 381.01 196.398L397.301 205.917L462.467 206.283V247.469C462.65 249.849 461.368 252.045 458.439 253.693L379.363 299.272C373.322 302.749 362.888 302.383 355.932 298.356L280.15 254.608C276.489 252.777 274.659 250.032 274.476 247.469Z" fill="#EFCDFF"/>
<path d="M274.476 205.368V190.541H312.55L357.58 164.548C363.62 161.07 374.054 161.436 381.01 165.463L424.392 190.541H462.467V206.1C462.65 208.48 461.368 210.676 458.439 212.324L379.363 257.903C373.322 261.381 362.888 261.015 355.932 256.988L280.15 213.239C276.123 211.225 274.293 208.297 274.476 205.368Z" fill="#0C04A6"/>
<path opacity="0.5" d="M274.476 205.368V190.541H312.55L357.58 164.548C363.62 161.07 374.054 161.436 381.01 165.463L424.392 190.541H462.467V206.1C462.65 208.48 461.368 210.676 458.439 212.324L379.363 257.903C373.322 261.381 362.888 261.015 355.932 256.988L280.15 213.239C276.123 211.225 274.293 208.297 274.476 205.368Z" fill="url(#paint7_linear_1335_3836)"/>
<path d="M357.58 164.731C360.509 163.084 364.353 162.352 368.38 162.352V260.648C363.987 260.465 359.41 259.367 355.749 257.354L279.967 213.605C275.94 211.225 274.11 208.297 274.293 205.551V190.724H312.367L357.58 164.731Z" fill="url(#paint8_linear_1335_3836)"/>
<path d="M379.363 242.71L458.439 197.131C464.48 193.653 463.748 187.612 456.792 183.585L381.01 139.836C374.054 135.809 363.62 135.443 357.58 138.921L278.503 184.5C272.462 187.978 273.195 194.019 280.15 198.046L355.932 241.794C362.888 245.638 373.322 246.187 379.363 242.71Z" fill="#0C04A6"/>
<path opacity="0.5" d="M379.363 242.71L458.439 197.131C464.48 193.653 463.748 187.612 456.792 183.585L381.01 139.836C374.054 135.809 363.62 135.443 357.58 138.921L278.503 184.5C272.462 187.978 273.195 194.019 280.15 198.046L355.932 241.794C362.888 245.638 373.322 246.187 379.363 242.71Z" fill="url(#paint9_linear_1335_3836)"/>
<path opacity="0.5" d="M376.8 242.709L455.877 197.13C461.917 193.652 463.382 188.527 454.229 183.585L378.447 139.836C374.969 137.822 370.759 136.724 366.549 136.541C371.491 136.358 376.983 137.456 381.01 139.836L456.792 183.401C463.748 187.429 464.48 193.469 458.439 196.947L379.363 242.526C376.251 244.357 372.041 245.089 367.83 244.906C371.125 244.723 374.237 243.99 376.8 242.709Z" fill="url(#paint10_linear_1335_3836)"/>
<path opacity="0.5" d="M280.15 204.452L355.932 248.201C362.888 252.228 373.322 252.594 379.363 249.116L458.439 203.537C461.368 201.89 462.65 199.693 462.467 197.314V200.608C462.65 202.988 461.368 205.185 458.439 206.832L379.363 252.411C373.322 255.889 362.888 255.523 355.932 251.496L280.15 207.747C276.123 205.368 274.293 202.439 274.476 199.693V196.398C274.293 199.144 276.123 202.256 280.15 204.452Z" fill="url(#paint11_linear_1335_3836)"/>
<path opacity="0.2" d="M374.786 194.018C373.139 194.933 373.139 196.581 374.786 197.496C376.434 198.411 379.18 198.411 380.644 197.496C382.291 196.581 382.291 194.933 380.644 194.018C378.997 193.103 376.434 193.103 374.786 194.018Z" fill="#9448F4"/>
<path opacity="0.6" d="M365.451 188.71C363.804 189.625 363.804 191.273 365.451 192.188C367.098 193.103 369.844 193.103 371.309 192.188C372.956 191.273 372.956 189.625 371.309 188.71C369.844 187.612 367.098 187.612 365.451 188.71Z" fill="#E5B3FE"/>
<path d="M356.299 183.219C354.651 184.134 354.651 185.781 356.299 186.697C357.946 187.612 360.692 187.612 362.156 186.697C363.804 185.781 363.804 184.134 362.156 183.219C360.509 182.303 357.946 182.303 356.299 183.219Z" fill="#FCF3FD"/>
<path opacity="0.5" d="M368.929 231.361C371.858 231.361 374.603 230.812 376.8 229.53L435.375 195.849C437.572 194.568 438.67 192.921 438.67 190.907C438.67 188.711 437.023 186.331 434.094 184.684L378.081 152.284C372.773 149.172 364.719 148.989 360.142 151.552L301.567 185.233C299.37 186.514 298.272 188.161 298.272 190.175C298.272 192.372 299.92 194.751 302.848 196.399L358.861 228.798C361.79 230.629 365.451 231.361 368.929 231.361ZM368.014 151.186C371.308 151.186 374.786 151.918 377.532 153.565L433.545 185.782C436.107 187.246 437.572 189.077 437.572 190.907C437.572 192.372 436.657 193.653 434.826 194.751L376.251 228.432C372.041 230.812 364.536 230.629 359.593 227.7L303.581 195.3C301.018 193.836 299.553 192.005 299.553 190.175C299.553 188.711 300.469 187.429 302.299 186.331L360.875 152.65C362.705 151.735 365.268 151.186 368.014 151.186Z" fill="#6ECCF3"/>
<path d="M367.83 238.682C371.308 238.682 374.603 237.95 377.166 236.486L485.53 173.883C487.91 172.419 489.375 170.405 489.375 168.209C489.375 165.646 487.361 162.9 484.066 161.07L378.63 100.298C372.224 96.6367 362.705 96.2706 357.214 99.3825L248.849 161.985C246.469 163.449 245.005 165.463 245.005 167.659C245.005 170.222 247.019 172.968 250.313 174.798L355.749 235.57C359.227 237.767 363.62 238.682 367.83 238.682ZM366.549 98.1011C370.576 98.1011 374.969 99.0164 378.264 101.03L483.7 161.802C486.812 163.632 488.642 166.012 488.642 168.392C488.642 170.405 487.361 172.053 485.164 173.334L376.8 235.936C371.491 239.048 362.156 238.682 355.932 235.021L250.497 174.249C247.385 172.419 245.554 170.039 245.554 167.659C245.554 165.646 246.836 163.999 249.032 162.717L357.397 100.115C359.959 98.8333 363.254 98.1011 366.549 98.1011Z" fill="#FDF4FE"/>
<path opacity="0.3" d="M415.694 172.605C366.157 172.605 326 149.412 326 120.803C326 92.1928 366.157 69 415.694 69C465.23 69 505.387 92.1928 505.387 120.803C505.387 149.412 465.23 172.605 415.694 172.605Z" fill="url(#paint12_radial_1335_3836)"/>
<path opacity="0.3" d="M289.5 166C264.923 166 245 154.583 245 140.5C245 126.417 264.923 115 289.5 115C314.077 115 334 126.417 334 140.5C334 154.583 314.077 166 289.5 166Z" fill="url(#paint13_radial_1335_3836)"/>
<path opacity="0.3" d="M412.5 247C381.848 247 357 232.673 357 215C357 197.327 381.848 183 412.5 183C443.152 183 468 197.327 468 215C468 232.673 443.152 247 412.5 247Z" fill="url(#paint14_radial_1335_3836)"/>
<path opacity="0.3" d="M484 178C467.984 178 455 170.613 455 161.5C455 152.387 467.984 145 484 145C500.016 145 513 152.387 513 161.5C513 170.613 500.016 178 484 178Z" fill="url(#paint15_radial_1335_3836)"/>
<path d="M402.761 120.813C402.761 127.952 408.435 133.627 415.574 133.627C422.713 133.627 428.387 127.952 428.387 120.813C428.387 113.674 422.713 108 415.574 108C408.435 108 402.761 113.674 402.761 120.813Z" fill="url(#paint16_radial_1335_3836)"/>
<path d="M411.913 120.813C411.913 122.827 413.56 124.474 415.574 124.474C417.587 124.474 419.235 122.827 419.235 120.813C419.235 118.8 417.587 117.152 415.574 117.152C413.56 117.152 411.913 118.8 411.913 120.813Z" fill="#C5B0FF"/>
<path d="M282.93 140.408C282.93 143.935 285.734 146.739 289.261 146.739C292.789 146.739 295.593 143.935 295.593 140.408C295.593 136.88 292.789 134.076 289.261 134.076C285.734 134.076 282.93 136.88 282.93 140.408Z" fill="url(#paint17_radial_1335_3836)"/>
<path d="M287.452 140.408C287.452 141.403 288.266 142.217 289.261 142.217C290.256 142.217 291.07 141.403 291.07 140.408C291.07 139.413 290.256 138.599 289.261 138.599C288.266 138.599 287.452 139.413 287.452 140.408Z" fill="#C5B0FF"/>
<path d="M404.346 215.055C404.346 219.458 407.846 222.958 412.249 222.958C416.652 222.958 420.152 219.458 420.152 215.055C420.152 210.651 416.652 207.151 412.249 207.151C407.846 207.151 404.346 210.651 404.346 215.055Z" fill="url(#paint18_radial_1335_3836)"/>
<path d="M409.991 215.055C409.991 216.297 411.007 217.313 412.249 217.313C413.491 217.313 414.507 216.297 414.507 215.055C414.507 213.813 413.491 212.797 412.249 212.797C411.007 212.797 409.991 213.813 409.991 215.055Z" fill="#C5B0FF"/>
<path d="M479.718 161.322C479.718 163.621 481.546 165.448 483.844 165.448C486.143 165.448 487.971 163.621 487.971 161.322C487.971 159.023 486.143 157.196 483.844 157.196C481.546 157.196 479.718 159.023 479.718 161.322Z" fill="url(#paint19_radial_1335_3836)"/>
<path d="M482.666 161.322C482.666 161.97 483.196 162.501 483.844 162.501C484.493 162.501 485.023 161.97 485.023 161.322C485.023 160.674 484.493 160.143 483.844 160.143C483.196 160.143 482.666 160.674 482.666 161.322Z" fill="#C5B0FF"/>
<defs>
<radialGradient id="paint0_radial_1335_3836" cx="0" cy="0" r="1" gradientUnits="userSpaceOnUse" gradientTransform="translate(365.5 240) rotate(30.0333) scale(406.591 273.026)">
<stop stop-color="#C742E8"/>
<stop offset="0.0759497" stop-color="#B83CCC"/>
<stop offset="0.2218" stop-color="#A031AA"/>
<stop offset="0.3636" stop-color="#80288E"/>
<stop offset="0.4979" stop-color="#612178"/>
<stop offset="0.6227" stop-color="#4B1C68"/>
<stop offset="0.7346" stop-color="#3D135F"/>
<stop offset="0.8226" stop-color="#300B4E"/>
<stop offset="1" stop-color="#180626"/>
</radialGradient>
<radialGradient id="paint1_radial_1335_3836" cx="0" cy="0" r="1" gradientUnits="userSpaceOnUse" gradientTransform="translate(441.571 307.969) rotate(149.999) scale(197.717 171.23)">
<stop stop-color="#A942E8"/>
<stop offset="0.0225145" stop-color="#823FD8"/>
<stop offset="0.098265" stop-color="#7036BA"/>
<stop offset="0.1786" stop-color="#602EA0"/>
<stop offset="0.2622" stop-color="#4D278B"/>
<stop offset="0.35" stop-color="#392279"/>
<stop offset="0.4433" stop-color="#321D6C"/>
<stop offset="0.5449" stop-color="#231962"/>
<stop offset="0.6608" stop-color="#1B105D"/>
<stop offset="0.8226" stop-color="#180D5B"/>
</radialGradient>
<linearGradient id="paint2_linear_1335_3836" x1="504.1" y1="268.312" x2="316.029" y2="268.312" gradientUnits="userSpaceOnUse">
<stop stop-color="#3D87EE"/>
<stop offset="0.1022" stop-color="#465CDB"/>
<stop offset="0.3445" stop-color="#372FCE"/>
<stop offset="0.564" stop-color="#0903A4"/>
<stop offset="0.7534" stop-color="#0D05A7"/>
<stop offset="0.905" stop-color="#0B0598"/>
<stop offset="1" stop-color="#040344"/>
</linearGradient>
<linearGradient id="paint3_linear_1335_3836" x1="368.493" y1="268.308" x2="274.457" y2="268.308" gradientUnits="userSpaceOnUse">
<stop stop-color="#0A06A7"/>
<stop offset="1" stop-color="#060094"/>
</linearGradient>
<linearGradient id="paint4_linear_1335_3836" x1="462.528" y1="247.536" x2="274.443" y2="247.536" gradientUnits="userSpaceOnUse">
<stop stop-color="#FBF5FE"/>
<stop offset="0.1022" stop-color="#DFD3F3"/>
<stop offset="0.3445" stop-color="#E9C9FD"/>
<stop offset="0.564" stop-color="#E3B5F9"/>
<stop offset="0.7534" stop-color="#D88FFF"/>
<stop offset="0.905" stop-color="#BA68F3"/>
<stop offset="1" stop-color="#6B32D9"/>
</linearGradient>
<linearGradient id="paint5_linear_1335_3836" x1="462.528" y1="247.539" x2="366.534" y2="247.539" gradientUnits="userSpaceOnUse">
<stop stop-color="#FEF8FF"/>
<stop offset="0.1022" stop-color="#F3DBFF"/>
<stop offset="0.3445" stop-color="#EACBF3"/>
<stop offset="0.564" stop-color="#DFB2F5"/>
<stop offset="0.7534" stop-color="#D58BFF"/>
<stop offset="0.905" stop-color="#BE62F3"/>
<stop offset="1" stop-color="#752ADE"/>
</linearGradient>
<linearGradient id="paint6_linear_1335_3836" x1="436.947" y1="302.264" x2="279.521" y2="199.366" gradientUnits="userSpaceOnUse">
<stop stop-color="#FCF3FD"/>
<stop offset="0.1022" stop-color="#FCF0FF"/>
<stop offset="0.3445" stop-color="#E6CEFF"/>
<stop offset="0.564" stop-color="#DABDFB"/>
<stop offset="0.7534" stop-color="#CB8AF6"/>
<stop offset="0.905" stop-color="#C96AF5"/>
<stop offset="1" stop-color="#AC51F4"/>
</linearGradient>
<linearGradient id="paint7_linear_1335_3836" x1="504.1" y1="211.465" x2="316.029" y2="211.465" gradientUnits="userSpaceOnUse">
<stop stop-color="#46A0EE"/>
<stop offset="0.1022" stop-color="#355BD5"/>
<stop offset="0.3445" stop-color="#3931D1"/>
<stop offset="0.564" stop-color="#0C04A3"/>
<stop offset="0.7534" stop-color="#0D04A9"/>
<stop offset="0.905" stop-color="#060490"/>
<stop offset="1" stop-color="#01065B"/>
</linearGradient>
<linearGradient id="paint8_linear_1335_3836" x1="368.493" y1="211.46" x2="274.457" y2="211.46" gradientUnits="userSpaceOnUse">
<stop stop-color="#0A06A7"/>
<stop offset="1" stop-color="#020061"/>
</linearGradient>
<linearGradient id="paint9_linear_1335_3836" x1="462.528" y1="190.688" x2="274.443" y2="190.688" gradientUnits="userSpaceOnUse">
<stop stop-color="#740EC4"/>
<stop offset="0.1022" stop-color="#6B03AB"/>
<stop offset="0.3445" stop-color="#5C0095"/>
<stop offset="0.564" stop-color="#3B097B"/>
<stop offset="0.7534" stop-color="#370569"/>
<stop offset="0.905" stop-color="#2E0655"/>
<stop offset="1" stop-color="#200436"/>
</linearGradient>
<linearGradient id="paint10_linear_1335_3836" x1="462.528" y1="190.69" x2="366.534" y2="190.69" gradientUnits="userSpaceOnUse">
<stop stop-color="#FDF2FD"/>
<stop offset="0.1022" stop-color="#FAF5F7"/>
<stop offset="0.3445" stop-color="#F1DEFF"/>
<stop offset="0.564" stop-color="#E7CAFD"/>
<stop offset="0.7534" stop-color="#C391FD"/>
<stop offset="0.905" stop-color="#D38FFE"/>
<stop offset="1" stop-color="#B855F4"/>
</linearGradient>
<linearGradient id="paint11_linear_1335_3836" x1="436.947" y1="245.417" x2="279.521" y2="142.519" gradientUnits="userSpaceOnUse">
<stop stop-color="#FDF4FE"/>
<stop offset="0.1022" stop-color="#E2C4FE"/>
<stop offset="0.3445" stop-color="#DDC3F3"/>
<stop offset="0.564" stop-color="#E1B3FE"/>
<stop offset="0.7534" stop-color="#C06DF0"/>
<stop offset="0.905" stop-color="#7941E3"/>
<stop offset="1" stop-color="#5A41DB"/>
</linearGradient>
<radialGradient id="paint12_radial_1335_3836" cx="0" cy="0" r="1" gradientUnits="userSpaceOnUse" gradientTransform="translate(415.686 120.813) rotate(149.999) scale(73.1675 63.3659)">
<stop offset="0.0225145" stop-color="#703FD8"/>
<stop offset="0.098265" stop-color="#5836BA"/>
<stop offset="0.1786" stop-color="#4C2EA0"/>
<stop offset="0.2622" stop-color="#3B278B"/>
<stop offset="0.35" stop-color="#332279"/>
<stop offset="0.4433" stop-color="#2D1D6C"/>
<stop offset="0.5449" stop-color="#25175E"/>
<stop offset="0.6608" stop-color="#1B105D"/>
<stop offset="0.8226" stop-color="#0C0748"/>
</radialGradient>
<radialGradient id="paint13_radial_1335_3836" cx="0" cy="0" r="1" gradientUnits="userSpaceOnUse" gradientTransform="translate(289.496 140.505) rotate(150.194) scale(36.2301 31.253)">
<stop offset="0.0225145" stop-color="#703FD8"/>
<stop offset="0.098265" stop-color="#5836BA"/>
<stop offset="0.1786" stop-color="#4C2EA0"/>
<stop offset="0.2622" stop-color="#3B278B"/>
<stop offset="0.35" stop-color="#332279"/>
<stop offset="0.4433" stop-color="#2D1D6C"/>
<stop offset="0.5449" stop-color="#25175E"/>
<stop offset="0.6608" stop-color="#1B105D"/>
<stop offset="0.8226" stop-color="#0C0748"/>
</radialGradient>
<radialGradient id="paint14_radial_1335_3836" cx="0" cy="0" r="1" gradientUnits="userSpaceOnUse" gradientTransform="translate(412.495 215.007) rotate(150.041) scale(45.255 39.1594)">
<stop offset="0.0225145" stop-color="#703FD8"/>
<stop offset="0.098265" stop-color="#5836BA"/>
<stop offset="0.1786" stop-color="#4C2EA0"/>
<stop offset="0.2622" stop-color="#3B278B"/>
<stop offset="0.35" stop-color="#332279"/>
<stop offset="0.4433" stop-color="#2D1D6C"/>
<stop offset="0.5449" stop-color="#25175E"/>
<stop offset="0.6608" stop-color="#1B105D"/>
<stop offset="0.8226" stop-color="#0C0748"/>
</radialGradient>
<radialGradient id="paint15_radial_1335_3836" cx="0" cy="0" r="1" gradientUnits="userSpaceOnUse" gradientTransform="translate(483.997 161.503) rotate(150.369) scale(23.5693 20.2579)">
<stop offset="0.0225145" stop-color="#703FD8"/>
<stop offset="0.098265" stop-color="#5836BA"/>
<stop offset="0.1786" stop-color="#4C2EA0"/>
<stop offset="0.2622" stop-color="#3B278B"/>
<stop offset="0.35" stop-color="#332279"/>
<stop offset="0.4433" stop-color="#2D1D6C"/>
<stop offset="0.5449" stop-color="#25175E"/>
<stop offset="0.6608" stop-color="#1B105D"/>
<stop offset="0.8226" stop-color="#0C0748"/>
</radialGradient>
<radialGradient id="paint16_radial_1335_3836" cx="0" cy="0" r="1" gradientUnits="userSpaceOnUse" gradientTransform="translate(415.598 120.776) rotate(180) scale(12.8438)">
<stop stop-color="#7742E8"/>
<stop offset="0.0225145" stop-color="#793FD8"/>
<stop offset="0.098265" stop-color="#7036BA"/>
<stop offset="0.1786" stop-color="#661AB3"/>
<stop offset="0.2622" stop-color="#481E7D"/>
<stop offset="0.35" stop-color="#3D0C6F"/>
<stop offset="0.4433" stop-color="#34155B"/>
<stop offset="0.5449" stop-color="#300E51"/>
<stop offset="0.6608" stop-color="#220B40"/>
<stop offset="0.8226" stop-color="#18072F"/>
</radialGradient>
<radialGradient id="paint17_radial_1335_3836" cx="0" cy="0" r="1" gradientUnits="userSpaceOnUse" gradientTransform="translate(289.273 140.389) rotate(180) scale(6.3465)">
<stop stop-color="#7742E8"/>
<stop offset="0.0225145" stop-color="#793FD8"/>
<stop offset="0.098265" stop-color="#7036BA"/>
<stop offset="0.1786" stop-color="#661AB3"/>
<stop offset="0.2622" stop-color="#481E7D"/>
<stop offset="0.35" stop-color="#3D0C6F"/>
<stop offset="0.4433" stop-color="#34155B"/>
<stop offset="0.5449" stop-color="#300E51"/>
<stop offset="0.6608" stop-color="#220B40"/>
<stop offset="0.8226" stop-color="#18072F"/>
</radialGradient>
<radialGradient id="paint18_radial_1335_3836" cx="0" cy="0" r="1" gradientUnits="userSpaceOnUse" gradientTransform="translate(412.264 215.032) rotate(180) scale(7.92203)">
<stop stop-color="#7742E8"/>
<stop offset="0.0225145" stop-color="#793FD8"/>
<stop offset="0.098265" stop-color="#7036BA"/>
<stop offset="0.1786" stop-color="#661AB3"/>
<stop offset="0.2622" stop-color="#481E7D"/>
<stop offset="0.35" stop-color="#3D0C6F"/>
<stop offset="0.4433" stop-color="#34155B"/>
<stop offset="0.5449" stop-color="#300E51"/>
<stop offset="0.6608" stop-color="#220B40"/>
<stop offset="0.8226" stop-color="#18072F"/>
</radialGradient>
<radialGradient id="paint19_radial_1335_3836" cx="0" cy="0" r="1" gradientUnits="userSpaceOnUse" gradientTransform="translate(483.852 161.31) rotate(180) scale(4.13592)">
<stop stop-color="#7742E8"/>
<stop offset="0.0225145" stop-color="#793FD8"/>
<stop offset="0.098265" stop-color="#7036BA"/>
<stop offset="0.1786" stop-color="#661AB3"/>
<stop offset="0.2622" stop-color="#481E7D"/>
<stop offset="0.35" stop-color="#3D0C6F"/>
<stop offset="0.4433" stop-color="#34155B"/>
<stop offset="0.5449" stop-color="#300E51"/>
<stop offset="0.6608" stop-color="#220B40"/>
<stop offset="0.8226" stop-color="#18072F"/>
</radialGradient>
</defs>
</svg>
