<svg width="20" height="20" viewBox="0 0 20 20" fill="none" xmlns="http://www.w3.org/2000/svg">
<path d="M16.1356 8.13093C16.2062 8.12838 16.2766 8.14077 16.3425 8.16737C16.4084 8.19397 16.4686 8.23423 16.5194 8.28576C16.5702 8.33729 16.6106 8.39902 16.6382 8.46729C16.6658 8.53556 16.68 8.60896 16.68 8.68312C16.68 8.75728 16.6658 8.83068 16.6382 8.89895C16.6106 8.96722 16.5702 9.02895 16.5194 9.08048C16.4686 9.13201 16.4084 9.17227 16.3425 9.19887C16.2766 9.22547 16.2062 9.23786 16.1356 9.23531H14.6737V10.2196H16.1356C16.2066 10.216 16.2776 10.2275 16.3443 10.2535C16.4109 10.2796 16.4718 10.3195 16.5233 10.371C16.5748 10.4225 16.6158 10.4844 16.6438 10.553C16.6718 10.6216 16.6862 10.6955 16.6862 10.7702C16.6862 10.8448 16.6718 10.9187 16.6438 10.9873C16.6158 11.0559 16.5748 11.1178 16.5233 11.1693C16.4718 11.2208 16.4109 11.2608 16.3443 11.2868C16.2776 11.3128 16.2066 11.3243 16.1356 11.3207H14.15C14.0112 11.3202 13.8782 11.262 13.7802 11.1588C13.6822 11.0556 13.627 10.9159 13.6269 10.7702V6.59674C13.6269 6.29292 13.8612 6.04357 14.15 6.04357H16.1394C16.2743 6.05089 16.4014 6.11244 16.4944 6.21547C16.5873 6.3185 16.6389 6.45511 16.6385 6.59699C16.6381 6.73888 16.5857 6.87516 16.4922 6.97761C16.3987 7.08006 16.2712 7.14081 16.1362 7.14729H14.6744V8.13159L16.1356 8.13093ZM12.9269 10.7695C12.9257 10.9156 12.8697 11.0554 12.7709 11.1584C12.6721 11.2614 12.5386 11.3192 12.3994 11.3194C12.317 11.3202 12.2355 11.3009 12.1614 11.263C12.0873 11.2251 12.0226 11.1696 11.9725 11.1009L9.93812 8.19589V10.7688C9.93812 10.9149 9.88288 11.0549 9.78454 11.1581C9.6862 11.2614 9.55282 11.3194 9.41375 11.3194C9.27468 11.3194 9.1413 11.2614 9.04296 11.1581C8.94462 11.0549 8.88937 10.9149 8.88937 10.7688V6.59543C8.88937 6.35986 9.03625 6.14856 9.2475 6.0731C9.29967 6.05375 9.35468 6.0442 9.41 6.04488C9.5725 6.04488 9.7225 6.13741 9.82312 6.26733L11.8737 9.17888V6.59543C11.8737 6.29161 12.1081 6.04226 12.3981 6.04226C12.6881 6.04226 12.9256 6.29161 12.9256 6.59543L12.9269 10.7695ZM8.14188 10.7695C8.14121 10.9159 8.08533 11.056 7.98645 11.1592C7.88758 11.2624 7.75379 11.3202 7.61437 11.32C7.476 11.3188 7.34368 11.2603 7.24619 11.1572C7.14869 11.0541 7.09391 10.9148 7.09375 10.7695V6.59609C7.09375 6.29227 7.32812 6.04291 7.61812 6.04291C7.9075 6.04291 8.1425 6.29227 8.1425 6.59609L8.14188 10.7695ZM6.0875 11.32H4.09812C3.95886 11.3197 3.82535 11.2617 3.72659 11.1586C3.62782 11.0555 3.57178 10.9157 3.57062 10.7695V6.59609C3.57062 6.29227 3.80813 6.04291 4.09812 6.04291C4.38812 6.04291 4.6225 6.29227 4.6225 6.59609V10.2189H6.0875C6.22657 10.2189 6.35995 10.277 6.45829 10.3802C6.55663 10.4834 6.61188 10.6235 6.61188 10.7695C6.61188 10.9155 6.55663 11.0555 6.45829 11.1588C6.35995 11.262 6.22657 11.32 6.0875 11.32ZM20 8.52334C20 3.82431 15.5106 0 10 0C4.48937 0 0 3.82431 0 8.52334C0 12.7341 3.55813 16.2612 8.3625 16.9312C8.68812 17.0027 9.13062 17.1569 9.245 17.4476C9.34562 17.7101 9.31 18.1169 9.2775 18.3945L9.14062 19.2863C9.10125 19.5494 8.93875 20.3224 10.0131 19.8506C11.0906 19.3788 15.7781 16.2829 17.8775 13.746C19.3131 12.0957 20 10.4001 20 8.52334Z" fill="white"/>
</svg>
