<svg width="24" height="24" viewBox="0 0 24 24" fill="none" xmlns="http://www.w3.org/2000/svg">
<path d="M15.5 8.00004C14.6484 7.99712 13.8046 8.16214 13.0168 8.48568C12.229 8.80921 11.5128 9.2849 10.9091 9.88553C10.3054 10.4862 9.82598 11.1999 9.4984 11.986C9.17082 12.7721 9.00146 13.6151 9 14.4667V21C9 21.2652 9.10536 21.5196 9.29289 21.7071C9.48043 21.8946 9.73478 22 10 22H12.3333C12.5986 22 12.8529 21.8946 13.0404 21.7071C13.228 21.5196 13.3333 21.2652 13.3333 21V14.4667C13.3331 14.1638 13.3967 13.8643 13.52 13.5876C13.6433 13.311 13.8236 13.0634 14.049 12.8611C14.2744 12.6587 14.5399 12.5062 14.8282 12.4133C15.1165 12.3205 15.4211 12.2895 15.7222 12.3222C16.2622 12.3903 16.7585 12.6541 17.1169 13.0637C17.4753 13.4733 17.6709 14.0002 17.6667 14.5445V21C17.6667 21.2652 17.772 21.5196 17.9596 21.7071C18.1471 21.8946 18.4015 22 18.6667 22H21C21.2652 22 21.5196 21.8946 21.7071 21.7071C21.8946 21.5196 22 21.2652 22 21V14.4667C21.9985 13.6151 21.8292 12.7721 21.5016 11.986C21.174 11.1999 20.6946 10.4862 20.0909 9.88553C19.4872 9.2849 18.771 8.80921 17.9832 8.48568C17.1954 8.16214 16.3516 7.99712 15.5 8.00004Z" fill="white"/>
<path d="M6 9H3C2.44772 9 2 9.44771 2 10V21C2 21.5523 2.44772 22 3 22H6C6.55228 22 7 21.5523 7 21V10C7 9.44771 6.55228 9 6 9Z" fill="white"/>
<path d="M4.5 7C5.88071 7 7 5.88071 7 4.5C7 3.11929 5.88071 2 4.5 2C3.11929 2 2 3.11929 2 4.5C2 5.88071 3.11929 7 4.5 7Z" fill="white"/>
</svg>
