<svg width="116" height="116" viewBox="0 0 116 116" fill="none" xmlns="http://www.w3.org/2000/svg">
<g filter="url(#filter0_d_900_3857)">
<rect x="8" y="3" width="100" height="100" rx="20" fill="white"/>
</g>
<path d="M68.7142 74.4282C71.8011 76.7547 75.5631 78.01 79.4285 78.0032C83.2928 78.01 87.054 76.7575 90.1428 74.4354V86.0282C90.1437 86.4868 90.0268 86.938 89.8034 87.3385C89.58 87.7389 89.2576 88.0754 88.8669 88.3155C88.4762 88.5557 88.0304 88.6915 87.5722 88.71C87.114 88.7285 86.6587 88.629 86.2499 88.4211L85.9285 88.2247L79.4285 83.6818L72.9285 88.2247C72.5531 88.4868 72.1168 88.6483 71.6612 88.6938C71.2057 88.7393 70.746 88.6673 70.3262 88.4846C69.9064 88.3019 69.5404 88.0147 69.2632 87.6503C68.986 87.2859 68.8068 86.8566 68.7428 86.4032L68.7178 86.0282L68.7142 74.4318V74.4282ZM83.8928 20.8711C86.3938 20.871 88.8007 21.825 90.6224 23.5386C92.4442 25.2521 93.5436 27.5962 93.6964 30.0925L93.7142 30.6925L93.7178 49.4282C92.2694 47.5 90.4475 45.8833 88.3606 44.6747L88.3571 30.6925C88.3576 29.5873 87.9481 28.5212 87.2079 27.7005C86.4677 26.8798 85.4493 26.3628 84.3499 26.2497L83.8928 26.2282H32.1071C31.0019 26.2277 29.9358 26.6372 29.1151 27.3774C28.2943 28.1176 27.7774 29.136 27.6642 30.2354L27.6428 30.6925V64.6211C27.6428 66.9318 29.3999 68.8354 31.6499 69.0604L32.1071 69.0854H63.9642C64.3214 69.6997 64.7142 70.2925 65.1428 70.8568V74.4425H32.1071C29.6055 74.4426 27.1981 73.4881 25.3763 71.7737C23.5544 70.0594 22.4554 67.7145 22.3035 65.2175L22.2856 64.6211V30.6925C22.2855 28.1915 23.2395 25.7846 24.9531 23.9629C26.6667 22.1411 29.0107 21.0417 31.5071 20.889L32.1071 20.8711H83.8928ZM79.4285 45.8568C83.2173 45.8568 86.8509 47.3619 89.53 50.041C92.2091 52.7201 93.7142 56.3537 93.7142 60.1425C93.7142 63.9313 92.2091 67.565 89.53 70.244C86.8509 72.9231 83.2173 74.4282 79.4285 74.4282C75.6397 74.4282 72.0061 72.9231 69.327 70.244C66.6479 67.565 65.1428 63.9313 65.1428 60.1425C65.1428 56.3537 66.6479 52.7201 69.327 50.041C72.0061 47.3619 75.6397 45.8568 79.4285 45.8568ZM55.3214 54.7854C56 54.7856 56.6533 55.0434 57.1492 55.5067C57.6451 55.97 57.9466 56.6043 57.9929 57.2814C58.0391 57.9585 57.8267 58.6278 57.3984 59.1543C56.9701 59.6808 56.358 60.025 55.6856 60.1175L55.3214 60.1425H39.2499C38.5713 60.1423 37.918 59.8845 37.4221 59.4212C36.9262 58.9579 36.6247 58.3236 36.5784 57.6465C36.5322 56.9694 36.7446 56.3 37.1729 55.7736C37.6012 55.2471 38.2133 54.9029 38.8856 54.8104L39.2499 54.7854H55.3214ZM76.7499 35.1425C77.4286 35.1427 78.0819 35.4005 78.5777 35.8639C79.0736 36.3272 79.3752 36.9614 79.4214 37.6385C79.4677 38.3156 79.2552 38.985 78.827 39.5114C78.3987 40.0379 77.7865 40.3822 77.1142 40.4747L76.7499 40.4997H39.2499C38.5713 40.4995 37.918 40.2416 37.4221 39.7783C36.9262 39.315 36.6247 38.6807 36.5784 38.0037C36.5322 37.3266 36.7446 36.6572 37.1729 36.1307C37.6012 35.6043 38.2133 35.26 38.8856 35.1675L39.2499 35.1425H76.7499Z" fill="#A07BEE"/>
<defs>
<filter id="filter0_d_900_3857" x="0" y="0" width="116" height="116" filterUnits="userSpaceOnUse" color-interpolation-filters="sRGB">
<feFlood flood-opacity="0" result="BackgroundImageFix"/>
<feColorMatrix in="SourceAlpha" type="matrix" values="0 0 0 0 0 0 0 0 0 0 0 0 0 0 0 0 0 0 127 0" result="hardAlpha"/>
<feOffset dy="5"/>
<feGaussianBlur stdDeviation="4"/>
<feComposite in2="hardAlpha" operator="out"/>
<feColorMatrix type="matrix" values="0 0 0 0 0.317647 0 0 0 0 0.145098 0 0 0 0 0.67451 0 0 0 1 0"/>
<feBlend mode="normal" in2="BackgroundImageFix" result="effect1_dropShadow_900_3857"/>
<feBlend mode="normal" in="SourceGraphic" in2="effect1_dropShadow_900_3857" result="shape"/>
</filter>
</defs>
</svg>
