<svg width="66" height="73" viewBox="0 0 66 73" fill="none" xmlns="http://www.w3.org/2000/svg">
<g filter="url(#filter0_d_1340_6323)">
<rect x="10.0272" y="6.02722" width="45.4359" height="45.4359" rx="9.73626" fill="url(#paint0_linear_1340_6323)"/>
</g>
<path d="M45.1967 14.5659L41.7665 15.1705C38.4594 15.6077 35.406 17.273 33.1496 19.8699L29.3058 24.3317L24.0719 24.0065C23.9339 23.9974 23.7962 24.0269 23.6725 24.0921C23.5487 24.1572 23.4434 24.2557 23.3669 24.3776L20.7283 28.5475C20.6636 28.6484 20.6206 28.7631 20.6023 28.8835C20.584 29.0039 20.5909 29.127 20.6224 29.2443C20.6539 29.3616 20.7094 29.4702 20.7848 29.5623C20.8603 29.6544 20.9539 29.7279 21.0591 29.7776L24.7808 31.5707L30.4597 37.592L32.1532 41.5367C32.2001 41.6481 32.2695 41.7472 32.3565 41.8271C32.4435 41.907 32.5461 41.9657 32.6568 41.9991C32.7676 42.0325 32.8839 42.0397 32.9977 42.0204C33.1114 42.001 33.2197 41.9555 33.315 41.8869L37.3123 39.0806C37.4274 38.9997 37.5204 38.8881 37.5819 38.7571C37.6435 38.6261 37.6714 38.4802 37.6628 38.3342L37.3162 32.7883L41.5105 28.7435C43.9682 26.3497 45.5414 23.1083 45.9489 19.5989L46.52 15.9669C46.5528 15.7753 46.5413 15.5781 46.4865 15.3921C46.4316 15.2062 46.335 15.0371 46.2049 14.8994C46.0748 14.7617 45.9152 14.6594 45.7396 14.6013C45.564 14.5432 45.3777 14.531 45.1967 14.5659ZM38.8758 26.2415C38.5439 26.5876 38.1228 26.8221 37.6654 26.9155C37.2081 27.009 36.7348 26.9572 36.3052 26.7667C35.8755 26.5762 35.5086 26.2555 35.2505 25.8449C34.9925 25.4343 34.8548 24.9521 34.8548 24.4589C34.8548 23.9657 34.9925 23.4835 35.2505 23.0729C35.5086 22.6623 35.8755 22.3416 36.3052 22.1511C36.7348 21.9606 37.2081 21.9088 37.6654 22.0023C38.1228 22.0957 38.5439 22.3302 38.8758 22.6763C39.32 23.1504 39.5692 23.7911 39.5692 24.4589C39.5692 25.1267 39.32 25.7675 38.8758 26.2415Z" fill="white"/>
<path d="M28.4512 38.3344L24.0719 33.6975C24.013 33.6363 23.9338 33.6021 23.8513 33.6021C23.7689 33.6021 23.6897 33.6363 23.6308 33.6975L22.9455 34.4105C20.6141 36.9285 19.1995 40.2388 18.9521 43.7552C22.275 43.4976 25.4044 42.0026 27.7857 39.5353L28.4591 38.8098C28.4884 38.7782 28.5114 38.7407 28.5269 38.6996C28.5423 38.6585 28.5499 38.6146 28.5492 38.5703C28.5484 38.5261 28.5394 38.4824 28.5226 38.4419C28.5058 38.4014 28.4815 38.3649 28.4512 38.3344Z" fill="white"/>
<path d="M32.5782 0C16.7981 0 4 12.7981 4 28.5782C4 35.1162 6.27811 41.08 9.90827 45.9696C15.7054 53.8041 32.5782 72.9551 32.5782 72.9551C32.5782 72.9551 49.4511 53.7856 55.2482 45.9696C58.8598 41.0986 61.1565 35.1347 61.1565 28.5782C61.1565 12.7981 48.3583 0 32.5782 0ZM32.5782 51.0259C20.1875 51.0259 10.1305 40.9689 10.1305 28.5782C10.1305 16.1875 20.1875 6.13052 32.5782 6.13052C44.9689 6.13052 55.026 16.1875 55.026 28.5782C55.026 40.9689 44.9689 51.0259 32.5782 51.0259Z" fill="#BC91FA"/>
<defs>
<filter id="filter0_d_1340_6323" x="0.290966" y="6.02722" width="64.9084" height="64.9084" filterUnits="userSpaceOnUse" color-interpolation-filters="sRGB">
<feFlood flood-opacity="0" result="BackgroundImageFix"/>
<feColorMatrix in="SourceAlpha" type="matrix" values="0 0 0 0 0 0 0 0 0 0 0 0 0 0 0 0 0 0 127 0" result="hardAlpha"/>
<feOffset dy="9.73626"/>
<feGaussianBlur stdDeviation="4.86813"/>
<feComposite in2="hardAlpha" operator="out"/>
<feColorMatrix type="matrix" values="0 0 0 0 0.054902 0 0 0 0 0.00392157 0 0 0 0 0.152941 0 0 0 0.25 0"/>
<feBlend mode="normal" in2="BackgroundImageFix" result="effect1_dropShadow_1340_6323"/>
<feBlend mode="normal" in="SourceGraphic" in2="effect1_dropShadow_1340_6323" result="shape"/>
</filter>
<linearGradient id="paint0_linear_1340_6323" x1="10.0272" y1="6.02722" x2="55.4631" y2="51.4631" gradientUnits="userSpaceOnUse">
<stop stop-color="#CEA8FF"/>
<stop offset="1" stop-color="#5B1BE1"/>
</linearGradient>
</defs>
</svg>
