<svg width="241" height="378" viewBox="0 0 241 378" fill="none" xmlns="http://www.w3.org/2000/svg">
<path d="M110.701 228.816L5.20112 289.719C-0.344385 292.918 -0.344385 298.111 5.20112 301.31L110.701 362.213C113.815 363.793 117.257 364.617 120.749 364.617C124.24 364.617 127.683 363.793 130.796 362.213L236.296 301.31C241.842 298.111 241.842 292.918 236.296 289.719L130.796 228.816C127.683 227.236 124.24 226.412 120.749 226.412C117.257 226.412 113.815 227.236 110.701 228.816V228.816Z" stroke="#707070" stroke-miterlimit="10"/>
<g style="mix-blend-mode:multiply" opacity="0.15">
<path d="M237.916 311.863L126.794 376.036C124.912 376.985 122.833 377.48 120.725 377.48C118.617 377.48 116.539 376.985 114.657 376.036L3.52085 311.863C2.82513 311.559 2.22397 311.074 1.78042 310.458C1.33688 309.842 1.06732 309.118 1 308.362C1.0214 307.853 1.15115 307.355 1.3806 306.9C1.61004 306.446 1.93387 306.046 2.33044 305.726C2.69036 305.39 3.09013 305.099 3.52085 304.86L114.657 240.723C116.537 239.768 118.616 239.27 120.725 239.27C122.834 239.27 124.914 239.768 126.794 240.723L237.923 304.865C241.254 306.802 241.254 309.956 237.916 311.863Z" fill="#6B99D1"/>
</g>
<path d="M237.916 237.518L126.787 301.66C124.922 302.657 122.832 303.155 120.718 303.107C118.615 303.152 116.535 302.662 114.673 301.684L3.52085 237.518C2.82873 237.209 2.23083 236.722 1.78801 236.107C1.34519 235.492 1.07329 234.771 1 234.017C1.06732 233.261 1.33688 232.536 1.78042 231.92C2.22397 231.304 2.82513 230.819 3.52085 230.515L21.167 220.339L114.657 166.35C116.537 165.395 118.616 164.897 120.725 164.897C122.834 164.897 124.914 165.395 126.794 166.35L237.923 230.515C241.254 232.429 241.254 235.58 237.916 237.518Z" fill="#CFB5D8"/>
<path d="M120.726 277.805V303.107C118.623 303.152 116.543 302.662 114.681 301.684L3.52869 237.518C2.83657 237.209 2.23865 236.723 1.79582 236.108C1.353 235.492 1.0811 234.771 1.00781 234.017V212.099C1.02948 211.59 1.15935 211.092 1.38876 210.637C1.61818 210.182 1.94188 209.781 2.33829 209.462L21.1748 220.339L120.726 277.805Z" fill="#9669F0"/>
<path d="M120.726 277.805V303.107C122.829 303.152 124.909 302.662 126.771 301.684L237.923 237.518C238.615 237.209 239.213 236.723 239.656 236.108C240.099 235.492 240.371 234.771 240.444 234.017V212.099C240.422 211.59 240.292 211.092 240.063 210.637C239.834 210.182 239.51 209.781 239.113 209.462L220.277 220.339L120.726 277.805Z" fill="#6E3DD2"/>
<path d="M237.916 215.601L126.787 279.766C124.906 280.718 122.827 281.213 120.718 281.213C118.61 281.213 116.531 280.718 114.65 279.766L3.52085 215.601C2.82513 215.297 2.22397 214.812 1.78042 214.196C1.33688 213.58 1.06732 212.856 1 212.099C1.02167 211.591 1.1515 211.092 1.38092 210.637C1.61033 210.182 1.93403 209.782 2.33044 209.462C2.69044 209.126 3.09022 208.836 3.52085 208.598L114.657 144.456C116.537 143.501 118.616 143.003 120.725 143.003C122.834 143.003 124.914 143.501 126.794 144.456L237.923 208.598C241.254 210.536 241.254 213.687 237.916 215.601Z" fill="#CFB5D8"/>
<path d="M120.718 278.879C122.597 278.879 124.381 278.468 125.62 277.745L236.755 213.576C237.735 213.014 238.084 212.435 238.085 212.11C238.086 211.781 237.735 211.192 236.749 210.62L125.622 146.478C124.363 145.753 122.573 145.337 120.71 145.337C118.849 145.337 117.067 145.752 115.816 146.478L4.64579 210.643C4.38945 210.784 4.14484 210.962 3.91872 211.172L3.88687 211.201C3.54076 211.511 3.33415 211.847 3.33415 212.099C3.33415 212.537 3.84827 213.101 4.67588 213.572L4.68799 213.579L115.826 277.75C117.056 278.468 118.839 278.879 120.718 278.879ZM120.718 281.214C118.524 281.214 116.33 280.747 114.65 279.766L3.52085 215.601C1.84029 214.644 1 213.383 1 212.099C1 211.189 1.44349 210.255 2.33044 209.462C2.65722 209.158 3.05402 208.855 3.52085 208.598L114.65 144.456C117.987 142.519 123.426 142.519 126.787 144.456L237.916 208.598C241.254 210.536 241.254 213.687 237.916 215.601L126.787 279.766C125.107 280.747 122.912 281.214 120.718 281.214Z" fill="white"/>
<path d="M116.672 159.702L29.9424 209.777C29.4546 209.942 29.0309 210.256 28.7309 210.675C28.4309 211.094 28.2695 211.596 28.2695 212.111C28.2695 212.626 28.4309 213.128 28.7309 213.547C29.0309 213.965 29.4546 214.279 29.9424 214.445L116.672 264.517C117.926 265.152 119.311 265.483 120.716 265.483C122.121 265.483 123.507 265.152 124.76 264.517L211.485 214.445C211.974 214.281 212.399 213.967 212.7 213.548C213.001 213.129 213.163 212.626 213.163 212.111C213.163 211.595 213.001 211.092 212.7 210.673C212.399 210.255 211.974 209.941 211.485 209.777L124.758 159.702C123.505 159.067 122.12 158.736 120.715 158.736C119.31 158.736 117.925 159.067 116.672 159.702Z" fill="#344593"/>
<path d="M211.484 209.777L124.757 159.703C123.516 159.046 122.129 158.716 120.726 158.744V162.852L210.798 214.854L211.498 214.453C211.989 214.288 212.416 213.974 212.718 213.553C213.019 213.133 213.181 212.628 213.179 212.11C213.178 211.592 213.013 211.088 212.709 210.669C212.405 210.251 211.976 209.939 211.484 209.777Z" fill="#1E3779"/>
<path d="M120.726 158.744C119.318 158.716 117.926 159.049 116.683 159.71L29.9531 209.784C29.4653 209.95 29.0417 210.264 28.7416 210.683C28.4416 211.101 28.2803 211.603 28.2803 212.118C28.2803 212.633 28.4416 213.136 28.7416 213.554C29.0417 213.973 29.4653 214.287 29.9531 214.453L30.6533 214.854L120.726 162.845V158.744Z" fill="#031F60"/>
<path d="M92.2638 184.739L120.701 201.166V113.58L92.2568 97.1567L92.2638 184.739Z" fill="#36177B"/>
<path d="M120.7 201.166L149.153 184.738V97.1543L120.71 113.577L120.7 201.166Z" fill="#7541E5"/>
<path d="M149.142 97.1543L120.7 80.7266L92.2656 97.1543L120.709 113.577L149.142 97.1543Z" fill="#D5B8FD"/>
<path d="M120.7 201.164L120.71 113.577" stroke="white" stroke-width="0.75" stroke-miterlimit="10"/>
<path d="M149.146 97.1543L120.712 113.577" stroke="white" stroke-width="0.75" stroke-miterlimit="10"/>
<path d="M139.685 212.102L168.11 228.534V151.9L139.666 135.477L139.685 212.102Z" fill="#36177B"/>
<path d="M168.109 228.534L196.563 212.107V135.477L168.128 151.9L168.109 228.534Z" fill="#7541E5"/>
<path d="M196.563 135.472L168.109 119.046L139.675 135.474L168.119 151.897L196.563 135.472Z" fill="#D5B8FD"/>
<path d="M168.12 228.529L168.129 151.895" stroke="white" stroke-width="0.75" stroke-miterlimit="10"/>
<path d="M196.564 135.472L168.13 151.895" stroke="white" stroke-width="0.75" stroke-miterlimit="10"/>
<path d="M44.8506 212.106L73.2875 228.534V140.947L44.8506 124.524V212.106Z" fill="#36177B"/>
<path d="M73.2842 228.534L101.737 212.106V124.522L73.3029 140.945L73.2842 228.534Z" fill="#7541E5"/>
<path d="M101.729 124.524L73.2851 108.092L44.8506 124.524L73.2945 140.947L101.729 124.524Z" fill="#D5B8FD"/>
<path d="M73.2842 228.534L73.2935 140.947" stroke="white" stroke-width="0.75" stroke-miterlimit="10"/>
<path d="M101.728 124.524L73.293 140.947" stroke="white" stroke-width="0.75" stroke-miterlimit="10"/>
<path d="M92.275 239.479L120.71 255.907V190.212L92.2656 173.789L92.275 239.479Z" fill="#36177B"/>
<path d="M120.709 255.907L149.162 239.479V173.789L120.725 190.212L120.709 255.907Z" fill="#7541E5"/>
<path d="M149.153 173.789L120.709 157.361L92.2744 173.789L120.718 190.212L149.153 173.789Z" fill="#D5B8FD"/>
<path d="M120.708 255.906L120.717 190.212" stroke="white" stroke-width="0.75" stroke-miterlimit="10"/>
<path d="M149.156 173.789L120.722 190.212" stroke="white" stroke-width="0.75" stroke-miterlimit="10"/>
<path opacity="0.3" d="M126.776 49.8503C124.949 50.9432 122.831 51.4484 120.707 51.2975C120.675 51.2975 120.642 51.2975 120.609 51.2975H120.698V265.476C122.103 265.464 123.487 265.134 124.745 264.51L210.775 214.839C212.376 213.957 213.147 213.18 213.147 212.104V0L126.776 49.8503Z" fill="url(#paint0_linear_2466_4644)"/>
<path opacity="0.5" d="M120.609 51.2952C120.098 51.3046 119.587 51.2843 119.078 51.2345L118.982 51.2182C118.494 51.1692 118.009 51.0912 117.53 50.9847C117.222 50.91 116.923 50.8027 116.622 50.7046C116.436 50.644 116.242 50.6019 116.06 50.5296C115.578 50.3469 115.11 50.13 114.659 49.8807L28.2539 0V212.102C28.3012 212.604 28.4811 213.085 28.7751 213.495C29.0692 213.905 29.4669 214.23 29.9275 214.436L116.664 264.515C117.887 265.109 119.226 265.428 120.586 265.448C120.623 265.448 120.658 265.462 120.695 265.462V51.2975L120.609 51.2952Z" fill="url(#paint1_linear_2466_4644)"/>
<defs>
<linearGradient id="paint0_linear_2466_4644" x1="213.239" y1="214.239" x2="116.163" y2="193.478" gradientUnits="userSpaceOnUse">
<stop stop-color="#9D57F7"/>
<stop offset="0.041" stop-color="#9D57F7" stop-opacity="0.906"/>
<stop offset="0.144" stop-color="#9D57F7" stop-opacity="0.698"/>
<stop offset="0.251" stop-color="#9D57F7" stop-opacity="0.51"/>
<stop offset="0.361" stop-color="#9D57F7" stop-opacity="0.353"/>
<stop offset="0.473" stop-color="#9D57F7" stop-opacity="0.224"/>
<stop offset="0.59" stop-color="#9D57F7" stop-opacity="0.125"/>
<stop offset="0.712" stop-color="#9D57F7" stop-opacity="0.055"/>
<stop offset="0.843" stop-color="#9457F7" stop-opacity="0.012"/>
<stop offset="1" stop-color="#9D57F7" stop-opacity="0"/>
</linearGradient>
<linearGradient id="paint1_linear_2466_4644" x1="28.3464" y1="214.759" x2="106.53" y2="197.913" gradientUnits="userSpaceOnUse">
<stop stop-color="#7F47EB"/>
<stop offset="0.041" stop-color="#7F47EB" stop-opacity="0.906"/>
<stop offset="0.144" stop-color="#7F47EB" stop-opacity="0.698"/>
<stop offset="0.251" stop-color="#7F47EB" stop-opacity="0.51"/>
<stop offset="0.361" stop-color="#7F47EB" stop-opacity="0.353"/>
<stop offset="0.473" stop-color="#7F47EB" stop-opacity="0.224"/>
<stop offset="0.59" stop-color="#7F47EB" stop-opacity="0.125"/>
<stop offset="0.712" stop-color="#7F47EB" stop-opacity="0.055"/>
<stop offset="0.843" stop-color="#7F47EB" stop-opacity="0.012"/>
<stop offset="1" stop-color="#7F47EB" stop-opacity="0"/>
</linearGradient>
</defs>
</svg>
