<svg width="136" height="135" viewBox="0 0 136 135" fill="none" xmlns="http://www.w3.org/2000/svg">
<g filter="url(#filter0_d_751_4261)">
<rect x="21" width="94" height="94" rx="20.1429" fill="url(#paint0_linear_751_4261)"/>
</g>
<path d="M93.7602 17.6651L86.6635 18.916C79.8217 19.8207 73.5047 23.2658 68.8364 28.6385L60.8843 37.8693L50.0561 37.1964C49.7707 37.1777 49.4857 37.2387 49.2297 37.3735C48.9738 37.5083 48.7557 37.712 48.5976 37.9642L43.1387 46.591C43.0048 46.7998 42.9159 47.037 42.878 47.2861C42.8402 47.5352 42.8544 47.7901 42.9196 48.0327C42.9849 48.2754 43.0996 48.4999 43.2557 48.6905C43.4118 48.8812 43.6055 49.0332 43.8231 49.136L51.5226 52.8455L63.2716 65.3027L66.7751 73.4638C66.8721 73.6942 67.0157 73.8992 67.1958 74.0645C67.3758 74.2298 67.5879 74.3513 67.817 74.4204C68.0462 74.4895 68.2869 74.5045 68.5222 74.4644C68.7574 74.4244 68.9815 74.3301 69.1786 74.1884L77.4485 68.3825C77.6867 68.2151 77.8791 67.9843 78.0064 67.7132C78.1337 67.4422 78.1914 67.1404 78.1737 66.8383L77.4567 55.3646L86.1339 46.9965C91.2185 42.0441 94.4733 35.3381 95.3164 28.0778L96.4978 20.5638C96.5658 20.1673 96.542 19.7592 96.4285 19.3746C96.315 18.99 96.1151 18.6402 95.846 18.3552C95.5769 18.0703 95.2466 17.8586 94.8833 17.7385C94.52 17.6183 94.1346 17.5931 93.7602 17.6651ZM80.6832 41.8204C79.9965 42.5363 79.1254 43.0215 78.1791 43.2148C77.2329 43.4081 76.2538 43.301 75.3649 42.9069C74.476 42.5128 73.7169 41.8493 73.183 40.9999C72.6492 40.1504 72.3644 39.1528 72.3644 38.1324C72.3644 37.112 72.6492 36.1144 73.183 35.2649C73.7169 34.4155 74.476 33.752 75.3649 33.3579C76.2538 32.9638 77.2329 32.8567 78.1791 33.05C79.1254 33.2433 79.9965 33.7284 80.6832 34.4444C81.6021 35.4252 82.1178 36.7508 82.1178 38.1324C82.1178 39.514 81.6021 40.8396 80.6832 41.8204Z" fill="white"/>
<path d="M59.1165 66.8386L50.0563 57.2456C49.9344 57.1191 49.7706 57.0483 49.6 57.0483C49.4294 57.0483 49.2656 57.1191 49.1437 57.2456L47.726 58.7208C42.9026 63.93 39.976 70.7786 39.4643 78.0536C46.3388 77.5205 52.813 74.4276 57.7395 69.3232L59.1328 67.8221C59.1933 67.7568 59.2409 67.6793 59.2729 67.5943C59.3049 67.5092 59.3206 67.4183 59.3191 67.3268C59.3176 67.2352 59.2989 67.1449 59.2641 67.0611C59.2293 66.9773 59.1791 66.9017 59.1165 66.8386Z" fill="white"/>
<defs>
<filter id="filter0_d_751_4261" x="0.857143" y="0" width="134.286" height="134.286" filterUnits="userSpaceOnUse" color-interpolation-filters="sRGB">
<feFlood flood-opacity="0" result="BackgroundImageFix"/>
<feColorMatrix in="SourceAlpha" type="matrix" values="0 0 0 0 0 0 0 0 0 0 0 0 0 0 0 0 0 0 127 0" result="hardAlpha"/>
<feOffset dy="20.1429"/>
<feGaussianBlur stdDeviation="10.0714"/>
<feComposite in2="hardAlpha" operator="out"/>
<feColorMatrix type="matrix" values="0 0 0 0 0.054902 0 0 0 0 0.00392157 0 0 0 0 0.152941 0 0 0 0.25 0"/>
<feBlend mode="normal" in2="BackgroundImageFix" result="effect1_dropShadow_751_4261"/>
<feBlend mode="normal" in="SourceGraphic" in2="effect1_dropShadow_751_4261" result="shape"/>
</filter>
<linearGradient id="paint0_linear_751_4261" x1="21" y1="0" x2="115" y2="94" gradientUnits="userSpaceOnUse">
<stop stop-color="#CEA8FF"/>
<stop offset="1" stop-color="#5B1BE1"/>
</linearGradient>
</defs>
</svg>
