<svg width="18" height="20" viewBox="0 0 18 20" fill="none" xmlns="http://www.w3.org/2000/svg">
<path d="M9.44267 0.016875C10.5333 0 11.6177 0.01 12.7008 0C12.7664 1.27562 13.2252 2.575 14.1589 3.47688C15.0908 4.40125 16.4089 4.82438 17.6914 4.9675V8.32312C16.4895 8.28375 15.282 8.03375 14.1914 7.51625C13.7164 7.30125 13.2739 7.02437 12.8408 6.74125C12.8352 9.17625 12.8508 11.6081 12.8252 14.0331C12.7602 15.1981 12.3758 16.3575 11.6983 17.3175C10.6083 18.9156 8.71642 19.9575 6.77329 19.99C5.58142 20.0581 4.39079 19.7331 3.37517 19.1344C1.69204 18.1419 0.507669 16.325 0.335169 14.375C0.31344 13.962 0.310104 13.5483 0.325169 13.135C0.475169 11.5494 1.25954 10.0325 2.47704 9.00062C3.85704 7.79875 5.79017 7.22625 7.60017 7.565C7.61704 8.79938 7.56767 10.0325 7.56767 11.2669C6.74079 10.9994 5.77454 11.0744 5.05204 11.5763C4.52345 11.9245 4.12398 12.4368 3.91517 13.0344C3.74267 13.4569 3.79204 13.9263 3.80204 14.375C4.00017 15.7425 5.31517 16.8919 6.71892 16.7675C7.64954 16.7575 8.54142 16.2175 9.02642 15.4269C9.18329 15.15 9.35892 14.8669 9.36829 14.5413C9.45017 13.0506 9.41767 11.5662 9.42767 10.0756C9.43454 6.71625 9.41767 3.36625 9.44329 0.0175L9.44267 0.016875Z" fill="white"/>
</svg>
