<svg width="22" height="20" viewBox="0 0 22 20" fill="none" xmlns="http://www.w3.org/2000/svg">
<path fill-rule="evenodd" clip-rule="evenodd" d="M14.948 0C13.9189 0 12.4504 0.45142 11.4028 1.73379C10.5795 2.74559 10.1679 4.0703 10.1783 5.68097C7.15693 5.27061 4.68021 3.76123 2.62433 1.0849C2.50063 0.927184 2.32487 0.833549 2.13753 0.833549C2.10633 0.833549 2.07512 0.836115 2.04272 0.841248C1.82418 0.875893 1.63573 1.03233 1.5467 1.25289C0.741933 3.22135 0.748842 4.99488 1.56056 6.55683C1.54439 6.55426 1.52704 6.55426 1.51084 6.55426C1.18245 6.55426 0.866789 6.8928 0.891086 7.31855C0.997463 9.1062 1.58948 10.4925 2.65672 11.4568C2.45438 11.635 2.3688 11.9351 2.4405 12.2134C2.77811 13.5099 3.76559 14.9179 5.27454 15.5874C4.1668 16.2285 2.8475 16.5465 1.49352 16.5465C1.22294 16.5465 0.951216 16.5337 0.679488 16.5081C0.664447 16.5068 0.649406 16.5068 0.635555 16.5068C0.356885 16.5068 0.11752 16.7107 0.0284973 17.0121C-0.0616821 17.3275 0.068959 17.6815 0.324489 17.8533C1.28189 18.4958 3.6881 20 7.21591 20C16.783 20 19.8772 10.6168 19.8772 6.07336C19.8737 5.78997 19.876 5.82329 19.861 5.67584C19.8841 5.64632 19.972 5.5745 20.0413 5.51551C20.3998 5.21547 21.0254 4.71918 21.8879 3.32136C22.0475 3.05978 22.0359 2.71611 21.8579 2.4686C21.7226 2.28137 21.57 2.20827 21.3965 2.20827C21.2728 2.20827 21.1398 2.24548 20.9964 2.30703C21.1583 1.99156 21.2913 1.65559 21.3977 1.30037C21.4809 1.02591 21.3907 0.787391 21.193 0.596309C21.0774 0.486029 20.9259 0.429606 20.7744 0.429606C20.668 0.429606 20.5628 0.456553 20.4669 0.510409C19.4193 1.09774 18.6376 1.35166 18.2919 1.42729C17.3865 0.50656 16.4164 0 14.948 0Z" fill="white"/>
</svg>
