<svg width="26" height="20" viewBox="0 0 26 20" fill="none" xmlns="http://www.w3.org/2000/svg">
<path fill-rule="evenodd" clip-rule="evenodd" d="M10.7156 4.99853C10.8561 4.99853 10.9965 5.04029 11.1193 5.12536L17.2129 9.29422C17.4352 9.44345 17.5702 9.71055 17.5702 9.99851C17.5702 10.2865 17.4352 10.5521 17.2129 10.7058L11.1193 14.8717C10.9952 14.9567 10.8561 14.9985 10.717 14.9985C10.5888 14.9985 10.4606 14.9627 10.3474 14.8941C10.1032 14.7463 9.95321 14.4703 9.95321 14.1659V5.83258C9.95321 5.52969 10.1032 5.2492 10.3474 5.10147C10.4606 5.03283 10.5888 4.99853 10.7156 4.99853ZM3.80917 0C1.71024 0 0 1.8681 0 4.16443V15.8311C0 18.1304 1.71024 20 3.80917 20H22.1936C24.2925 20 26 18.1304 26 15.8311V4.16443C26 1.8681 24.2925 0 22.1936 0H3.80917Z" fill="white"/>
</svg>
