<svg width="35" height="35" viewBox="0 0 35 35" fill="none" xmlns="http://www.w3.org/2000/svg">
<circle cx="17.5" cy="17.9688" r="17" fill="#222429"/>
<path fill-rule="evenodd" clip-rule="evenodd" d="M11.4999 11.9686C11.4999 11.2736 11.7011 10.5935 12.0791 10.0104C12.4571 9.42726 12.9958 8.966 13.6302 8.6823C14.2646 8.39859 14.9676 8.30458 15.6543 8.41159C16.3409 8.5186 16.9819 8.82207 17.4999 9.28537C18.0956 8.75149 18.8521 8.43121 19.65 8.37509C20.448 8.31896 21.2419 8.53018 21.9064 8.97541C22.5709 9.42064 23.0683 10.0745 23.3199 10.8338C23.5715 11.5931 23.5631 12.4146 23.2959 13.1686H24.6999C25.3364 13.1686 25.9469 13.4214 26.397 13.8715C26.847 14.3216 27.0999 14.932 27.0999 15.5686C27.0999 16.2051 26.847 16.8155 26.397 17.2656C25.9469 17.7157 25.3364 17.9686 24.6999 17.9686H18.6999V16.7686C18.6999 16.4503 18.5735 16.1451 18.3484 15.92C18.1234 15.695 17.8182 15.5686 17.4999 15.5686C17.1816 15.5686 16.8764 15.695 16.6514 15.92C16.4263 16.1451 16.2999 16.4503 16.2999 16.7686V17.9686H10.2999C9.66338 17.9686 9.05293 17.7157 8.60285 17.2656C8.15276 16.8155 7.8999 16.2051 7.8999 15.5686C7.8999 14.932 8.15276 14.3216 8.60285 13.8715C9.05293 13.4214 9.66338 13.1686 10.2999 13.1686H11.7039C11.5719 12.793 11.4999 12.3886 11.4999 11.9686ZM16.2999 13.1686V11.9686C16.2999 11.7312 16.2295 11.4992 16.0977 11.3019C15.9658 11.1045 15.7784 10.9507 15.5591 10.8599C15.3399 10.7691 15.0986 10.7453 14.8658 10.7916C14.633 10.8379 14.4192 10.9522 14.2514 11.12C14.0836 11.2879 13.9693 11.5017 13.923 11.7345C13.8767 11.9672 13.9004 12.2085 13.9912 12.4278C14.0821 12.6471 14.2359 12.8345 14.4332 12.9663C14.6306 13.0982 14.8626 13.1686 15.0999 13.1686H16.2999ZM19.8999 13.1686C20.1372 13.1686 20.3692 13.0982 20.5666 12.9663C20.7639 12.8345 20.9177 12.6471 21.0086 12.4278C21.0994 12.2085 21.1231 11.9672 21.0768 11.7345C21.0305 11.5017 20.9163 11.2879 20.7484 11.12C20.5806 10.9522 20.3668 10.8379 20.134 10.7916C19.9012 10.7453 19.66 10.7691 19.4407 10.8599C19.2214 10.9507 19.034 11.1045 18.9021 11.3019C18.7703 11.4992 18.6999 11.7312 18.6999 11.9686V13.1686H19.8999Z" fill="url(#paint0_linear_2857_4232)"/>
<path d="M16.3001 19.1685H9.1001V25.1685C9.1001 25.805 9.35295 26.4154 9.80304 26.8655C10.2531 27.3156 10.8636 27.5685 11.5001 27.5685H16.3001V19.1685ZM18.7001 27.5685H23.5001C24.1366 27.5685 24.7471 27.3156 25.1972 26.8655C25.6472 26.4154 25.9001 25.805 25.9001 25.1685V19.1685H18.7001V27.5685Z" fill="url(#paint1_linear_2857_4232)"/>
<defs>
<linearGradient id="paint0_linear_2857_4232" x1="27.0999" y1="13.1674" x2="7.8999" y2="13.1674" gradientUnits="userSpaceOnUse">
<stop stop-color="#5B1BE1"/>
<stop offset="1" stop-color="#B221E5"/>
</linearGradient>
<linearGradient id="paint1_linear_2857_4232" x1="25.9001" y1="23.3685" x2="9.1001" y2="23.3685" gradientUnits="userSpaceOnUse">
<stop stop-color="#5B1BE1"/>
<stop offset="1" stop-color="#B221E5"/>
</linearGradient>
</defs>
</svg>
