<svg width="221" height="91" viewBox="0 0 221 91" fill="none" xmlns="http://www.w3.org/2000/svg">
<path d="M205.617 0.96875H40.5312C39.288 0.96875 38.0958 1.46261 37.2167 2.34169C36.3376 3.22076 35.8438 4.41305 35.8438 5.65625C35.8438 6.89945 35.3499 8.09173 34.4708 8.97081C33.5917 9.84989 32.3995 10.3438 31.1562 10.3438C29.913 10.3438 28.7208 9.84989 27.8417 8.97081C26.9626 8.09173 26.4688 6.89945 26.4688 5.65625C26.4688 4.41305 25.9749 3.22076 25.0958 2.34169C24.2167 1.46261 23.0245 0.96875 21.7812 0.96875H15.3828C11.4854 0.96875 7.74756 2.517 4.99166 5.27291C2.23575 8.02881 0.6875 11.7666 0.6875 15.6641V75.3359C0.6875 79.2334 2.23575 82.9712 4.99166 85.7271C7.74756 88.483 11.4854 90.0312 15.3828 90.0312H21.7812C23.0245 90.0312 24.2167 89.5374 25.0958 88.6583C25.9749 87.7792 26.4688 86.587 26.4688 85.3438C26.4688 84.1005 26.9626 82.9083 27.8417 82.0292C28.7208 81.1501 29.913 80.6562 31.1562 80.6562C32.3995 80.6562 33.5917 81.1501 34.4708 82.0292C35.3499 82.9083 35.8438 84.1005 35.8438 85.3438C35.8438 86.587 36.3376 87.7792 37.2167 88.6583C38.0958 89.5374 39.288 90.0312 40.5312 90.0312H205.617C209.515 90.0312 213.252 88.483 216.008 85.7271C218.764 82.9712 220.312 79.2334 220.312 75.3359V15.6641C220.312 11.7666 218.764 8.02881 216.008 5.27291C213.252 2.517 209.515 0.96875 205.617 0.96875ZM35.8438 64.25C35.8438 65.4932 35.3499 66.6855 34.4708 67.5646C33.5917 68.4436 32.3995 68.9375 31.1562 68.9375C29.913 68.9375 28.7208 68.4436 27.8417 67.5646C26.9626 66.6855 26.4688 65.4932 26.4688 64.25V59.5625C26.4688 58.3193 26.9626 57.127 27.8417 56.2479C28.7208 55.3689 29.913 54.875 31.1562 54.875C32.3995 54.875 33.5917 55.3689 34.4708 56.2479C35.3499 57.127 35.8438 58.3193 35.8438 59.5625V64.25ZM35.8438 47.8438C35.8438 49.087 35.3499 50.2792 34.4708 51.1583C33.5917 52.0374 32.3995 52.5312 31.1562 52.5312C29.913 52.5312 28.7208 52.0374 27.8417 51.1583C26.9626 50.2792 26.4688 49.087 26.4688 47.8438V43.1562C26.4688 41.913 26.9626 40.7208 27.8417 39.8417C28.7208 38.9626 29.913 38.4688 31.1562 38.4688C32.3995 38.4688 33.5917 38.9626 34.4708 39.8417C35.3499 40.7208 35.8438 41.913 35.8438 43.1562V47.8438ZM35.8438 31.4375C35.8438 32.6807 35.3499 33.873 34.4708 34.7521C33.5917 35.6311 32.3995 36.125 31.1562 36.125C29.913 36.125 28.7208 35.6311 27.8417 34.7521C26.9626 33.873 26.4688 32.6807 26.4688 31.4375V26.75C26.4688 25.5068 26.9626 24.3145 27.8417 23.4354C28.7208 22.5564 29.913 22.0625 31.1562 22.0625C32.3995 22.0625 33.5917 22.5564 34.4708 23.4354C35.3499 24.3145 35.8438 25.5068 35.8438 26.75V31.4375Z" fill="#222429"/>
</svg>
